<?xml version="1.0" standalone="no"?>
<!DOCTYPE svg PUBLIC "-//W3C//DTD SVG 1.1//EN" "http://www.w3.org/Graphics/SVG/1.1/DTD/svg11.dtd" >
<svg xmlns="http://www.w3.org/2000/svg" xmlns:xlink="http://www.w3.org/1999/xlink" version="1.1">
<metadata>
Created by FontForge 20161013 at Sun Jun 12 02:43:08 2016
 By ,,,
Copyright 2009 The Cairo Project Authors (gaber@gaberism.net)
</metadata>
<defs>
<font id="Cairo-ExtraLight" horiz-adv-x="560" >
  <font-face 
    font-family="Cairo ExtraLight"
    font-weight="250"
    font-stretch="normal"
    units-per-em="1000"
    panose-1="0 0 3 0 0 0 0 0 0 0"
    ascent="800"
    descent="-200"
    x-height="500"
    cap-height="700"
    bbox="-224 -424 1540 1158"
    underline-thickness="50"
    underline-position="-200"
    unicode-range="U+000D-FEFC"
  />
<missing-glyph horiz-adv-x="235" 
 />
    <glyph glyph-name="uniFDF2" unicode="&#x627;&#xfedf;&#xfee0;&#xfeea;" horiz-adv-x="1314" arabic-form="isolated" 
d="M727 1014v-166l-36 -16v167zM678 670q-38 -7 -54.5 5t-16.5 42q0 24 2 49l24 6v-40q0 -16 7.5 -27.5t24.5 -8.5q29 2 29 41v33l31 6v-33q0 -12 11 -21t25 -5l23 5v82l24 5q3 -20 3 -49v-57l-51 -10q-43 -9 -50 18v-2q1 -30 -32 -39zM927 34v696h39v-730h-711
q-123 0 -169 59.5t-46 189.5q0 133 44.5 197t150.5 64q97 0 219 -10v-466h245v576h39v-576h189zM1185 730h39v-730h-39v730zM79 252q0 -116 42 -167t151 -51h143v434q-124 7 -157 7q-97 0 -138 -53.5t-41 -169.5z" />
    <glyph glyph-name="uniFEF5" unicode="&#xfedf;&#xfe82;" horiz-adv-x="563" arabic-form="isolated" 
d="M99 709q-22 0 -55 -32l-9 -5l-6 24q39 47 73 47q17 0 64 -22q51 -21 61 -21q9 0 26.5 10.5t26.5 19.5l7 6l7 -24q-35 -46 -64 -46q-20 0 -66 20q-54 23 -65 23zM438 730h38v-730h-436v34h129v561h39v-561h230v696z" />
    <glyph glyph-name="uniFEF6" unicode="&#xfee0;&#xfe82;" horiz-adv-x="571" arabic-form="final" 
d="M99 709q-22 0 -55 -32l-9 -5l-6 24q39 47 73 47q17 0 64 -22q51 -21 61 -21q9 0 26.5 10.5t26.5 19.5l7 6l7 -24q-35 -46 -64 -46q-20 0 -66 20q-54 23 -65 23zM476 34h95v-34h-531v34h129v561h39v-561h230v696h38v-696z" />
    <glyph glyph-name="uniFEF7" unicode="&#xfedf;&#xfe84;" horiz-adv-x="563" arabic-form="isolated" 
d="M69 630l-8 22l50 13q-31 27 -31 65q0 34 23.5 58.5t61.5 24.5q23 0 43 -8.5t27 -15.5l-8 -23q-19 15 -49 15q-28 0 -46 -18t-18 -43q0 -29 24 -47l116 31l9 -36zM438 730h38v-730h-436v34h129v561h39v-561h230v696z" />
    <glyph glyph-name="uniFEF8" unicode="&#xfee0;&#xfe84;" horiz-adv-x="571" arabic-form="final" 
d="M69 630l-8 22l50 13q-31 27 -31 65q0 34 23.5 58.5t61.5 24.5q23 0 43 -8.5t27 -15.5l-8 -23q-19 15 -49 15q-28 0 -46 -18t-18 -43q0 -29 24 -47l116 31l9 -36zM476 34h95v-34h-531v34h129v561h39v-561h230v696h38v-696z" />
    <glyph glyph-name="uniFEF9" unicode="&#xfedf;&#xfe88;" horiz-adv-x="563" arabic-form="isolated" 
d="M438 730h38v-730h-436v34h129v561h39v-561h230v696zM156 -221l117 32l9 -36l-194 -38l-8 22l49 13q-30 26 -30 65q0 34 23.5 58.5t61.5 24.5q23 0 43 -9t26 -15l-8 -24q-20 16 -48 16t-46 -18t-18 -43q0 -28 23 -48z" />
    <glyph glyph-name="uniFEFA" unicode="&#xfee0;&#xfe88;" horiz-adv-x="571" arabic-form="final" 
d="M476 34h95v-34h-531v34h129v561h39v-561h230v696h38v-696zM156 -221l117 32l9 -36l-194 -38l-8 22l49 13q-30 26 -30 65q0 34 23.5 58.5t61.5 24.5q23 0 43 -9t26 -15l-8 -24q-20 16 -48 16t-46 -18t-18 -43q0 -28 23 -48z" />
    <glyph glyph-name="uniFEFB" unicode="&#xfedf;&#xfe8e;" horiz-adv-x="563" arabic-form="isolated" 
d="M438 730h38v-730h-436v34h129v561h39v-561h230v696z" />
    <glyph glyph-name="uniFEFC" unicode="&#xfee0;&#xfe8e;" horiz-adv-x="571" arabic-form="final" 
d="M476 34h95v-34h-531v34h129v561h39v-561h230v696h38v-696z" />
    <glyph glyph-name="uni06440671" unicode="&#xfedf;&#xfb51;" horiz-adv-x="563" 
d="M288 681v-27h-243v27h48q0 40 30.5 70.5t81.5 30.5q83 0 83 -101zM112 681h148q0 76 -63 76q-35 0 -60 -19.5t-25 -56.5zM438 730h38v-730h-436v34h129v561h39v-561h230v696z" />
    <glyph glyph-name="uni06440671.fina" unicode="&#xfee0;&#xfb51;" horiz-adv-x="571" 
d="M288 681v-27h-243v27h48q0 40 30.5 70.5t81.5 30.5q83 0 83 -101zM112 681h148q0 76 -63 76q-35 0 -60 -19.5t-25 -56.5zM476 34h95v-34h-531v34h129v561h39v-561h230v696h38v-696z" />
    <glyph glyph-name="uni066E.init" unicode="&#x66e;" horiz-adv-x="275" 
d="M149 500h39v-500h-188v34h149v466z" />
    <glyph glyph-name="uni066E.medi" unicode="&#x66e;" horiz-adv-x="336" 
d="M188 34h148v-34h-336v34h149v466h39v-466z" />
    <glyph glyph-name="uni066E.fina" unicode="&#x66e;" horiz-adv-x="771" 
d="M627 34h144v-34h-476q-79 0 -129 10t-73.5 31t-31 43.5t-7.5 58.5q0 80 31 245l28 -1q-3 -28 -10.5 -83.5t-11 -91t-3.5 -60.5q0 -75 44.5 -96.5t171.5 -21.5h284v466h39v-466z" />
    <glyph glyph-name="uni066F.init" unicode="&#x66f;" horiz-adv-x="559" 
d="M480 492l12 -1v-491h-492v34h167q-22 36 -28.5 78t-6.5 111q0 165 42 220.5t174 55.5q71 0 132 -7zM453 34v428q-72 6 -114 6q-102 0 -136.5 -52t-34.5 -173q0 -165 44 -209h241z" />
    <glyph glyph-name="uni066F.medi" unicode="&#x66f;" horiz-adv-x="574" 
d="M492 34h82v-34h-574v34h167q-22 36 -28.5 78t-6.5 111q0 165 42 220.5t174 55.5q71 0 132 -7l12 -1v-457zM168 243q0 -165 44 -209h241v428q-72 6 -114 6q-102 0 -136.5 -52t-34.5 -173z" />
    <glyph glyph-name="uni066F.fina" unicode="&#x66f;" horiz-adv-x="855" 
d="M855 34v-34h-106v-36q0 -94 -58.5 -144.5t-153.5 -50.5h-281q-96 0 -156 50.5t-60 144.5q0 73 33 263l38 -6q-29 -181 -29 -238q0 -87 45.5 -133.5t133.5 -46.5h269q90 0 135 46.5t45 134.5v16h-159q-93 0 -128.5 51t-35.5 181q0 65 8 110.5t28.5 83t60 56.5t98.5 19
q65 0 155 -9l12 -1v-457h106zM572 34h138v428q-107 8 -116 8q-95 0 -131.5 -57t-36.5 -176q0 -112 32.5 -157.5t113.5 -45.5z" />
    <glyph glyph-name="uni06A1.init" unicode="&#x6a1;" horiz-adv-x="559" 
d="M480 492l12 -1v-491h-492v34h167q-22 36 -28.5 78t-6.5 111q0 165 42 220.5t174 55.5q71 0 132 -7zM453 34v428q-72 6 -114 6q-102 0 -136.5 -52t-34.5 -173q0 -165 44 -209h241z" />
    <glyph glyph-name="uni06A1.medi" unicode="&#x6a1;" horiz-adv-x="574" 
d="M492 34h82v-34h-574v34h167q-22 36 -28.5 78t-6.5 111q0 165 42 220.5t174 55.5q71 0 132 -7l12 -1v-457zM168 243q0 -165 44 -209h241v428q-72 6 -114 6q-102 0 -136.5 -52t-34.5 -173z" />
    <glyph glyph-name="uni06A1.fina" unicode="&#x6a1;" horiz-adv-x="945" 
d="M862 34h83v-34h-664q-79 0 -129 10t-73.5 31t-31 43.5t-7.5 57.5q0 91 33 246l28 -1q0 -4 -5 -36.5t-9.5 -64.5t-8.5 -71t-4 -63q0 -75 44.5 -96.5t171.5 -21.5h247q-22 36 -28.5 78t-6.5 111q0 165 42 220.5t174 55.5q71 0 132 -7l12 -1v-457zM538 243q0 -165 44 -209
h241v428q-72 6 -114 6q-102 0 -136.5 -52t-34.5 -173z" />
    <glyph glyph-name="uni06BA.init" unicode="&#x6ba;" horiz-adv-x="275" 
d="M149 500h39v-500h-188v34h149v466z" />
    <glyph glyph-name="uni06BA.medi" unicode="&#x6ba;" horiz-adv-x="336" 
d="M188 34h148v-34h-336v34h149v466h39v-466z" />
    <glyph glyph-name="uni06C2.init" unicode="&#x6c2;" horiz-adv-x="275" 
d="M70 586l-8 22l50 13q-31 27 -31 65q0 34 23.5 58.5t61.5 24.5q23 0 43 -8.5t27 -15.5l-8 -23q-19 15 -49 15q-28 0 -46 -18t-18 -43q0 -29 24 -47l116 31l9 -36zM149 34v466h39v-500h-188v34h149zM66 -269l52 210h31l-43 -210h-40z" />
    <glyph glyph-name="uni06C2.medi" unicode="&#x6c2;" horiz-adv-x="521" 
d="M165 272l-8 22l50 13q-31 27 -31 65q0 34 23.5 58.5t61.5 24.5q23 0 43 -8.5t27 -15.5l-8 -23q-19 15 -49 15q-28 0 -46 -18t-18 -43q0 -29 24 -47l116 31l9 -36zM521 34v-34h-123v-312l-10 -1q-1 0 -8.5 -0.5t-18 -1t-15.5 -1.5q-36 0 -59.5 2t-49 9.5t-41.5 21
t-31 36.5t-23.5 56.5t-13.5 81t-6 109.5h-122v34h161v-25q0 -72 4 -121.5t15 -82t24 -50.5t36.5 -26.5t46 -10.5t59.5 -3h13v319h162z" />
    <glyph glyph-name="uni06C2.fina" unicode="&#x6c2;" horiz-adv-x="574" 
d="M179 586l-8 22l50 13q-31 27 -31 65q0 34 23.5 58.5t61.5 24.5q23 0 43 -8.5t27 -15.5l-8 -23q-19 15 -49 15q-28 0 -46 -18t-18 -43q0 -29 24 -47l116 31l9 -36zM454 34h120v-34h-319q-123 0 -169 59.5t-46 189.5q0 133 44.5 197t150.5 64q97 0 219 -10v-466zM79 252
q0 -116 42 -167t151 -51h143v434q-124 7 -157 7q-97 0 -138 -53.5t-41 -169.5z" />
    <glyph glyph-name="uni06C3.fina" unicode="&#x6c3;" horiz-adv-x="578" 
d="M257 680v-53h-45v53h45zM351 680v-53h-45v53h45zM454 34h124v-34h-163v469q-50 6 -174 6q-87 0 -124 -48.5t-37 -155.5v-271h-40v274q0 114 41.5 175.5t123.5 61.5q75 0 210 -7v10l2 -10q22 -2 25 -2l12 -1v-467z" />
    <glyph glyph-name="uniFB51" unicode="&#x671;" horiz-adv-x="227" arabic-form="final" 
d="M155 821q83 0 83 -101v-27h-243v27h48q0 40 30.5 70.5t81.5 30.5zM62 720h148q0 76 -63 76q-35 0 -60 -19.5t-25 -56.5zM136 644v-610h91v-34h-130v644h39z" />
    <glyph glyph-name="uniFB57" unicode="&#x67e;" horiz-adv-x="771" arabic-form="final" 
d="M627 34h144v-34h-476q-79 0 -129 10t-73.5 31t-31 43.5t-7.5 58.5q0 80 31 245l28 -1q-3 -28 -10.5 -83.5t-11 -91t-3.5 -60.5q0 -75 44.5 -96.5t171.5 -21.5h284v466h39v-466zM338 -80v-60h-58v60h58zM387 -140v60h58v-60h-58zM332 -252v61h61v-61h-61z" />
    <glyph glyph-name="uniFB58" unicode="&#x67e;" horiz-adv-x="275" arabic-form="initial" 
d="M188 500v-500h-188v34h149v466h39zM141 -80v-60h-58v60h58zM190 -80h58v-60h-58v60zM135 -252v61h61v-61h-61z" />
    <glyph glyph-name="uniFB59" unicode="&#x67e;" horiz-adv-x="336" arabic-form="medial" 
d="M188 34h148v-34h-336v34h149v466h39v-466zM143 -80v-60h-58v60h58zM192 -140v60h58v-60h-58zM137 -252v61h61v-61h-61z" />
    <glyph glyph-name="uniFB67" unicode="&#x679;" horiz-adv-x="771" arabic-form="final" 
d="M457 571v-71h-193v33h19v169h35v-106q10 19 16 27.5t20 16.5t34 8q69 0 69 -77zM386 610q-31 0 -49.5 -23t-18.5 -49v-5h102v38q0 39 -34 39zM627 34h144v-34h-476q-79 0 -129 10t-73.5 31t-31 43.5t-7.5 58.5q0 80 31 245l28 -1q-3 -28 -10.5 -83.5t-11 -91t-3.5 -60.5
q0 -75 44.5 -96.5t171.5 -21.5h284v466h39v-466z" />
    <glyph glyph-name="uniFB68" unicode="&#x679;" horiz-adv-x="275" arabic-form="initial" 
d="M191 741q69 0 69 -77v-71h-193v33h19v169h35v-106q10 19 16 27.5t20 16.5t34 8zM189 703q-31 0 -49.5 -23t-18.5 -49v-5h102v38q0 39 -34 39zM149 34v466h39v-500h-188v34h149z" />
    <glyph glyph-name="uniFB69" unicode="&#x679;" horiz-adv-x="336" arabic-form="medial" 
d="M262 664v-71h-193v33h19v169h35v-106q10 19 16 27.5t20 16.5t34 8q69 0 69 -77zM191 703q-31 0 -49.5 -23t-18.5 -49v-5h102v38q0 39 -34 39zM188 34h148v-34h-336v34h149v466h39v-466z" />
    <glyph glyph-name="uniFB6B" unicode="&#x6a4;" horiz-adv-x="945" arabic-form="final" 
d="M735 765v-61h-61v61h61zM680 653v-60h-58v60h58zM729 593v60h58v-60h-58zM862 34h83v-34h-664q-79 0 -129 10t-73.5 31t-31 43.5t-7.5 57.5q0 91 33 246l28 -1q0 -4 -5 -36.5t-9.5 -64.5t-8.5 -71t-4 -63q0 -75 44.5 -96.5t171.5 -21.5h247q-22 36 -28.5 78t-6.5 111
q0 165 42 220.5t174 55.5q71 0 132 -7l12 -1v-457zM538 243q0 -165 44 -209h241v428q-72 6 -114 6q-102 0 -136.5 -52t-34.5 -173z" />
    <glyph glyph-name="uniFB6C" unicode="&#x6a4;" horiz-adv-x="559" arabic-form="initial" 
d="M367 765v-61h-61v61h61zM312 653v-60h-58v60h58zM361 593v60h58v-60h-58zM480 492l12 -1v-491h-492v34h167q-22 36 -28.5 78t-6.5 111q0 165 42 220.5t174 55.5q71 0 132 -7zM453 34v428q-72 6 -114 6q-102 0 -136.5 -52t-34.5 -173q0 -165 44 -209h241z" />
    <glyph glyph-name="uniFB6D" unicode="&#x6a4;" horiz-adv-x="574" arabic-form="medial" 
d="M319 765v-61h-61v61h61zM264 653v-60h-58v60h58zM313 593v60h58v-60h-58zM492 34h82v-34h-574v34h167q-22 36 -28.5 78t-6.5 111q0 165 42 220.5t174 55.5q71 0 132 -7l12 -1v-457zM168 243q0 -165 44 -209h241v428q-72 6 -114 6q-102 0 -136.5 -52t-34.5 -173z" />
    <glyph glyph-name="uniFB7B" unicode="&#x686;" horiz-adv-x="591" arabic-form="final" 
d="M277 -316q-230 0 -230 214q0 99 50 145.5t150 46.5q61 0 112 -16t75 -36v322q0 54 -31.5 82.5t-87.5 28.5q-61 1 -202 -26l-3 35q15 2 51.5 9t59 10.5t51.5 7t48 3.5q18 0 35.5 -3t40 -14t39 -29t27.5 -51.5t11 -77.5v-301h118v-34h-157q-29 20 -80 36.5t-108 16.5
q-78 0 -117.5 -36t-39.5 -119q0 -181 196 -181l7 -34q-3 0 -8 0.5t-7 0.5zM250 -166v78h68v-78h-68zM402 -166v78h68v-78h-68zM328 -278v71h61v-71h-61z" />
    <glyph glyph-name="uniFB7C" unicode="&#x686;" horiz-adv-x="516" arabic-form="initial" 
d="M303 510q18 0 35.5 -3t40 -14t39 -29t27.5 -51.5t11 -77.5v-335h-456v34h417v326q0 54 -31.5 82.5t-87.5 28.5q-61 1 -202 -26l-3 35q15 2 51.5 9t59 10.5t51.5 7t48 3.5zM238 -80v-60h-58v60h58zM287 -140v60h58v-60h-58zM232 -252v61h61v-61h-61z" />
    <glyph glyph-name="uniFB7D" unicode="&#x686;" horiz-adv-x="577" arabic-form="medial" 
d="M456 34h121v-34h-577v34h417v326q0 54 -31.5 82.5t-87.5 28.5q-61 1 -202 -26l-3 35q15 2 51.5 9t59 10.5t51.5 7t48 3.5q18 0 35.5 -3t40 -14t39 -29t27.5 -51.5t11 -77.5v-301zM262 -80v-60h-58v60h58zM311 -140v60h58v-60h-58zM256 -252v61h61v-61h-61z" />
    <glyph glyph-name="uniFB89" unicode="&#x688;" horiz-adv-x="494" arabic-form="final" 
d="M201 691v-71h-193v33h19v169h35v-106q10 19 16 27.5t20 16.5t34 8q69 0 69 -77zM130 730q-31 0 -49.5 -23t-18.5 -49v-5h102v38q0 39 -34 39zM407 34h87v-34h-454v34h328v169q0 85 -20 144.5t-53.5 88t-66.5 40t-70 11.5h-67l-2 25l14 4q27 4 56 4q35 0 67 -7.5t66 -29
t58.5 -55.5t40.5 -93.5t16 -136.5v-164z" />
    <glyph glyph-name="uniFB8B" unicode="&#x698;" horiz-adv-x="377" arabic-form="final" 
d="M286 765v-61h-61v61h61zM231 653v-60h-58v60h58zM280 593v60h58v-60h-58zM377 34v-34h-99v-10q0 -238 -165 -238q-8 0 -73 5v34q75 -5 78 -5q61 0 91 49t30 136v529h39v-466h99z" />
    <glyph glyph-name="uniFB8D" unicode="&#x691;" horiz-adv-x="377" arabic-form="final" 
d="M350 664v-71h-193v33h19v169h35v-106q10 19 16 27.5t20 16.5t34 8q69 0 69 -77zM279 703q-31 0 -49.5 -23t-18.5 -49v-5h102v38q0 39 -34 39zM377 34v-34h-99v-10q0 -238 -165 -238q-8 0 -73 5v34q75 -5 78 -5q61 0 91 49t30 136v529h39v-466h99z" />
    <glyph glyph-name="uniFB8F" unicode="&#x6a9;" horiz-adv-x="785" arabic-form="final" 
d="M667 34h118v-34h-504q-79 0 -129 10t-73.5 31t-31 43.5t-7.5 58.5q0 61 27 217l29 -1q-22 -174 -22 -207q0 -75 44.5 -96.5t171.5 -21.5h338v159q0 168 -107 170h-273l-39 53l47 92q39 74 135 197l25 -14q-86 -130 -119 -194l-52 -100h272q150 0 150 -205v-158z" />
    <glyph glyph-name="uniFB90" unicode="&#x6a9;" horiz-adv-x="551" arabic-form="initial" 
d="M341 397q150 0 150 -205v-192h-491v34h452v159q0 168 -107 170h-273l-39 53l47 92q39 74 135 197l25 -14q-86 -130 -119 -194l-52 -100h272z" />
    <glyph glyph-name="uniFB91" unicode="&#x6a9;" horiz-adv-x="640" arabic-form="medial" 
d="M491 34h149v-34h-640v34h452v159q0 168 -107 170h-273l-39 53l47 92q39 74 135 197l25 -14q-86 -130 -119 -194l-52 -100h272q150 0 150 -205v-158z" />
    <glyph glyph-name="uniFB93" unicode="&#x6af;" horiz-adv-x="785" arabic-form="final" 
d="M211 494l-23 -46l-14 19l27 55q15 30 58.5 91.5t84.5 110.5l20 -11q-42 -52 -92 -123.5t-61 -95.5zM667 34h118v-34h-504q-79 0 -129 10t-73.5 31t-31 43.5t-7.5 58.5q0 61 27 217l29 -1q-22 -174 -22 -207q0 -75 44.5 -96.5t171.5 -21.5h338v159q0 168 -107 170h-273
l-39 53l47 92q39 74 135 197l25 -14q-86 -130 -119 -194l-52 -100h272q150 0 150 -205v-158z" />
    <glyph glyph-name="uniFB94" unicode="&#x6af;" horiz-adv-x="551" arabic-form="initial" 
d="M33 494l-23 -46l-14 19l27 55q15 30 58.5 91.5t84.5 110.5l20 -11q-42 -52 -92 -123.5t-61 -95.5zM341 397q150 0 150 -205v-192h-491v34h452v159q0 168 -107 170h-273l-39 53l47 92q39 74 135 197l25 -14q-86 -130 -119 -194l-52 -100h272z" />
    <glyph glyph-name="uniFB95" unicode="&#x6af;" horiz-adv-x="640" arabic-form="medial" 
d="M33 494l-23 -46l-14 19l27 55q15 30 58.5 91.5t84.5 110.5l20 -11q-42 -52 -92 -123.5t-61 -95.5zM491 34h149v-34h-640v34h452v159q0 168 -107 170h-273l-39 53l47 92q39 74 135 197l25 -14q-86 -130 -119 -194l-52 -100h272q150 0 150 -205v-158z" />
    <glyph glyph-name="uniFB9F" unicode="&#x6ba;" horiz-adv-x="638" arabic-form="final" 
d="M638 34v-34h-122v-57q0 -53 -21 -91.5t-56.5 -59.5t-74.5 -30.5t-81 -9.5q-102 0 -172.5 53.5t-70.5 142.5q0 81 43 324l39 -2q-40 -252 -40 -323q0 -73 58 -117t143 -44q79 0 136.5 39.5t57.5 122.5v552h39v-466h122z" />
    <glyph glyph-name="uniFBA7" unicode="&#x6c1;" horiz-adv-x="578" arabic-form="final" 
d="M454 34h124v-34h-163v469q-50 6 -174 6q-87 0 -124 -48.5t-37 -155.5v-271h-40v274q0 114 41.5 175.5t123.5 61.5q75 0 210 -7v10l2 -10q22 -2 25 -2l12 -1v-467z" />
    <glyph glyph-name="uniFBA8" unicode="&#x6c1;" horiz-adv-x="275" arabic-form="initial" 
d="M149 500h39v-500h-188v34h149v466zM66 -269l52 210h31l-43 -210h-40z" />
    <glyph glyph-name="uniFBA9" unicode="&#x6c1;" horiz-adv-x="521" arabic-form="medial" 
d="M521 34v-34h-123v-312l-10 -1q-1 0 -8.5 -0.5t-18 -1t-15.5 -1.5q-36 0 -59.5 2t-49 9.5t-41.5 21t-31 36.5t-23.5 56.5t-13.5 81t-6 109.5h-122v34h161v-25q0 -72 4 -121.5t15 -82t24 -50.5t36.5 -26.5t46 -10.5t59.5 -3h13v319h162z" />
    <glyph glyph-name="uniFBAB" unicode="&#x6be;" horiz-adv-x="753" arabic-form="final" 
d="M647 34h106v-34h-713v34h60v120q1 70 49.5 116.5t113.5 46.5q64 0 113.5 -44.5t49.5 -118.5v-120h182v166q0 285 -278 285q-69 0 -199 -22l-1 27q-1 0 4.5 1.5t16 4.5t25 6t33 6t38 6t42.5 4.5t44 1.5q45 0 82.5 -5t82.5 -24t76 -51.5t52 -93t21 -142.5v-170zM264 284
q-53 0 -89 -34t-36 -82v-134h248v133q0 49 -35 83t-88 34z" />
    <glyph glyph-name="uniFBAC" unicode="&#x6be;" horiz-adv-x="735" arabic-form="initial" 
d="M355 520q31 0 57.5 -2.5t60 -10.5t60 -21.5t53 -37.5t44 -56t28.5 -80.5t11 -107.5v-204h-669v34h122v120q1 70 49.5 116.5t113.5 46.5q64 0 113 -44.5t49 -118.5v-120h183v166q0 285 -279 285q-70 0 -198 -22l-1 27l54 14q80 16 149 16zM285 284q-53 0 -89 -34t-36 -82
v-134h248v133q0 49 -35 83t-88 34z" />
    <glyph glyph-name="uniFBAD" unicode="&#x6be;" horiz-adv-x="774" arabic-form="medial" 
d="M669 34h105v-34h-774v34h122v120q1 70 49.5 116.5t113.5 46.5q64 0 113 -44.5t49 -118.5v-120h183v166q0 285 -279 285q-70 0 -198 -22l-1 27l54 14q80 16 149 16q31 0 57.5 -2.5t60 -10.5t60 -21.5t53 -37.5t44 -56t28.5 -80.5t11 -107.5v-170zM285 284q-53 0 -89 -34
t-36 -82v-134h248v133q0 49 -35 83t-88 34z" />
    <glyph glyph-name="uniFBAF" unicode="&#x6d2;" horiz-adv-x="710" arabic-form="final" 
d="M710 0h-618q-10 -22 -10 -67q0 -144 235 -144h305v-34h-338q-73 0 -123 14.5t-75 41.5t-35 57.5t-10 70.5q0 31 7 61h-3l3 1q6 22 11 33h651v-34z" />
    <glyph glyph-name="uniFBB1" unicode="&#x6d3;" horiz-adv-x="710" arabic-form="final" 
d="M74 153l-8 22l50 13q-31 27 -31 65q0 34 23.5 58.5t61.5 24.5q23 0 43 -8.5t27 -15.5l-8 -23q-19 15 -49 15q-28 0 -46 -18t-18 -43q0 -29 24 -47l116 31l9 -36zM710 0h-618q-10 -22 -10 -67q0 -144 235 -144h305v-34h-338q-73 0 -123 14.5t-75 41.5t-35 57.5t-10 70.5
q0 31 7 61h-3l3 1q6 22 11 33h651v-34z" />
    <glyph glyph-name="uniFBE8" unicode="&#x649;" horiz-adv-x="275" arabic-form="initial" 
d="M149 500h39v-500h-188v34h149v466z" />
    <glyph glyph-name="uniFBE9" unicode="&#x649;" horiz-adv-x="336" arabic-form="medial" 
d="M188 34h148v-34h-336v34h149v466h39v-466z" />
    <glyph glyph-name="uniFBFD" unicode="&#x6cc;" horiz-adv-x="894" arabic-form="final" 
d="M894 34v-34h-149q1 -10 1 -30q0 -89 -53 -153.5t-158 -64.5h-253q-113 0 -177.5 58t-64.5 138q0 60 25 235l39 -6q-25 -163 -25 -214q0 -80 59.5 -128.5t138.5 -48.5l256 -2q82 0 129 56.5t47 125.5q0 12 -2 34h-37q-70 0 -101 18l14 25q20 -9 92 -9h219z" />
    <glyph glyph-name="uniFBFE" unicode="&#x6cc;" horiz-adv-x="275" arabic-form="initial" 
d="M149 34v466h39v-500h-188v34h149zM96 -134v54h45v-54h-45zM190 -80h45v-54h-45v54z" />
    <glyph glyph-name="uniFBFF" unicode="&#x6cc;" horiz-adv-x="336" arabic-form="medial" 
d="M188 34h148v-34h-336v34h149v466h39v-466zM98 -134v54h45v-54h-45zM192 -134v54h45v-54h-45z" />
    <glyph glyph-name="uniFC64" unicode="&#xfc64;" horiz-adv-x="709" arabic-form="final" 
d="M454 586l-8 22l50 13q-31 27 -31 65q0 34 23.5 58.5t61.5 24.5q23 0 43 -8.5t27 -15.5l-8 -23q-19 15 -49 15q-28 0 -46 -18t-18 -43q0 -29 24 -47l116 31l9 -36zM577 34h132v-34h-171v469q-138 -2 -260 -22v-469q0 -116 -40 -172t-123 -56q-6 0 -75 6v33q80 -5 82 -5
q58 0 87.5 47t29.5 130v506q108 33 338 33v-466z" />
    <glyph glyph-name="uniFC65" unicode="&#xfc65;" horiz-adv-x="709" arabic-form="final" 
d="M454 586l-8 22l50 13q-31 27 -31 65q0 34 23.5 58.5t61.5 24.5q23 0 43 -8.5t27 -15.5l-8 -23q-19 15 -49 15q-28 0 -46 -18t-18 -43q0 -29 24 -47l116 31l9 -36zM278 646v-53h-44v53h44zM577 34h132v-34h-171v469q-138 -2 -260 -22v-469q0 -116 -40 -172t-123 -56
q-6 0 -75 6v33q80 -5 82 -5q58 0 87.5 47t29.5 130v506q108 33 338 33v-466z" />
    <glyph glyph-name="uniFC67" unicode="&#xfc67;" horiz-adv-x="926" arabic-form="final" 
d="M671 586l-8 22l50 13q-31 27 -31 65q0 34 23.5 58.5t61.5 24.5q23 0 43 -8.5t27 -15.5l-8 -23q-19 15 -49 15q-28 0 -46 -18t-18 -43q0 -29 24 -47l116 31l9 -36zM308 553v-53h-44v53h44zM794 34h132v-34h-171v468q-146 -3 -239 -16v-509q0 -53 -21 -91.5t-56.5 -59.5
t-74.5 -30.5t-81 -9.5q-102 0 -172.5 53.5t-70.5 142.5q0 81 43 324l39 -2q-40 -252 -40 -323q0 -73 58 -117t143 -44q79 0 136.5 39.5t57.5 122.5v529q128 23 317 23v-466z" />
    <glyph glyph-name="uniFC68" unicode="&#xfc68;" horiz-adv-x="1032" arabic-form="final" 
d="M777 586l-8 22l50 13q-31 27 -31 65q0 34 23.5 58.5t61.5 24.5q23 0 43 -8.5t27 -15.5l-8 -23q-19 15 -49 15q-28 0 -46 -18t-18 -43q0 -29 24 -47l116 31l9 -36zM900 34h132v-34h-171v467h-329q-177 0 -177 -141q0 -29 1.5 -45.5t9 -33t18.5 -26t34 -19t51.5 -16.5
t74.5 -16q108 -19 155 -65.5t47 -134.5q0 -89 -53 -153.5t-158 -64.5h-253q-113 0 -177.5 58t-64.5 138q0 60 25 235l39 -6q-25 -163 -25 -214q0 -80 59.5 -128.5t138.5 -48.5l256 -2q82 0 129 56.5t47 125.5q0 73 -34.5 110t-140.5 57q-125 21 -171.5 58t-46.5 134
q0 88 52.5 131.5t164.5 43.5h367v-466z" />
    <glyph glyph-name="uniFC69" unicode="&#xfc69;" horiz-adv-x="1032" arabic-form="final" 
d="M777 586l-8 22l50 13q-31 27 -31 65q0 34 23.5 58.5t61.5 24.5q23 0 43 -8.5t27 -15.5l-8 -23q-19 15 -49 15q-28 0 -46 -18t-18 -43q0 -29 24 -47l116 31l9 -36zM900 34h132v-34h-171v467h-329q-177 0 -177 -141q0 -29 1.5 -45.5t9 -33t18.5 -26t34 -19t51.5 -16.5
t74.5 -16q108 -19 155 -65.5t47 -134.5q0 -89 -53 -153.5t-158 -64.5h-253q-113 0 -177.5 58t-64.5 138q0 60 25 235l39 -6q-25 -163 -25 -214q0 -80 59.5 -128.5t138.5 -48.5l256 -2q82 0 129 56.5t47 125.5q0 73 -34.5 110t-140.5 57q-125 21 -171.5 58t-46.5 134
q0 88 52.5 131.5t164.5 43.5h367v-466zM316 -374v54h45v-54h-45zM410 -374v54h45v-54h-45z" />
    <glyph glyph-name="uniFC6A" unicode="&#xfc6a;" horiz-adv-x="709" arabic-form="final" 
d="M577 34h132v-34h-171v469q-138 -2 -260 -22v-469q0 -116 -40 -172t-123 -56q-6 0 -75 6v33q80 -5 82 -5q58 0 87.5 47t29.5 130v506q108 33 338 33v-466zM528 -133v53h44v-53h-44z" />
    <glyph glyph-name="uniFC6B" unicode="&#xfc6b;" horiz-adv-x="709" arabic-form="final" 
d="M278 646v-53h-44v53h44zM577 34h132v-34h-171v469q-138 -2 -260 -22v-469q0 -116 -40 -172t-123 -56q-6 0 -75 6v33q80 -5 82 -5q58 0 87.5 47t29.5 130v506q108 33 338 33v-466zM528 -133v53h44v-53h-44z" />
    <glyph glyph-name="uniFC6D" unicode="&#xfc6d;" horiz-adv-x="926" arabic-form="final" 
d="M308 553v-53h-44v53h44zM794 34h132v-34h-171v468q-146 -3 -239 -16v-509q0 -53 -21 -91.5t-56.5 -59.5t-74.5 -30.5t-81 -9.5q-102 0 -172.5 53.5t-70.5 142.5q0 81 43 324l39 -2q-40 -252 -40 -323q0 -73 58 -117t143 -44q79 0 136.5 39.5t57.5 122.5v529
q128 23 317 23v-466zM745 -133v53h44v-53h-44z" />
    <glyph glyph-name="uniFC6E" unicode="&#xfc6e;" horiz-adv-x="1032" arabic-form="final" 
d="M900 34h132v-34h-171v467h-329q-177 0 -177 -141q0 -29 1.5 -45.5t9 -33t18.5 -26t34 -19t51.5 -16.5t74.5 -16q108 -19 155 -65.5t47 -134.5q0 -89 -53 -153.5t-158 -64.5h-253q-113 0 -177.5 58t-64.5 138q0 60 25 235l39 -6q-25 -163 -25 -214q0 -80 59.5 -128.5
t138.5 -48.5l256 -2q82 0 129 56.5t47 125.5q0 73 -34.5 110t-140.5 57q-125 21 -171.5 58t-46.5 134q0 88 52.5 131.5t164.5 43.5h367v-466zM851 -133v53h44v-53h-44z" />
    <glyph glyph-name="uniFC6F" unicode="&#xfc6f;" horiz-adv-x="1032" arabic-form="final" 
d="M900 34h132v-34h-171v467h-329q-177 0 -177 -141q0 -29 1.5 -45.5t9 -33t18.5 -26t34 -19t51.5 -16.5t74.5 -16q108 -19 155 -65.5t47 -134.5q0 -89 -53 -153.5t-158 -64.5h-253q-113 0 -177.5 58t-64.5 138q0 60 25 235l39 -6q-25 -163 -25 -214q0 -80 59.5 -128.5
t138.5 -48.5l256 -2q82 0 129 56.5t47 125.5q0 73 -34.5 110t-140.5 57q-125 21 -171.5 58t-46.5 134q0 88 52.5 131.5t164.5 43.5h367v-466zM851 -133v53h44v-53h-44zM316 -374v54h45v-54h-45zM410 -374v54h45v-54h-45z" />
    <glyph glyph-name="uniFC70" unicode="&#xfc70;" horiz-adv-x="709" arabic-form="final" 
d="M527 650v-53h-45v53h45zM621 650v-53h-45v53h45zM577 34h132v-34h-171v469q-138 -2 -260 -22v-469q0 -116 -40 -172t-123 -56q-6 0 -75 6v33q80 -5 82 -5q58 0 87.5 47t29.5 130v506q108 33 338 33v-466z" />
    <glyph glyph-name="uniFC71" unicode="&#xfc71;" horiz-adv-x="709" arabic-form="final" 
d="M527 650v-53h-45v53h45zM621 650v-53h-45v53h45zM278 646v-53h-44v53h44zM577 34h132v-34h-171v469q-138 -2 -260 -22v-469q0 -116 -40 -172t-123 -56q-6 0 -75 6v33q80 -5 82 -5q58 0 87.5 47t29.5 130v506q108 33 338 33v-466z" />
    <glyph glyph-name="uniFC73" unicode="&#xfc73;" horiz-adv-x="926" arabic-form="final" 
d="M744 650v-53h-45v53h45zM838 650v-53h-45v53h45zM308 553v-53h-44v53h44zM794 34h132v-34h-171v468q-146 -3 -239 -16v-509q0 -53 -21 -91.5t-56.5 -59.5t-74.5 -30.5t-81 -9.5q-102 0 -172.5 53.5t-70.5 142.5q0 81 43 324l39 -2q-40 -252 -40 -323q0 -73 58 -117
t143 -44q79 0 136.5 39.5t57.5 122.5v529q128 23 317 23v-466z" />
    <glyph glyph-name="uniFC74" unicode="&#xfc74;" horiz-adv-x="1032" arabic-form="final" 
d="M850 650v-53h-45v53h45zM944 650v-53h-45v53h45zM900 34h132v-34h-171v467h-329q-177 0 -177 -141q0 -29 1.5 -45.5t9 -33t18.5 -26t34 -19t51.5 -16.5t74.5 -16q108 -19 155 -65.5t47 -134.5q0 -89 -53 -153.5t-158 -64.5h-253q-113 0 -177.5 58t-64.5 138q0 60 25 235
l39 -6q-25 -163 -25 -214q0 -80 59.5 -128.5t138.5 -48.5l256 -2q82 0 129 56.5t47 125.5q0 73 -34.5 110t-140.5 57q-125 21 -171.5 58t-46.5 134q0 88 52.5 131.5t164.5 43.5h367v-466z" />
    <glyph glyph-name="uniFC75" unicode="&#xfc75;" horiz-adv-x="1032" arabic-form="final" 
d="M850 650v-53h-45v53h45zM944 650v-53h-45v53h45zM900 34h132v-34h-171v467h-329q-177 0 -177 -141q0 -29 1.5 -45.5t9 -33t18.5 -26t34 -19t51.5 -16.5t74.5 -16q108 -19 155 -65.5t47 -134.5q0 -89 -53 -153.5t-158 -64.5h-253q-113 0 -177.5 58t-64.5 138q0 60 25 235
l39 -6q-25 -163 -25 -214q0 -80 59.5 -128.5t138.5 -48.5l256 -2q82 0 129 56.5t47 125.5q0 73 -34.5 110t-140.5 57q-125 21 -171.5 58t-46.5 134q0 88 52.5 131.5t164.5 43.5h367v-466zM316 -374v54h45v-54h-45zM410 -374v54h45v-54h-45z" />
    <glyph glyph-name="uniFC76" unicode="&#xfc76;" horiz-adv-x="709" arabic-form="final" 
d="M580 765v-61h-61v61h61zM525 653v-60h-58v60h58zM574 593v60h58v-60h-58zM577 34h132v-34h-171v469q-138 -2 -260 -22v-469q0 -116 -40 -172t-123 -56q-6 0 -75 6v33q80 -5 82 -5q58 0 87.5 47t29.5 130v506q108 33 338 33v-466z" />
    <glyph glyph-name="uniFC77" unicode="&#xfc77;" horiz-adv-x="709" arabic-form="final" 
d="M580 765v-61h-61v61h61zM525 653v-60h-58v60h58zM574 593v60h58v-60h-58zM278 646v-53h-44v53h44zM577 34h132v-34h-171v469q-138 -2 -260 -22v-469q0 -116 -40 -172t-123 -56q-6 0 -75 6v33q80 -5 82 -5q58 0 87.5 47t29.5 130v506q108 33 338 33v-466z" />
    <glyph glyph-name="uniFC79" unicode="&#xfc79;" horiz-adv-x="926" arabic-form="final" 
d="M797 765v-61h-61v61h61zM742 653v-60h-58v60h58zM791 593v60h58v-60h-58zM308 553v-53h-44v53h44zM794 34h132v-34h-171v468q-146 -3 -239 -16v-509q0 -53 -21 -91.5t-56.5 -59.5t-74.5 -30.5t-81 -9.5q-102 0 -172.5 53.5t-70.5 142.5q0 81 43 324l39 -2
q-40 -252 -40 -323q0 -73 58 -117t143 -44q79 0 136.5 39.5t57.5 122.5v529q128 23 317 23v-466z" />
    <glyph glyph-name="uniFC7A" unicode="&#xfc7a;" horiz-adv-x="1032" arabic-form="final" 
d="M903 765v-61h-61v61h61zM848 653v-60h-58v60h58zM897 593v60h58v-60h-58zM900 34h132v-34h-171v467h-329q-177 0 -177 -141q0 -29 1.5 -45.5t9 -33t18.5 -26t34 -19t51.5 -16.5t74.5 -16q108 -19 155 -65.5t47 -134.5q0 -89 -53 -153.5t-158 -64.5h-253q-113 0 -177.5 58
t-64.5 138q0 60 25 235l39 -6q-25 -163 -25 -214q0 -80 59.5 -128.5t138.5 -48.5l256 -2q82 0 129 56.5t47 125.5q0 73 -34.5 110t-140.5 57q-125 21 -171.5 58t-46.5 134q0 88 52.5 131.5t164.5 43.5h367v-466z" />
    <glyph glyph-name="uniFC7B" unicode="&#xfc7b;" horiz-adv-x="1032" arabic-form="final" 
d="M903 765v-61h-61v61h61zM848 653v-60h-58v60h58zM897 593v60h58v-60h-58zM900 34h132v-34h-171v467h-329q-177 0 -177 -141q0 -29 1.5 -45.5t9 -33t18.5 -26t34 -19t51.5 -16.5t74.5 -16q108 -19 155 -65.5t47 -134.5q0 -89 -53 -153.5t-158 -64.5h-253q-113 0 -177.5 58
t-64.5 138q0 60 25 235l39 -6q-25 -163 -25 -214q0 -80 59.5 -128.5t138.5 -48.5l256 -2q82 0 129 56.5t47 125.5q0 73 -34.5 110t-140.5 57q-125 21 -171.5 58t-46.5 134q0 88 52.5 131.5t164.5 43.5h367v-466zM316 -374v54h45v-54h-45zM410 -374v54h45v-54h-45z" />
    <glyph glyph-name="uniFC8A" unicode="&#xfc8a;" horiz-adv-x="709" arabic-form="final" 
d="M572 646v-53h-44v53h44zM577 34h132v-34h-171v469q-138 -2 -260 -22v-469q0 -116 -40 -172t-123 -56q-6 0 -75 6v33q80 -5 82 -5q58 0 87.5 47t29.5 130v506q108 33 338 33v-466z" />
    <glyph glyph-name="uniFC8B" unicode="&#xfc8b;" horiz-adv-x="709" arabic-form="final" 
d="M278 646v-53h-44v53h44zM572 646v-53h-44v53h44zM577 34h132v-34h-171v469q-138 -2 -260 -22v-469q0 -116 -40 -172t-123 -56q-6 0 -75 6v33q80 -5 82 -5q58 0 87.5 47t29.5 130v506q108 33 338 33v-466z" />
    <glyph glyph-name="uniFC8D" unicode="&#xfc8d;" horiz-adv-x="926" arabic-form="final" 
d="M789 646v-53h-44v53h44zM308 553v-53h-44v53h44zM794 34h132v-34h-171v468q-146 -3 -239 -16v-509q0 -53 -21 -91.5t-56.5 -59.5t-74.5 -30.5t-81 -9.5q-102 0 -172.5 53.5t-70.5 142.5q0 81 43 324l39 -2q-40 -252 -40 -323q0 -73 58 -117t143 -44q79 0 136.5 39.5
t57.5 122.5v529q128 23 317 23v-466z" />
    <glyph glyph-name="uniFC8E" unicode="&#xfc8e;" horiz-adv-x="1032" arabic-form="final" 
d="M895 646v-53h-44v53h44zM900 34h132v-34h-171v467h-329q-177 0 -177 -141q0 -29 1.5 -45.5t9 -33t18.5 -26t34 -19t51.5 -16.5t74.5 -16q108 -19 155 -65.5t47 -134.5q0 -89 -53 -153.5t-158 -64.5h-253q-113 0 -177.5 58t-64.5 138q0 60 25 235l39 -6q-25 -163 -25 -214
q0 -80 59.5 -128.5t138.5 -48.5l256 -2q82 0 129 56.5t47 125.5q0 73 -34.5 110t-140.5 57q-125 21 -171.5 58t-46.5 134q0 88 52.5 131.5t164.5 43.5h367v-466z" />
    <glyph glyph-name="uniFC8F" unicode="&#xfc8f;" horiz-adv-x="1032" arabic-form="final" 
d="M895 646v-53h-44v53h44zM900 34h132v-34h-171v467h-329q-177 0 -177 -141q0 -29 1.5 -45.5t9 -33t18.5 -26t34 -19t51.5 -16.5t74.5 -16q108 -19 155 -65.5t47 -134.5q0 -89 -53 -153.5t-158 -64.5h-253q-113 0 -177.5 58t-64.5 138q0 60 25 235l39 -6q-25 -163 -25 -214
q0 -80 59.5 -128.5t138.5 -48.5l256 -2q82 0 129 56.5t47 125.5q0 73 -34.5 110t-140.5 57q-125 21 -171.5 58t-46.5 134q0 88 52.5 131.5t164.5 43.5h367v-466zM316 -374v54h45v-54h-45zM410 -374v54h45v-54h-45z" />
    <glyph glyph-name="uniFC91" unicode="&#xfc91;" horiz-adv-x="709" arabic-form="final" 
d="M577 34h132v-34h-171v469q-138 -2 -260 -22v-469q0 -116 -40 -172t-123 -56q-6 0 -75 6v33q80 -5 82 -5q58 0 87.5 47t29.5 130v506q108 33 338 33v-466zM480 -134v54h45v-54h-45zM574 -134v54h45v-54h-45z" />
    <glyph glyph-name="uniFC92" unicode="&#xfc92;" horiz-adv-x="709" arabic-form="final" 
d="M278 646v-53h-44v53h44zM577 34h132v-34h-171v469q-138 -2 -260 -22v-469q0 -116 -40 -172t-123 -56q-6 0 -75 6v33q80 -5 82 -5q58 0 87.5 47t29.5 130v506q108 33 338 33v-466zM480 -134v54h45v-54h-45zM574 -134v54h45v-54h-45z" />
    <glyph glyph-name="uniFC94" unicode="&#xfc94;" horiz-adv-x="926" arabic-form="final" 
d="M308 553v-53h-44v53h44zM794 34h132v-34h-171v468q-146 -3 -239 -16v-509q0 -53 -21 -91.5t-56.5 -59.5t-74.5 -30.5t-81 -9.5q-102 0 -172.5 53.5t-70.5 142.5q0 81 43 324l39 -2q-40 -252 -40 -323q0 -73 58 -117t143 -44q79 0 136.5 39.5t57.5 122.5v529
q128 23 317 23v-466zM697 -134v54h45v-54h-45zM791 -134v54h45v-54h-45z" />
    <glyph glyph-name="uniFCFB" unicode="&#xfcfb;" horiz-adv-x="1495" arabic-form="isolated" 
d="M1383 499q35 -134 35 -221v-278h-173q-54 0 -110 46q-31 -46 -91 -46h-183v467h-329q-177 0 -177 -141q0 -29 1.5 -45.5t9 -33t18.5 -26t34 -19t51.5 -16.5t74.5 -16q108 -19 155 -65.5t47 -134.5q0 -89 -53 -153.5t-158 -64.5h-253q-113 0 -177.5 58t-64.5 138
q0 60 25 235l39 -6q-25 -163 -25 -214q0 -80 59.5 -128.5t138.5 -48.5l256 -2q82 0 129 56.5t47 125.5q0 73 -34.5 110t-140.5 57q-125 21 -171.5 58t-46.5 134q0 88 52.5 131.5t164.5 43.5h367v-466h135q92 0 92 159v257h39v-256q0 -74 -16 -117q48 -43 104 -43h125v270
q0 50 -23 194z" />
    <glyph glyph-name="uniFCFC" unicode="&#xfcfc;" horiz-adv-x="1495" arabic-form="isolated" 
d="M1383 499q35 -134 35 -221v-278h-173q-54 0 -110 46q-31 -46 -91 -46h-183v467h-329q-177 0 -177 -141q0 -29 1.5 -45.5t9 -33t18.5 -26t34 -19t51.5 -16.5t74.5 -16q108 -19 155 -65.5t47 -134.5q0 -89 -53 -153.5t-158 -64.5h-253q-113 0 -177.5 58t-64.5 138
q0 60 25 235l39 -6q-25 -163 -25 -214q0 -80 59.5 -128.5t138.5 -48.5l256 -2q82 0 129 56.5t47 125.5q0 73 -34.5 110t-140.5 57q-125 21 -171.5 58t-46.5 134q0 88 52.5 131.5t164.5 43.5h367v-466h135q92 0 92 159v257h39v-256q0 -74 -16 -117q48 -43 104 -43h125v270
q0 50 -23 194zM316 -374v54h45v-54h-45zM410 -374v54h45v-54h-45z" />
    <glyph glyph-name="uniFCFD" unicode="&#xfcfd;" horiz-adv-x="1495" arabic-form="isolated" 
d="M1174 765v-61h-61v61h61zM1119 653v-60h-58v60h58zM1168 593v60h58v-60h-58zM1383 499q35 -134 35 -221v-278h-173q-54 0 -110 46q-31 -46 -91 -46h-183v467h-329q-177 0 -177 -141q0 -29 1.5 -45.5t9 -33t18.5 -26t34 -19t51.5 -16.5t74.5 -16q108 -19 155 -65.5
t47 -134.5q0 -89 -53 -153.5t-158 -64.5h-253q-113 0 -177.5 58t-64.5 138q0 60 25 235l39 -6q-25 -163 -25 -214q0 -80 59.5 -128.5t138.5 -48.5l256 -2q82 0 129 56.5t47 125.5q0 73 -34.5 110t-140.5 57q-125 21 -171.5 58t-46.5 134q0 88 52.5 131.5t164.5 43.5h367
v-466h135q92 0 92 159v257h39v-256q0 -74 -16 -117q48 -43 104 -43h125v270q0 50 -23 194z" />
    <glyph glyph-name="uniFCFE" unicode="&#xfcfe;" horiz-adv-x="1495" arabic-form="isolated" 
d="M1174 765v-61h-61v61h61zM1119 653v-60h-58v60h58zM1168 593v60h58v-60h-58zM1383 499q35 -134 35 -221v-278h-173q-54 0 -110 46q-31 -46 -91 -46h-183v467h-329q-177 0 -177 -141q0 -29 1.5 -45.5t9 -33t18.5 -26t34 -19t51.5 -16.5t74.5 -16q108 -19 155 -65.5
t47 -134.5q0 -89 -53 -153.5t-158 -64.5h-253q-113 0 -177.5 58t-64.5 138q0 60 25 235l39 -6q-25 -163 -25 -214q0 -80 59.5 -128.5t138.5 -48.5l256 -2q82 0 129 56.5t47 125.5q0 73 -34.5 110t-140.5 57q-125 21 -171.5 58t-46.5 134q0 88 52.5 131.5t164.5 43.5h367
v-466h135q92 0 92 159v257h39v-256q0 -74 -16 -117q48 -43 104 -43h125v270q0 50 -23 194zM316 -374v54h45v-54h-45zM410 -374v54h45v-54h-45z" />
    <glyph glyph-name="uniFD05" unicode="&#xfd05;" horiz-adv-x="1495" arabic-form="isolated" 
d="M1180 510q67 0 114.5 -24t71.5 -64.5t34.5 -82.5t10.5 -88v-251h-550v467h-329q-177 0 -177 -141q0 -29 1.5 -45.5t9 -33t18.5 -26t34 -19t51.5 -16.5t74.5 -16q108 -19 155 -65.5t47 -134.5q0 -89 -53 -153.5t-158 -64.5h-253q-113 0 -177.5 58t-64.5 138q0 60 25 235
l39 -6q-25 -163 -25 -214q0 -80 59.5 -128.5t138.5 -48.5l256 -2q82 0 129 56.5t47 125.5q0 73 -34.5 110t-140.5 57q-125 21 -171.5 58t-46.5 134q0 88 52.5 131.5t164.5 43.5h367v-160q34 42 57.5 66.5t58 51.5t75 39.5t89.5 12.5zM1188 476q-44 0 -85.5 -15t-74 -40.5
t-54.5 -47.5t-45.5 -50.5t-28.5 -33.5v-255h472v216q0 97 -46.5 161.5t-137.5 64.5z" />
    <glyph glyph-name="uniFD06" unicode="&#xfd06;" horiz-adv-x="1495" arabic-form="isolated" 
d="M1180 510q67 0 114.5 -24t71.5 -64.5t34.5 -82.5t10.5 -88v-251h-550v467h-329q-177 0 -177 -141q0 -29 1.5 -45.5t9 -33t18.5 -26t34 -19t51.5 -16.5t74.5 -16q108 -19 155 -65.5t47 -134.5q0 -89 -53 -153.5t-158 -64.5h-253q-113 0 -177.5 58t-64.5 138q0 60 25 235
l39 -6q-25 -163 -25 -214q0 -80 59.5 -128.5t138.5 -48.5l256 -2q82 0 129 56.5t47 125.5q0 73 -34.5 110t-140.5 57q-125 21 -171.5 58t-46.5 134q0 88 52.5 131.5t164.5 43.5h367v-160q34 42 57.5 66.5t58 51.5t75 39.5t89.5 12.5zM1188 476q-44 0 -85.5 -15t-74 -40.5
t-54.5 -47.5t-45.5 -50.5t-28.5 -33.5v-255h472v216q0 97 -46.5 161.5t-137.5 64.5zM316 -374v54h45v-54h-45zM410 -374v54h45v-54h-45z" />
    <glyph glyph-name="uniFD07" unicode="&#xfd07;" horiz-adv-x="1495" arabic-form="isolated" 
d="M1177 646v-53h-44v53h44zM1180 510q67 0 114.5 -24t71.5 -64.5t34.5 -82.5t10.5 -88v-251h-550v467h-329q-177 0 -177 -141q0 -29 1.5 -45.5t9 -33t18.5 -26t34 -19t51.5 -16.5t74.5 -16q108 -19 155 -65.5t47 -134.5q0 -89 -53 -153.5t-158 -64.5h-253q-113 0 -177.5 58
t-64.5 138q0 60 25 235l39 -6q-25 -163 -25 -214q0 -80 59.5 -128.5t138.5 -48.5l256 -2q82 0 129 56.5t47 125.5q0 73 -34.5 110t-140.5 57q-125 21 -171.5 58t-46.5 134q0 88 52.5 131.5t164.5 43.5h367v-160q34 42 57.5 66.5t58 51.5t75 39.5t89.5 12.5zM1188 476
q-44 0 -85.5 -15t-74 -40.5t-54.5 -47.5t-45.5 -50.5t-28.5 -33.5v-255h472v216q0 97 -46.5 161.5t-137.5 64.5z" />
    <glyph glyph-name="uniFD08" unicode="&#xfd08;" horiz-adv-x="1495" arabic-form="isolated" 
d="M1177 646v-53h-44v53h44zM1180 510q67 0 114.5 -24t71.5 -64.5t34.5 -82.5t10.5 -88v-251h-550v467h-329q-177 0 -177 -141q0 -29 1.5 -45.5t9 -33t18.5 -26t34 -19t51.5 -16.5t74.5 -16q108 -19 155 -65.5t47 -134.5q0 -89 -53 -153.5t-158 -64.5h-253q-113 0 -177.5 58
t-64.5 138q0 60 25 235l39 -6q-25 -163 -25 -214q0 -80 59.5 -128.5t138.5 -48.5l256 -2q82 0 129 56.5t47 125.5q0 73 -34.5 110t-140.5 57q-125 21 -171.5 58t-46.5 134q0 88 52.5 131.5t164.5 43.5h367v-160q34 42 57.5 66.5t58 51.5t75 39.5t89.5 12.5zM1188 476
q-44 0 -85.5 -15t-74 -40.5t-54.5 -47.5t-45.5 -50.5t-28.5 -33.5v-255h472v216q0 97 -46.5 161.5t-137.5 64.5zM316 -374v54h45v-54h-45zM410 -374v54h45v-54h-45z" />
    <glyph glyph-name="uniFD0D" unicode="&#xfd0d;" horiz-adv-x="1182" arabic-form="isolated" 
d="M862 765v-61h-61v61h61zM807 653v-60h-58v60h58zM856 593v60h58v-60h-58zM1071 500q34 -130 34 -221v-279h-172q-57 0 -111 46q-30 -46 -91 -46h-182v468q-162 -3 -271 -21v-469q0 -116 -40 -172t-123 -56q-6 0 -75 6v33q80 -5 82 -5q58 0 87.5 47t29.5 130v506
q108 33 349 33v-466h134q92 0 92 159v258h39v-257q0 -74 -15 -116q18 -17 46.5 -30.5t56.5 -13.5h125v271q0 39 -22 193z" />
    <glyph glyph-name="uniFD0E" unicode="&#xfd0e;" horiz-adv-x="1182" arabic-form="isolated" 
d="M1071 500q34 -130 34 -221v-279h-172q-57 0 -111 46q-30 -46 -91 -46h-182v468q-162 -3 -271 -21v-469q0 -116 -40 -172t-123 -56q-6 0 -75 6v33q80 -5 82 -5q58 0 87.5 47t29.5 130v506q108 33 349 33v-466h134q92 0 92 159v258h39v-257q0 -74 -15 -116
q18 -17 46.5 -30.5t56.5 -13.5h125v271q0 39 -22 193z" />
    <glyph glyph-name="uniFD0F" unicode="&#xfd0f;" horiz-adv-x="1182" arabic-form="isolated" 
d="M868 510q67 0 114.5 -24t71.5 -64.5t34.5 -82.5t10.5 -88v-251h-550v468q-164 -3 -271 -21v-469q0 -116 -40 -172t-123 -56q-6 0 -75 6v33q80 -5 82 -5q58 0 87.5 47t29.5 130v506q108 33 349 33v-160q34 42 57.5 66.5t58 51.5t75 39.5t89.5 12.5zM875 476q-44 0 -85 -15
t-73.5 -40.5t-55 -47.5t-45.5 -50.5t-28 -33.5v-255h472v216q0 97 -46.5 161.5t-138.5 64.5z" />
    <glyph glyph-name="uniFD10" unicode="&#xfd10;" horiz-adv-x="1182" arabic-form="isolated" 
d="M845 646v-53h-44v53h44zM868 510q67 0 114.5 -24t71.5 -64.5t34.5 -82.5t10.5 -88v-251h-550v468q-164 -3 -271 -21v-469q0 -116 -40 -172t-123 -56q-6 0 -75 6v33q80 -5 82 -5q58 0 87.5 47t29.5 130v506q108 33 349 33v-160q34 42 57.5 66.5t58 51.5t75 39.5t89.5 12.5
zM875 476q-44 0 -85 -15t-73.5 -40.5t-55 -47.5t-45.5 -50.5t-28 -33.5v-255h472v216q0 97 -46.5 161.5t-138.5 64.5z" />
    <glyph glyph-name="uniFD17" unicode="&#xfd17;" horiz-adv-x="1535" arabic-form="final" 
d="M1418 34h117v-34h-290q-54 0 -110 46q-31 -46 -91 -46h-183v467h-329q-177 0 -177 -141q0 -29 1.5 -45.5t9 -33t18.5 -26t34 -19t51.5 -16.5t74.5 -16q108 -19 155 -65.5t47 -134.5q0 -89 -53 -153.5t-158 -64.5h-253q-113 0 -177.5 58t-64.5 138q0 60 25 235l39 -6
q-25 -163 -25 -214q0 -80 59.5 -128.5t138.5 -48.5l256 -2q82 0 129 56.5t47 125.5q0 73 -34.5 110t-140.5 57q-125 21 -171.5 58t-46.5 134q0 88 52.5 131.5t164.5 43.5h367v-466h135q92 0 92 159v257h39v-256q0 -74 -16 -117q48 -43 104 -43h125v270q0 50 -23 194l27 1
q35 -134 35 -221v-244z" />
    <glyph glyph-name="uniFD18" unicode="&#xfd18;" horiz-adv-x="1535" arabic-form="final" 
d="M1418 34h117v-34h-290q-54 0 -110 46q-31 -46 -91 -46h-183v467h-329q-177 0 -177 -141q0 -29 1.5 -45.5t9 -33t18.5 -26t34 -19t51.5 -16.5t74.5 -16q108 -19 155 -65.5t47 -134.5q0 -89 -53 -153.5t-158 -64.5h-253q-113 0 -177.5 58t-64.5 138q0 60 25 235l39 -6
q-25 -163 -25 -214q0 -80 59.5 -128.5t138.5 -48.5l256 -2q82 0 129 56.5t47 125.5q0 73 -34.5 110t-140.5 57q-125 21 -171.5 58t-46.5 134q0 88 52.5 131.5t164.5 43.5h367v-466h135q92 0 92 159v257h39v-256q0 -74 -16 -117q48 -43 104 -43h125v270q0 50 -23 194l27 1
q35 -134 35 -221v-244zM316 -374v54h45v-54h-45zM410 -374v54h45v-54h-45z" />
    <glyph glyph-name="uniFD19" unicode="&#xfd19;" horiz-adv-x="1535" arabic-form="final" 
d="M1174 798v-61h-61v61h61zM1119 686v-60h-58v60h58zM1168 626v60h58v-60h-58zM1418 34h117v-34h-290q-54 0 -110 46q-31 -46 -91 -46h-183v467h-329q-177 0 -177 -141q0 -29 1.5 -45.5t9 -33t18.5 -26t34 -19t51.5 -16.5t74.5 -16q108 -19 155 -65.5t47 -134.5
q0 -89 -53 -153.5t-158 -64.5h-253q-113 0 -177.5 58t-64.5 138q0 60 25 235l39 -6q-25 -163 -25 -214q0 -80 59.5 -128.5t138.5 -48.5l256 -2q82 0 129 56.5t47 125.5q0 73 -34.5 110t-140.5 57q-125 21 -171.5 58t-46.5 134q0 88 52.5 131.5t164.5 43.5h367v-466h135
q92 0 92 159v257h39v-256q0 -74 -16 -117q48 -43 104 -43h125v270q0 50 -23 194l27 1q35 -134 35 -221v-244z" />
    <glyph glyph-name="uniFD1A" unicode="&#xfd1a;" horiz-adv-x="1535" arabic-form="final" 
d="M1174 798v-61h-61v61h61zM1119 686v-60h-58v60h58zM1168 626v60h58v-60h-58zM1418 34h117v-34h-290q-54 0 -110 46q-31 -46 -91 -46h-183v467h-329q-177 0 -177 -141q0 -29 1.5 -45.5t9 -33t18.5 -26t34 -19t51.5 -16.5t74.5 -16q108 -19 155 -65.5t47 -134.5
q0 -89 -53 -153.5t-158 -64.5h-253q-113 0 -177.5 58t-64.5 138q0 60 25 235l39 -6q-25 -163 -25 -214q0 -80 59.5 -128.5t138.5 -48.5l256 -2q82 0 129 56.5t47 125.5q0 73 -34.5 110t-140.5 57q-125 21 -171.5 58t-46.5 134q0 88 52.5 131.5t164.5 43.5h367v-466h135
q92 0 92 159v257h39v-256q0 -74 -16 -117q48 -43 104 -43h125v270q0 50 -23 194l27 1q35 -134 35 -221v-244zM316 -374v54h45v-54h-45zM410 -374v54h45v-54h-45z" />
    <glyph glyph-name="uniFD21" unicode="&#xfd21;" horiz-adv-x="1540" arabic-form="final" 
d="M1180 510q67 0 114.5 -24t71.5 -64.5t34.5 -82.5t10.5 -88v-251h-550v467h-329q-177 0 -177 -141q0 -29 1.5 -45.5t9 -33t18.5 -26t34 -19t51.5 -16.5t74.5 -16q108 -19 155 -65.5t47 -134.5q0 -89 -53 -153.5t-158 -64.5h-253q-113 0 -177.5 58t-64.5 138q0 60 25 235
l39 -6q-25 -163 -25 -214q0 -80 59.5 -128.5t138.5 -48.5l256 -2q82 0 129 56.5t47 125.5q0 73 -34.5 110t-140.5 57q-125 21 -171.5 58t-46.5 134q0 88 52.5 131.5t164.5 43.5h367v-160q34 42 57.5 66.5t58 51.5t75 39.5t89.5 12.5zM1372 34v216q0 97 -46.5 161.5
t-137.5 64.5q-44 0 -85.5 -15t-74 -40.5t-54.5 -47.5t-45.5 -50.5t-28.5 -33.5v-255h472zM1415 34h125v-34h-126z" />
    <glyph glyph-name="uniFD22" unicode="&#xfd22;" horiz-adv-x="1540" arabic-form="final" 
d="M1180 510q67 0 114.5 -24t71.5 -64.5t34.5 -82.5t10.5 -88v-251h-550v467h-329q-177 0 -177 -141q0 -29 1.5 -45.5t9 -33t18.5 -26t34 -19t51.5 -16.5t74.5 -16q108 -19 155 -65.5t47 -134.5q0 -89 -53 -153.5t-158 -64.5h-253q-113 0 -177.5 58t-64.5 138q0 60 25 235
l39 -6q-25 -163 -25 -214q0 -80 59.5 -128.5t138.5 -48.5l256 -2q82 0 129 56.5t47 125.5q0 73 -34.5 110t-140.5 57q-125 21 -171.5 58t-46.5 134q0 88 52.5 131.5t164.5 43.5h367v-160q34 42 57.5 66.5t58 51.5t75 39.5t89.5 12.5zM1372 34v216q0 97 -46.5 161.5
t-137.5 64.5q-44 0 -85.5 -15t-74 -40.5t-54.5 -47.5t-45.5 -50.5t-28.5 -33.5v-255h472zM1415 34h125v-34h-126zM316 -374v54h45v-54h-45zM410 -374v54h45v-54h-45z" />
    <glyph glyph-name="uniFD23" unicode="&#xfd23;" horiz-adv-x="1540" arabic-form="final" 
d="M1177 646v-53h-44v53h44zM1180 510q67 0 114.5 -24t71.5 -64.5t34.5 -82.5t10.5 -88v-251h-550v467h-329q-177 0 -177 -141q0 -29 1.5 -45.5t9 -33t18.5 -26t34 -19t51.5 -16.5t74.5 -16q108 -19 155 -65.5t47 -134.5q0 -89 -53 -153.5t-158 -64.5h-253q-113 0 -177.5 58
t-64.5 138q0 60 25 235l39 -6q-25 -163 -25 -214q0 -80 59.5 -128.5t138.5 -48.5l256 -2q82 0 129 56.5t47 125.5q0 73 -34.5 110t-140.5 57q-125 21 -171.5 58t-46.5 134q0 88 52.5 131.5t164.5 43.5h367v-160q34 42 57.5 66.5t58 51.5t75 39.5t89.5 12.5zM1372 34v216
q0 97 -46.5 161.5t-137.5 64.5q-44 0 -85.5 -15t-74 -40.5t-54.5 -47.5t-45.5 -50.5t-28.5 -33.5v-255h472zM1415 34h125v-34h-126z" />
    <glyph glyph-name="uniFD24" unicode="&#xfd24;" horiz-adv-x="1540" arabic-form="final" 
d="M1177 646v-53h-44v53h44zM1180 510q67 0 114.5 -24t71.5 -64.5t34.5 -82.5t10.5 -88v-251h-550v467h-329q-177 0 -177 -141q0 -29 1.5 -45.5t9 -33t18.5 -26t34 -19t51.5 -16.5t74.5 -16q108 -19 155 -65.5t47 -134.5q0 -89 -53 -153.5t-158 -64.5h-253q-113 0 -177.5 58
t-64.5 138q0 60 25 235l39 -6q-25 -163 -25 -214q0 -80 59.5 -128.5t138.5 -48.5l256 -2q82 0 129 56.5t47 125.5q0 73 -34.5 110t-140.5 57q-125 21 -171.5 58t-46.5 134q0 88 52.5 131.5t164.5 43.5h367v-160q34 42 57.5 66.5t58 51.5t75 39.5t89.5 12.5zM1372 34v216
q0 97 -46.5 161.5t-137.5 64.5q-44 0 -85.5 -15t-74 -40.5t-54.5 -47.5t-45.5 -50.5t-28.5 -33.5v-255h472zM1415 34h125v-34h-126zM316 -374v54h45v-54h-45zM410 -374v54h45v-54h-45z" />
    <glyph glyph-name="uniFD29" unicode="&#xfd29;" horiz-adv-x="1177" arabic-form="final" 
d="M842 765v-61h-61v61h61zM787 653v-60h-58v60h58zM836 593v60h58v-60h-58zM1105 34h72v-34h-244q-57 0 -111 46q-30 -46 -91 -46h-182v468q-162 -3 -271 -21v-469q0 -116 -40 -172t-123 -56q-6 0 -75 6v33q80 -5 82 -5q58 0 87.5 47t29.5 130v506q108 33 349 33v-466h134
q92 0 92 159v258h39v-257q0 -74 -15 -116q18 -17 46.5 -30.5t56.5 -13.5h125v271q0 39 -22 193l27 2q34 -130 34 -221v-245z" />
    <glyph glyph-name="uniFD2A" unicode="&#xfd2a;" horiz-adv-x="1177" arabic-form="final" 
d="M1105 34h72v-34h-244q-57 0 -111 46q-30 -46 -91 -46h-182v468q-162 -3 -271 -21v-469q0 -116 -40 -172t-123 -56q-6 0 -75 6v33q80 -5 82 -5q58 0 87.5 47t29.5 130v506q108 33 349 33v-466h134q92 0 92 159v258h39v-257q0 -74 -15 -116q18 -17 46.5 -30.5t56.5 -13.5
h125v271q0 39 -22 193l27 2q34 -130 34 -221v-245z" />
    <glyph glyph-name="uniFD2B" unicode="&#xfd2b;" horiz-adv-x="1193" arabic-form="final" 
d="M1099 34h94v-34h-644v468q-164 -3 -271 -21v-469q0 -116 -40 -172t-123 -56q-6 0 -75 6v33q80 -5 82 -5q58 0 87.5 47t29.5 130v506q108 33 349 33v-160q34 42 57.5 66.5t58 51.5t75 39.5t89.5 12.5q67 0 114.5 -24t71.5 -64.5t34.5 -82.5t10.5 -88v-217zM588 34h472v216
q0 97 -46.5 161.5t-138.5 64.5q-44 0 -85 -15t-73.5 -40.5t-55 -47.5t-45.5 -50.5t-28 -33.5v-255z" />
    <glyph glyph-name="uniFD2C" unicode="&#xfd2c;" horiz-adv-x="1193" arabic-form="final" 
d="M845 646v-53h-44v53h44zM1099 34h94v-34h-644v468q-164 -3 -271 -21v-469q0 -116 -40 -172t-123 -56q-6 0 -75 6v33q80 -5 82 -5q58 0 87.5 47t29.5 130v506q108 33 349 33v-160q34 42 57.5 66.5t58 51.5t75 39.5t89.5 12.5q67 0 114.5 -24t71.5 -64.5t34.5 -82.5
t10.5 -88v-217zM588 34h472v216q0 97 -46.5 161.5t-138.5 64.5q-44 0 -85 -15t-73.5 -40.5t-55 -47.5t-45.5 -50.5t-28 -33.5v-255z" />
    <glyph glyph-name="uniFE82" unicode="&#x622;" horiz-adv-x="227" arabic-form="final" 
d="M237 775l7 -24q-35 -46 -64 -46q-20 0 -66 20q-54 23 -65 23q-22 0 -55 -32l-9 -5l-6 24q39 47 73 47q17 0 64 -22q51 -21 61 -21q9 0 26.5 10.5t26.5 19.5zM136 644v-610h91v-34h-130v644h39z" />
    <glyph glyph-name="uniFE84" unicode="&#x623;" horiz-adv-x="227" arabic-form="final" 
d="M204 743l9 -36l-194 -38l-8 22l50 13q-31 27 -31 65q0 34 23.5 58.5t61.5 24.5q23 0 43 -8.5t27 -15.5l-8 -23q-19 15 -49 15q-28 0 -46 -18t-18 -43q0 -29 24 -47zM136 34h91v-34h-130v644h39v-610z" />
    <glyph glyph-name="uniFE86" unicode="&#x624;" horiz-adv-x="528" arabic-form="final" 
d="M157 586l-8 22l50 13q-31 27 -31 65q0 34 23.5 58.5t61.5 24.5q23 0 43 -8.5t27 -15.5l-8 -23q-19 15 -49 15q-28 0 -46 -18t-18 -43q0 -29 24 -47l116 31l9 -36zM528 34v-34h-124q-2 -65 -11 -111t-21 -72.5t-32 -41t-39.5 -19t-47.5 -4.5q-34 0 -136 12v33
q93 -14 131 -14q28 0 47.5 7t38 28t27.5 66.5t7 115.5h-149q-47 0 -81 15.5t-53 39t-29.5 58.5t-13.5 65.5t-3 69.5q0 140 45.5 205t168.5 65q71 0 152 -15v-458v-11h123zM234 34h132v442l-2 1q-66 8 -101 8q-106 0 -145.5 -57.5t-39.5 -179.5q0 -34 2.5 -60t11.5 -56.5
t25.5 -50.5t46 -33.5t70.5 -13.5z" />
    <glyph glyph-name="uniFE88" unicode="&#x625;" horiz-adv-x="227" arabic-form="final" 
d="M97 0v730h39v-696h91v-34h-130zM232 -166l9 -36l-194 -38l-8 22l49 13q-30 26 -30 65q0 34 23.5 58.5t61.5 24.5q23 0 43 -9t26 -15l-8 -24q-20 16 -48 16t-46 -18t-18 -43q0 -28 23 -48z" />
    <glyph glyph-name="uniFE8A" unicode="&#x626;" horiz-adv-x="894" arabic-form="final" 
d="M51 254l-8 22l50 13q-31 27 -31 65q0 34 23.5 58.5t61.5 24.5q23 0 43 -8.5t27 -15.5l-8 -23q-19 15 -49 15q-28 0 -46 -18t-18 -43q0 -29 24 -47l116 31l9 -36zM894 34v-34h-149q1 -10 1 -30q0 -89 -53 -153.5t-158 -64.5h-253q-113 0 -177.5 58t-64.5 138q0 60 25 235
l39 -6q-25 -163 -25 -214q0 -80 59.5 -128.5t138.5 -48.5l256 -2q82 0 129 56.5t47 125.5q0 12 -2 34h-37q-70 0 -101 18l14 25q20 -9 92 -9h219z" />
    <glyph glyph-name="uniFE8B" unicode="&#x626;" horiz-adv-x="275" arabic-form="initial" 
d="M70 586l-8 22l50 13q-31 27 -31 65q0 34 23.5 58.5t61.5 24.5q23 0 43 -8.5t27 -15.5l-8 -23q-19 15 -49 15q-28 0 -46 -18t-18 -43q0 -29 24 -47l116 31l9 -36zM149 34v466h39v-500h-188v34h149z" />
    <glyph glyph-name="uniFE8C" unicode="&#x626;" horiz-adv-x="336" arabic-form="medial" 
d="M72 586l-8 22l50 13q-31 27 -31 65q0 34 23.5 58.5t61.5 24.5q23 0 43 -8.5t27 -15.5l-8 -23q-19 15 -49 15q-28 0 -46 -18t-18 -43q0 -29 24 -47l116 31l9 -36zM188 34h148v-34h-336v34h149v466h39v-466z" />
    <glyph glyph-name="uniFE8E" unicode="&#x627;" horiz-adv-x="227" arabic-form="final" 
d="M136 34h91v-34h-130v730h39v-696z" />
    <glyph glyph-name="uniFE90" unicode="&#x628;" horiz-adv-x="771" arabic-form="final" 
d="M627 34h144v-34h-476q-79 0 -129 10t-73.5 31t-31 43.5t-7.5 58.5q0 80 31 245l28 -1q-3 -28 -10.5 -83.5t-11 -91t-3.5 -60.5q0 -75 44.5 -96.5t171.5 -21.5h284v466h39v-466zM341 -133v53h44v-53h-44z" />
    <glyph glyph-name="uniFE91" unicode="&#x628;" horiz-adv-x="275" arabic-form="initial" 
d="M149 500h39v-500h-188v34h149v466zM144 -133v53h44v-53h-44z" />
    <glyph glyph-name="uniFE92" unicode="&#x628;" horiz-adv-x="336" arabic-form="medial" 
d="M188 34h148v-34h-336v34h149v466h39v-466zM146 -133v53h44v-53h-44z" />
    <glyph glyph-name="uniFE94" unicode="&#x629;" horiz-adv-x="574" arabic-form="final" 
d="M252 650v-53h-45v53h45zM346 650v-53h-45v53h45zM454 34h120v-34h-319q-123 0 -169 59.5t-46 189.5q0 133 44.5 197t150.5 64q97 0 219 -10v-466zM79 252q0 -116 42 -167t151 -51h143v434q-124 7 -157 7q-97 0 -138 -53.5t-41 -169.5z" />
    <glyph glyph-name="uniFE96" unicode="&#x62a;" horiz-adv-x="771" arabic-form="final" 
d="M340 557v-53h-45v53h45zM434 557v-53h-45v53h45zM627 34h144v-34h-476q-79 0 -129 10t-73.5 31t-31 43.5t-7.5 58.5q0 80 31 245l28 -1q-3 -28 -10.5 -83.5t-11 -91t-3.5 -60.5q0 -75 44.5 -96.5t171.5 -21.5h284v466h39v-466z" />
    <glyph glyph-name="uniFE97" unicode="&#x62a;" horiz-adv-x="275" arabic-form="initial" 
d="M143 650v-53h-45v53h45zM192 650h45v-53h-45v53zM149 34v466h39v-500h-188v34h149z" />
    <glyph glyph-name="uniFE98" unicode="&#x62a;" horiz-adv-x="336" arabic-form="medial" 
d="M145 650v-53h-45v53h45zM239 650v-53h-45v53h45zM188 34h148v-34h-336v34h149v466h39v-466z" />
    <glyph glyph-name="uniFE9A" unicode="&#x62b;" horiz-adv-x="771" arabic-form="final" 
d="M393 672v-61h-61v61h61zM338 560v-60h-58v60h58zM387 500v60h58v-60h-58zM627 34h144v-34h-476q-79 0 -129 10t-73.5 31t-31 43.5t-7.5 58.5q0 80 31 245l28 -1q-3 -28 -10.5 -83.5t-11 -91t-3.5 -60.5q0 -75 44.5 -96.5t171.5 -21.5h284v466h39v-466z" />
    <glyph glyph-name="uniFE9B" unicode="&#x62b;" horiz-adv-x="275" arabic-form="initial" 
d="M196 765v-61h-61v61h61zM141 653v-60h-58v60h58zM190 653h58v-60h-58v60zM149 34v466h39v-500h-188v34h149z" />
    <glyph glyph-name="uniFE9C" unicode="&#x62b;" horiz-adv-x="336" arabic-form="medial" 
d="M198 765v-61h-61v61h61zM143 653v-60h-58v60h58zM192 593v60h58v-60h-58zM188 34h148v-34h-336v34h149v466h39v-466z" />
    <glyph glyph-name="uniFE9E" unicode="&#x62c;" horiz-adv-x="587" arabic-form="final" 
d="M427 0q-29 20 -79 36.5t-109 16.5q-78 0 -117.5 -36t-39.5 -119q0 -181 197 -181q69 0 183 24l5 -33q-122 -24 -197 -24q-230 0 -230 214q0 99 50 145.5t150 46.5q64 0 114 -16t73 -36v322q0 54 -31 82.5t-87 28.5q-59 1 -203 -26l-2 35q15 3 51.5 9.5t59 10t51 7
t47.5 3.5t36.5 -3t40 -14t38.5 -29t27 -51.5t11 -77.5v-301h121v-34h-160zM345 -182h-58v60h58v-60z" />
    <glyph glyph-name="uniFE9F" unicode="&#x62c;" horiz-adv-x="516" arabic-form="initial" 
d="M303 510q18 0 35.5 -3t40 -14t39 -29t27.5 -51.5t11 -77.5v-335h-456v34h417v326q0 54 -31.5 82.5t-87.5 28.5q-61 1 -202 -26l-3 35q15 2 51.5 9t59 10.5t51.5 7t48 3.5zM241 -133v53h44v-53h-44z" />
    <glyph glyph-name="uniFEA0" unicode="&#x62c;" horiz-adv-x="577" arabic-form="medial" 
d="M456 34h121v-34h-577v34h417v326q0 54 -31.5 82.5t-87.5 28.5q-61 1 -202 -26l-3 35q15 2 51.5 9t59 10.5t51.5 7t48 3.5q18 0 35.5 -3t40 -14t39 -29t27.5 -51.5t11 -77.5v-301zM265 -133v53h44v-53h-44z" />
    <glyph glyph-name="uniFEA2" unicode="&#x62d;" horiz-adv-x="587" arabic-form="final" 
d="M239 53q-78 0 -117.5 -36t-39.5 -119q0 -181 197 -181q69 0 183 24l5 -33q-122 -24 -197 -24q-230 0 -230 214q0 99 50 145.5t150 46.5q64 0 114 -16t73 -36v322q0 54 -31 82.5t-87 28.5q-59 1 -203 -26l-2 35q15 3 51.5 9.5t59 10t51 7t47.5 3.5t36.5 -3t40 -14
t38.5 -29t27 -51.5t11 -77.5v-301h121v-34h-160q-29 20 -79 36.5t-109 16.5z" />
    <glyph glyph-name="uniFEA3" unicode="&#x62d;" horiz-adv-x="516" arabic-form="initial" 
d="M303 510q18 0 35.5 -3t40 -14t39 -29t27.5 -51.5t11 -77.5v-335h-456v34h417v326q0 54 -31.5 82.5t-87.5 28.5q-61 1 -202 -26l-3 35q15 2 51.5 9t59 10.5t51.5 7t48 3.5z" />
    <glyph glyph-name="uniFEA4" unicode="&#x62d;" horiz-adv-x="577" arabic-form="medial" 
d="M456 34h121v-34h-577v34h417v326q0 54 -31.5 82.5t-87.5 28.5q-61 1 -202 -26l-3 35q15 2 51.5 9t59 10.5t51.5 7t48 3.5q18 0 35.5 -3t40 -14t39 -29t27.5 -51.5t11 -77.5v-301z" />
    <glyph glyph-name="uniFEA6" unicode="&#x62e;" horiz-adv-x="587" arabic-form="final" 
d="M273 646v-53h-44v53h44zM239 53q-78 0 -117.5 -36t-39.5 -119q0 -181 197 -181q69 0 183 24l5 -33q-122 -24 -197 -24q-230 0 -230 214q0 99 50 145.5t150 46.5q64 0 114 -16t73 -36v322q0 54 -31 82.5t-87 28.5q-59 1 -203 -26l-2 35q15 3 51.5 9.5t59 10t51 7t47.5 3.5
t36.5 -3t40 -14t38.5 -29t27 -51.5t11 -77.5v-301h121v-34h-160q-29 20 -79 36.5t-109 16.5z" />
    <glyph glyph-name="uniFEA7" unicode="&#x62e;" horiz-adv-x="516" arabic-form="initial" 
d="M285 646v-53h-44v53h44zM303 510q18 0 35.5 -3t40 -14t39 -29t27.5 -51.5t11 -77.5v-335h-456v34h417v326q0 54 -31.5 82.5t-87.5 28.5q-61 1 -202 -26l-3 35q15 2 51.5 9t59 10.5t51.5 7t48 3.5z" />
    <glyph glyph-name="uniFEA8" unicode="&#x62e;" horiz-adv-x="577" arabic-form="medial" 
d="M309 646v-53h-44v53h44zM456 34h121v-34h-577v34h417v326q0 54 -31.5 82.5t-87.5 28.5q-61 1 -202 -26l-3 35q15 2 51.5 9t59 10.5t51.5 7t48 3.5q18 0 35.5 -3t40 -14t39 -29t27.5 -51.5t11 -77.5v-301z" />
    <glyph glyph-name="uniFEAA" unicode="&#x62f;" horiz-adv-x="494" arabic-form="final" 
d="M407 34h87v-34h-454v34h328v169q0 85 -20 144.5t-53.5 88t-66.5 40t-70 11.5h-67l-2 25l14 4q27 4 56 4q35 0 67 -7.5t66 -29t58.5 -55.5t40.5 -93.5t16 -136.5v-164z" />
    <glyph glyph-name="uniFEAC" unicode="&#x630;" horiz-adv-x="494" arabic-form="final" 
d="M129 673v-53h-44v53h44zM407 34h87v-34h-454v34h328v169q0 85 -20 144.5t-53.5 88t-66.5 40t-70 11.5h-67l-2 25l14 4q27 4 56 4q35 0 67 -7.5t66 -29t58.5 -55.5t40.5 -93.5t16 -136.5v-164z" />
    <glyph glyph-name="uniFEAE" unicode="&#x631;" horiz-adv-x="377" arabic-form="final" 
d="M377 34v-34h-99v-10q0 -238 -165 -238q-8 0 -73 5v34q75 -5 78 -5q61 0 91 49t30 136v529h39v-466h99z" />
    <glyph glyph-name="uniFEB0" unicode="&#x632;" horiz-adv-x="377" arabic-form="final" 
d="M278 646v-53h-44v53h44zM377 34v-34h-99v-10q0 -238 -165 -238q-8 0 -73 5v34q75 -5 78 -5q61 0 91 49t30 136v529h39v-466h99z" />
    <glyph glyph-name="uniFEB2" unicode="&#x633;" horiz-adv-x="1155" arabic-form="final" 
d="M1035 34h120v-34h-293q-54 0 -110 46q-31 -46 -91 -46h-144v-40q0 -49 -16.5 -87t-40.5 -60t-56 -36.5t-59.5 -19.5t-54.5 -5q-37 0 -77 10t-80.5 31t-66.5 62t-26 96q0 66 37 318l39 -2q-34 -217 -34 -303q0 -58 32.5 -100.5t76.5 -60.5t90 -18q75 0 136 46.5t61 121.5
v497h39v-416h134q93 0 93 159v257h39v-256q0 -74 -16 -117q48 -43 104 -43h125v270q0 50 -23 194l27 1q35 -134 35 -221v-244z" />
    <glyph glyph-name="uniFEB3" unicode="&#x633;" horiz-adv-x="801" arabic-form="initial" 
d="M690 499q35 -134 35 -221v-278h-173q-54 0 -110 46q-31 -46 -91 -46h-351v34h168v416h39v-416h134q93 0 93 159v257h39v-256q0 -74 -16 -117q48 -43 104 -43h125v270q0 50 -23 194z" />
    <glyph glyph-name="uniFEB4" unicode="&#x633;" horiz-adv-x="825" arabic-form="medial" 
d="M725 34h100v-34h-273q-54 0 -110 46q-31 -46 -91 -46h-351v34h168v416h39v-416h134q93 0 93 159v257h39v-256q0 -74 -16 -117q48 -43 104 -43h125v270q0 50 -23 194l27 1q35 -134 35 -221v-244z" />
    <glyph glyph-name="uniFEB6" unicode="&#x634;" horiz-adv-x="1155" arabic-form="final" 
d="M791 765v-61h-61v61h61zM736 653v-60h-58v60h58zM785 593v60h58v-60h-58zM1035 34h120v-34h-293q-54 0 -110 46q-31 -46 -91 -46h-144v-40q0 -49 -16.5 -87t-40.5 -60t-56 -36.5t-59.5 -19.5t-54.5 -5q-37 0 -77 10t-80.5 31t-66.5 62t-26 96q0 66 37 318l39 -2
q-34 -217 -34 -303q0 -58 32.5 -100.5t76.5 -60.5t90 -18q75 0 136 46.5t61 121.5v497h39v-416h134q93 0 93 159v257h39v-256q0 -74 -16 -117q48 -43 104 -43h125v270q0 50 -23 194l27 1q35 -134 35 -221v-244z" />
    <glyph glyph-name="uniFEB7" unicode="&#x634;" horiz-adv-x="801" arabic-form="initial" 
d="M481 765v-61h-61v61h61zM426 653v-60h-58v60h58zM475 593v60h58v-60h-58zM690 499q35 -134 35 -221v-278h-173q-54 0 -110 46q-31 -46 -91 -46h-351v34h168v416h39v-416h134q93 0 93 159v257h39v-256q0 -74 -16 -117q48 -43 104 -43h125v270q0 50 -23 194z" />
    <glyph glyph-name="uniFEB8" unicode="&#x634;" horiz-adv-x="825" arabic-form="medial" 
d="M461 765v-61h-61v61h61zM406 653v-60h-58v60h58zM455 593v60h58v-60h-58zM725 34h100v-34h-273q-54 0 -110 46q-31 -46 -91 -46h-351v34h168v416h39v-416h134q93 0 93 159v257h39v-256q0 -74 -16 -117q48 -43 104 -43h125v270q0 50 -23 194l27 1q35 -134 35 -221v-244z
" />
    <glyph glyph-name="uniFEBA" unicode="&#x635;" horiz-adv-x="1155" arabic-form="final" 
d="M1028 34h127v-34h-638v-40q0 -49 -16.5 -87t-40.5 -60t-56 -36.5t-60 -19.5t-55 -5q-37 0 -76.5 10t-80 31t-66.5 63t-26 98q0 61 37 315l38 -2q-33 -233 -33 -301q0 -59 33 -101.5t77 -60.5t89 -18q74 0 135.5 46t61.5 121v547h39v-160q34 42 57.5 66.5t58 51.5t75 39.5
t89.5 12.5q67 0 114.5 -24t71.5 -64.5t34.5 -82.5t10.5 -88v-217zM804 476q-44 0 -85 -15t-73.5 -40.5t-55 -47.5t-45.5 -50.5t-28 -33.5v-255h472v216q0 97 -46.5 161.5t-138.5 64.5z" />
    <glyph glyph-name="uniFEBB" unicode="&#x635;" horiz-adv-x="782" arabic-form="initial" 
d="M474 510q67 0 114.5 -24t71.5 -64.5t34.5 -82.5t10.5 -88v-251h-705v34h155v466h39v-160q34 42 57.5 66.5t58 51.5t75 39.5t89.5 12.5zM194 34h472v216q0 97 -46.5 161.5t-137.5 64.5q-44 0 -85.5 -15t-74 -40.5t-54.5 -47.5t-45.5 -50.5t-28.5 -33.5v-255z" />
    <glyph glyph-name="uniFEBC" unicode="&#x635;" horiz-adv-x="806" arabic-form="medial" 
d="M705 34h101v-34h-806v34h155v466h39v-160q34 42 57.5 66.5t58 51.5t75 39.5t89.5 12.5q67 0 114.5 -24t71.5 -64.5t34.5 -82.5t10.5 -88v-217zM194 34h472v216q0 97 -46.5 161.5t-137.5 64.5q-44 0 -85.5 -15t-74 -40.5t-54.5 -47.5t-45.5 -50.5t-28.5 -33.5v-255z" />
    <glyph glyph-name="uniFEBE" unicode="&#x636;" horiz-adv-x="1155" arabic-form="final" 
d="M773 646v-53h-44v53h44zM1028 34h127v-34h-638v-40q0 -49 -16.5 -87t-40.5 -60t-56 -36.5t-60 -19.5t-55 -5q-37 0 -76.5 10t-80 31t-66.5 63t-26 98q0 61 37 315l38 -2q-33 -233 -33 -301q0 -59 33 -101.5t77 -60.5t89 -18q74 0 135.5 46t61.5 121v547h39v-160
q34 42 57.5 66.5t58 51.5t75 39.5t89.5 12.5q67 0 114.5 -24t71.5 -64.5t34.5 -82.5t10.5 -88v-217zM804 476q-44 0 -85 -15t-73.5 -40.5t-55 -47.5t-45.5 -50.5t-28 -33.5v-255h472v216q0 97 -46.5 161.5t-138.5 64.5z" />
    <glyph glyph-name="uniFEBF" unicode="&#x636;" horiz-adv-x="782" arabic-form="initial" 
d="M463 646v-53h-44v53h44zM474 510q67 0 114.5 -24t71.5 -64.5t34.5 -82.5t10.5 -88v-251h-705v34h155v466h39v-160q34 42 57.5 66.5t58 51.5t75 39.5t89.5 12.5zM194 34h472v216q0 97 -46.5 161.5t-137.5 64.5q-44 0 -85.5 -15t-74 -40.5t-54.5 -47.5t-45.5 -50.5
t-28.5 -33.5v-255z" />
    <glyph glyph-name="uniFEC0" unicode="&#x636;" horiz-adv-x="806" arabic-form="medial" 
d="M443 646v-53h-44v53h44zM705 34h101v-34h-806v34h155v466h39v-160q34 42 57.5 66.5t58 51.5t75 39.5t89.5 12.5q67 0 114.5 -24t71.5 -64.5t34.5 -82.5t10.5 -88v-217zM194 34h472v216q0 97 -46.5 161.5t-137.5 64.5q-44 0 -85.5 -15t-74 -40.5t-54.5 -47.5t-45.5 -50.5
t-28.5 -33.5v-255z" />
    <glyph glyph-name="uniFEC2" unicode="&#x637;" horiz-adv-x="758" arabic-form="final" 
d="M637 34h121v-34h-725v34h54v696h39v-390q34 42 57.5 66.5t58 51.5t75 39.5t89.5 12.5q67 0 114.5 -24t71.5 -64.5t34.5 -82.5t10.5 -88v-217zM414 476q-44 0 -85.5 -15t-74 -40.5t-54.5 -47.5t-45.5 -50.5t-28.5 -33.5v-255h472v216q0 97 -46.5 161.5t-137.5 64.5z" />
    <glyph glyph-name="uniFEC3" unicode="&#x637;" horiz-adv-x="717" arabic-form="initial" 
d="M440 510q21 0 41.5 -3t54.5 -18t59 -40.5t43.5 -76.5t18.5 -121v-251h-657v34h101v696h39v-491q26 52 55 96.5t66.5 86t83.5 65t95 23.5zM435 476q-56 0 -112 -40t-95 -99.5t-63.5 -126.5t-24.5 -121v-55h478v236q0 51 -13.5 89.5t-33.5 60t-46.5 35t-47.5 17.5t-42 4z
" />
    <glyph glyph-name="uniFEC4" unicode="&#x637;" horiz-adv-x="758" arabic-form="medial" 
d="M657 34h101v-34h-758v34h101v696h39v-491q26 52 55 96.5t66.5 86t83.5 65t95 23.5q21 0 41.5 -3t54.5 -18t59 -40.5t43.5 -76.5t18.5 -121v-217zM140 34h478v236q0 51 -13.5 89.5t-33.5 60t-46.5 35t-47.5 17.5t-42 4q-56 0 -112 -40t-95 -99.5t-63.5 -126.5t-24.5 -121
v-55z" />
    <glyph glyph-name="uniFEC6" unicode="&#x638;" horiz-adv-x="758" arabic-form="final" 
d="M637 34h121v-34h-725v34h54v696h39v-390q34 42 57.5 66.5t58 51.5t75 39.5t89.5 12.5q67 0 114.5 -24t71.5 -64.5t34.5 -82.5t10.5 -88v-217zM402 646v-53h-44v53h44zM414 476q-44 0 -85.5 -15t-74 -40.5t-54.5 -47.5t-45.5 -50.5t-28.5 -33.5v-255h472v216
q0 97 -46.5 161.5t-137.5 64.5z" />
    <glyph glyph-name="uniFEC7" unicode="&#x638;" horiz-adv-x="717" arabic-form="initial" 
d="M440 510q21 0 41.5 -3t54.5 -18t59 -40.5t43.5 -76.5t18.5 -121v-251h-657v34h101v696h39v-491q26 52 55 96.5t66.5 86t83.5 65t95 23.5zM394 646v-53h-44v53h44zM435 476q-56 0 -112 -40t-95 -99.5t-63.5 -126.5t-24.5 -121v-55h478v236q0 51 -13.5 89.5t-33.5 60
t-46.5 35t-47.5 17.5t-42 4z" />
    <glyph glyph-name="uniFEC8" unicode="&#x638;" horiz-adv-x="758" arabic-form="medial" 
d="M657 34h101v-34h-758v34h101v696h39v-491q26 52 55 96.5t66.5 86t83.5 65t95 23.5q21 0 41.5 -3t54.5 -18t59 -40.5t43.5 -76.5t18.5 -121v-217zM402 646v-53h-44v53h44zM140 34h478v236q0 51 -13.5 89.5t-33.5 60t-46.5 35t-47.5 17.5t-42 4q-56 0 -112 -40t-95 -99.5
t-63.5 -126.5t-24.5 -121v-55z" />
    <glyph glyph-name="uniFECA" unicode="&#x639;" horiz-adv-x="555" arabic-form="final" 
d="M262 54q-70 -5 -105 -41.5t-35 -113.5q0 -182 200 -182q71 0 185 24l5 -33l-31 -6q-94 -18 -166 -18q-230 0 -230 218q0 82 32.5 123t98.5 58q-83 63 -125.5 152t-46.5 154l-3 60q10 5 45 20v1v-1q94 40 184 40q89 0 187 -40v1l1 -2q10 -3 43 -19l-3 -60
q-5 -69 -52.5 -163.5t-136.5 -155.5q75 -36 158 -36h88v-34h-89q-117 0 -204 54zM84 431q0 -111 53.5 -196t133.5 -141q76 51 131.5 138.5t56.5 197.5q-117 45 -188 45q-61 0 -187 -44z" />
    <glyph glyph-name="uniFECB" unicode="&#x639;" horiz-adv-x="544" arabic-form="initial" 
d="M269 34h245v-34h-514v34h217q-36 36 -61.5 102.5t-25.5 145.5q0 34 3 61.5t15 60t32 54t56.5 36.5t85.5 15q88 0 162 -41l-1 -29q-6 7 -58.5 21.5t-95.5 14.5q-85 0 -122.5 -56t-37.5 -142q0 -77 29 -142t71 -101z" />
    <glyph glyph-name="uniFECC" unicode="&#x639;" horiz-adv-x="578" arabic-form="medial" 
d="M489 34h89v-34h-88q-108 0 -196 48q-92 -48 -194 -48h-100v34h97q80 0 158 33q-88 62 -136 157.5t-53 164.5l-3 60q10 5 45 20v1v-1q94 40 185 40q53 0 103.5 -12t126.5 -48l-2 -60q-5 -69 -52.5 -163.5t-136.5 -155.5q73 -36 157 -36zM106 431q-1 -111 53 -196t134 -140
q76 49 132 137.5t55 197.5q-115 45 -186 45q-64 0 -188 -44z" />
    <glyph glyph-name="uniFECE" unicode="&#x63a;" horiz-adv-x="555" arabic-form="final" 
d="M290 646v-53h-44v53h44zM262 54q-70 -5 -105 -41.5t-35 -113.5q0 -182 200 -182q71 0 185 24l5 -33l-31 -6q-94 -18 -166 -18q-230 0 -230 218q0 82 32.5 123t98.5 58q-83 63 -125.5 152t-46.5 154l-3 60q10 5 45 20v1v-1q94 40 184 40q89 0 187 -40v1l1 -2q10 -3 43 -19
l-3 -60q-5 -69 -52.5 -163.5t-136.5 -155.5q75 -36 158 -36h88v-34h-89q-117 0 -204 54zM84 431q0 -111 53.5 -196t133.5 -141q76 51 131.5 138.5t56.5 197.5q-117 45 -188 45q-61 0 -187 -44z" />
    <glyph glyph-name="uniFECF" unicode="&#x63a;" horiz-adv-x="544" arabic-form="initial" 
d="M322 646v-53h-44v53h44zM269 34h245v-34h-514v34h217q-36 36 -61.5 102.5t-25.5 145.5q0 34 3 61.5t15 60t32 54t56.5 36.5t85.5 15q88 0 162 -41l-1 -29q-6 7 -58.5 21.5t-95.5 14.5q-85 0 -122.5 -56t-37.5 -142q0 -77 29 -142t71 -101z" />
    <glyph glyph-name="uniFED0" unicode="&#x63a;" horiz-adv-x="578" arabic-form="medial" 
d="M312 646v-53h-44v53h44zM489 34h89v-34h-88q-108 0 -196 48q-92 -48 -194 -48h-100v34h97q80 0 158 33q-88 62 -136 157.5t-53 164.5l-3 60q10 5 45 20v1v-1q94 40 185 40q53 0 103.5 -12t126.5 -48l-2 -60q-5 -69 -52.5 -163.5t-136.5 -155.5q73 -36 157 -36zM106 431
q-1 -111 53 -196t134 -140q76 49 132 137.5t55 197.5q-115 45 -186 45q-64 0 -188 -44z" />
    <glyph glyph-name="uniFED2" unicode="&#x641;" horiz-adv-x="945" arabic-form="final" 
d="M727 646v-53h-44v53h44zM862 34h83v-34h-664q-79 0 -129 10t-73.5 31t-31 43.5t-7.5 57.5q0 91 33 246l28 -1q0 -4 -5 -36.5t-9.5 -64.5t-8.5 -71t-4 -63q0 -75 44.5 -96.5t171.5 -21.5h247q-22 36 -28.5 78t-6.5 111q0 165 42 220.5t174 55.5q71 0 132 -7l12 -1v-457z
M538 243q0 -165 44 -209h241v428q-72 6 -114 6q-102 0 -136.5 -52t-34.5 -173z" />
    <glyph glyph-name="uniFED3" unicode="&#x641;" horiz-adv-x="559" arabic-form="initial" 
d="M359 646v-53h-44v53h44zM480 492l12 -1v-491h-492v34h167q-22 36 -28.5 78t-6.5 111q0 165 42 220.5t174 55.5q71 0 132 -7zM453 34v428q-72 6 -114 6q-102 0 -136.5 -52t-34.5 -173q0 -165 44 -209h241z" />
    <glyph glyph-name="uniFED4" unicode="&#x641;" horiz-adv-x="574" arabic-form="medial" 
d="M311 646v-53h-44v53h44zM492 34h82v-34h-574v34h167q-22 36 -28.5 78t-6.5 111q0 165 42 220.5t174 55.5q71 0 132 -7l12 -1v-457zM168 243q0 -165 44 -209h241v428q-72 6 -114 6q-102 0 -136.5 -52t-34.5 -173z" />
    <glyph glyph-name="uniFED6" unicode="&#x642;" horiz-adv-x="855" arabic-form="final" 
d="M567 650v-53h-45v53h45zM661 650v-53h-45v53h45zM855 34v-34h-106v-36q0 -94 -58.5 -144.5t-153.5 -50.5h-281q-96 0 -156 50.5t-60 144.5q0 73 33 263l38 -6q-29 -181 -29 -238q0 -87 45.5 -133.5t133.5 -46.5h269q90 0 135 46.5t45 134.5v16h-159q-93 0 -128.5 51
t-35.5 181q0 65 8 110.5t28.5 83t60 56.5t98.5 19q65 0 155 -9l12 -1v-457h106zM572 34h138v428q-107 8 -116 8q-95 0 -131.5 -57t-36.5 -176q0 -112 32.5 -157.5t113.5 -45.5z" />
    <glyph glyph-name="uniFED7" unicode="&#x642;" horiz-adv-x="559" arabic-form="initial" 
d="M314 650v-53h-45v53h45zM408 650v-53h-45v53h45zM480 492l12 -1v-491h-492v34h167q-22 36 -28.5 78t-6.5 111q0 165 42 220.5t174 55.5q71 0 132 -7zM453 34v428q-72 6 -114 6q-102 0 -136.5 -52t-34.5 -173q0 -165 44 -209h241z" />
    <glyph glyph-name="uniFED8" unicode="&#x642;" horiz-adv-x="574" arabic-form="medial" 
d="M266 650v-53h-45v53h45zM360 650v-53h-45v53h45zM492 34h82v-34h-574v34h167q-22 36 -28.5 78t-6.5 111q0 165 42 220.5t174 55.5q71 0 132 -7l12 -1v-457zM168 243q0 -165 44 -209h241v428q-72 6 -114 6q-102 0 -136.5 -52t-34.5 -173z" />
    <glyph glyph-name="uniFEDA" unicode="&#x643;" horiz-adv-x="785" arabic-form="final" 
d="M636 34h149v-34h-487q-79 0 -129.5 10t-73.5 31t-30.5 43.5t-7.5 58.5q0 72 27 217l29 -1q-23 -165 -23 -207q0 -75 45 -96.5t172 -21.5h290v696h39v-696zM236 363l-8 22l50 13q-31 27 -31 65q0 34 23.5 58.5t61.5 24.5q23 0 43 -8.5t27 -15.5l-8 -23q-19 15 -49 15
q-28 0 -46 -18t-18 -43q0 -29 24 -47l116 31l9 -36z" />
    <glyph glyph-name="uniFEDB" unicode="&#x643;" horiz-adv-x="551" arabic-form="initial" 
d="M341 397q150 0 150 -205v-192h-491v34h452v159q0 168 -107 170h-273l-39 53l47 92q39 74 135 197l25 -14q-86 -130 -119 -194l-52 -100h272z" />
    <glyph glyph-name="uniFEDC" unicode="&#x643;" horiz-adv-x="640" arabic-form="medial" 
d="M491 34h149v-34h-640v34h452v159q0 168 -107 170h-273l-39 53l47 92q39 74 135 197l25 -14q-86 -130 -119 -194l-52 -100h272q150 0 150 -205v-158z" />
    <glyph glyph-name="uniFEDE" unicode="&#x644;" horiz-adv-x="628" arabic-form="final" 
d="M628 34v-34h-114v-57q0 -53 -21 -91.5t-56.5 -59.5t-74.5 -30.5t-81 -9.5q-102 0 -172.5 53.5t-70.5 142.5q0 81 43 324l39 -2q-40 -252 -40 -323q0 -73 58 -117t143 -44q79 0 136.5 39.5t57.5 122.5v782h39v-696h114z" />
    <glyph glyph-name="uniFEDF" unicode="&#x644;" horiz-adv-x="259" arabic-form="initial" 
d="M123 730h39v-730h-162v34h123v696z" />
    <glyph glyph-name="uniFEE0" unicode="&#x644;" horiz-adv-x="304" arabic-form="medial" 
d="M162 34h142v-34h-304v34h123v696h39v-696z" />
    <glyph glyph-name="uniFEE2" unicode="&#x645;" horiz-adv-x="621" arabic-form="final" 
d="M604 34h17v-34h-17q-40 0 -99 33v-33h-321q-110 0 -110 -136q0 -67 27 -190h-32q-27 131 -27 195q0 135 83 160q-14 88 -14 212q0 154 20 247q60 23 146 23q49 0 87 -11.5t71.5 -39t51.5 -80.5t18 -130v-184q1 -1 9.5 -6t12 -6.5t11.5 -5.5t14 -5.5t14.5 -4t18 -3.5
t19.5 -1zM172 34h294v216q0 124 -53 175t-148 51q-47 0 -97 -11q-15 -105 -15 -224q0 -121 14 -207h5z" />
    <glyph glyph-name="uniFEE3" unicode="&#x645;" horiz-adv-x="617" arabic-form="initial" 
d="M323 511q49 0 87 -11.5t71.5 -39t51.5 -81t18 -129.5v-250h-551v34h170q-13 98 -13 207q0 147 19 247q62 23 147 23zM199 241q0 -121 14 -207h299v216q0 124 -53.5 175t-148.5 51q-46 0 -96 -11q-15 -103 -15 -224z" />
    <glyph glyph-name="uniFEE4" unicode="&#x645;" horiz-adv-x="665" arabic-form="medial" 
d="M648 34h17v-34h-17q-39 0 -97 32v-32h-551v34h170q-13 98 -13 207q0 147 19 247q62 23 147 23q49 0 87 -11.5t71.5 -39t51.5 -81t18 -129.5v-185q52 -31 97 -31zM199 241q0 -121 14 -207h299v216q0 124 -53.5 175t-148.5 51q-46 0 -96 -11q-15 -103 -15 -224z" />
    <glyph glyph-name="uniFEE6" unicode="&#x646;" horiz-adv-x="638" arabic-form="final" 
d="M308 553v-53h-44v53h44zM638 34v-34h-122v-57q0 -53 -21 -91.5t-56.5 -59.5t-74.5 -30.5t-81 -9.5q-102 0 -172.5 53.5t-70.5 142.5q0 81 43 324l39 -2q-40 -252 -40 -323q0 -73 58 -117t143 -44q79 0 136.5 39.5t57.5 122.5v552h39v-466h122z" />
    <glyph glyph-name="uniFEE7" unicode="&#x646;" horiz-adv-x="275" arabic-form="initial" 
d="M144 646h44v-53h-44v53zM149 34v466h39v-500h-188v34h149z" />
    <glyph glyph-name="uniFEE8" unicode="&#x646;" horiz-adv-x="336" arabic-form="medial" 
d="M190 646v-53h-44v53h44zM188 34h148v-34h-336v34h149v466h39v-466z" />
    <glyph glyph-name="uniFEEA" unicode="&#x647;" horiz-adv-x="574" arabic-form="final" 
d="M454 34h120v-34h-319q-123 0 -169 59.5t-46 189.5q0 133 44.5 197t150.5 64q97 0 219 -10v-466zM79 252q0 -116 42 -167t151 -51h143v434q-124 7 -157 7q-97 0 -138 -53.5t-41 -169.5z" />
    <glyph glyph-name="uniFEEB" unicode="&#x647;" horiz-adv-x="735" arabic-form="initial" 
d="M355 520q31 0 57.5 -2.5t60 -10.5t60 -21.5t53 -37.5t44 -56t28.5 -80.5t11 -107.5v-204h-669v34h122v120q1 70 49.5 116.5t113.5 46.5q64 0 113 -44.5t49 -118.5v-120h183v166q0 285 -279 285q-70 0 -198 -22l-1 27l54 14q80 16 149 16zM285 284q-53 0 -89 -34t-36 -82
v-134h248v133q0 49 -35 83t-88 34z" />
    <glyph glyph-name="uniFEEC" unicode="&#x647;" horiz-adv-x="774" arabic-form="medial" 
d="M669 34h105v-34h-774v34h122v120q1 70 49.5 116.5t113.5 46.5q64 0 113 -44.5t49 -118.5v-120h183v166q0 285 -279 285q-70 0 -198 -22l-1 27l54 14q80 16 149 16q31 0 57.5 -2.5t60 -10.5t60 -21.5t53 -37.5t44 -56t28.5 -80.5t11 -107.5v-170zM285 284q-53 0 -89 -34
t-36 -82v-134h248v133q0 49 -35 83t-88 34z" />
    <glyph glyph-name="uniFEEE" unicode="&#x648;" horiz-adv-x="528" arabic-form="final" 
d="M528 34v-34h-124q-2 -65 -11 -111t-21 -72.5t-32 -41t-39.5 -19t-47.5 -4.5q-34 0 -136 12v33q93 -14 131 -14q28 0 47.5 7t38 28t27.5 66.5t7 115.5h-149q-47 0 -81 15.5t-53 39t-29.5 58.5t-13.5 65.5t-3 69.5q0 140 45.5 205t168.5 65q71 0 152 -15v-458v-11h123z
M234 34h132v442l-2 1q-66 8 -101 8q-106 0 -145.5 -57.5t-39.5 -179.5q0 -34 2.5 -60t11.5 -56.5t25.5 -50.5t46 -33.5t70.5 -13.5z" />
    <glyph glyph-name="uniFEF0" unicode="&#x649;" horiz-adv-x="894" arabic-form="final" 
d="M894 34v-34h-149q1 -10 1 -30q0 -89 -53 -153.5t-158 -64.5h-253q-113 0 -177.5 58t-64.5 138q0 60 25 235l39 -6q-25 -163 -25 -214q0 -80 59.5 -128.5t138.5 -48.5l256 -2q82 0 129 56.5t47 125.5q0 12 -2 34h-37q-70 0 -101 18l14 25q20 -9 92 -9h219z" />
    <glyph glyph-name="uniFEF2" unicode="&#x64a;" horiz-adv-x="894" arabic-form="final" 
d="M894 34v-34h-149q1 -10 1 -30q0 -89 -53 -153.5t-158 -64.5h-253q-113 0 -177.5 58t-64.5 138q0 60 25 235l39 -6q-25 -163 -25 -214q0 -80 59.5 -128.5t138.5 -48.5l256 -2q82 0 129 56.5t47 125.5q0 12 -2 34h-37q-70 0 -101 18l14 25q20 -9 92 -9h219zM316 -374v54h45
v-54h-45zM410 -374v54h45v-54h-45z" />
    <glyph glyph-name="uniFEF3" unicode="&#x64a;" horiz-adv-x="275" arabic-form="initial" 
d="M149 34v466h39v-500h-188v34h149zM96 -134v54h45v-54h-45zM190 -80h45v-54h-45v54z" />
    <glyph glyph-name="uniFEF4" unicode="&#x64a;" horiz-adv-x="336" arabic-form="medial" 
d="M188 34h148v-34h-336v34h149v466h39v-466zM98 -134v54h45v-54h-45zM192 -134v54h45v-54h-45z" />
    <glyph glyph-name=".notdef" horiz-adv-x="235" 
 />
    <glyph glyph-name="uni0000" horiz-adv-x="0" 
 />
    <glyph glyph-name="uni0000" horiz-adv-x="0" 
 />
    <glyph glyph-name="uni000D" unicode="&#xd;" horiz-adv-x="333" 
 />
    <glyph glyph-name="space" unicode=" " horiz-adv-x="220" 
 />
    <glyph glyph-name="exclam" unicode="!" horiz-adv-x="225" 
d="M94 213l1 487h35l1 -487h-37zM93 0v79h41v-79h-41z" />
    <glyph glyph-name="quotedbl" unicode="&#x22;" horiz-adv-x="348" 
d="M77 490l-3 210h39l-3 -210h-33zM237 490l-2 210h39l-4 -210h-33z" />
    <glyph glyph-name="numbersign" unicode="#" 
d="M150 0v191h-121v32h121v226h-121v32h121v189h36v-189h188v189h36v-189h121v-32h-121v-226h121v-32h-121v-191h-36v191h-188v-191h-36zM186 223h188v226h-188v-226z" />
    <glyph glyph-name="dollar" unicode="$" 
d="M247 -120q-35 3 -35 7l14 108q-1 0 -25 2t-57 5.5t-47 4.5l-14 1l5 32q74 -10 141 -15l40 301q-107 20 -148 54.5t-41 123.5q0 97 46.5 131t157.5 34l29 -2l17 123h35l-16 -124q2 0 39.5 -3.5t57.5 -5.5l24 -3l-3 -32q-98 11 -121 13l-37 -281q101 -19 138.5 -51.5
t37.5 -114.5q0 -98 -47 -146.5t-153 -48.5h-24zM273 357l37 282q-109 2 -152 -25.5t-43 -108.5q0 -70 33.5 -99.5t124.5 -48.5zM266 23q93 -3 138.5 37.5t45.5 129.5q0 66 -30 91.5t-115 42.5z" />
    <glyph glyph-name="percent" unicode="%" 
d="M141 398q-48 0 -76 35t-28 104q0 132 104 132q103 0 103 -132q0 -69 -27.5 -104t-75.5 -35zM206 -9l-31 8l185 670l31 -9zM142 429q67 0 67 110q0 52 -15.5 75t-51.5 23t-52 -23t-16 -75q0 -110 68 -110zM419 -9q-47 0 -74 35.5t-27 104.5q0 131 103 131q102 0 102 -130
q0 -69 -28 -105t-76 -36zM421 23q37 0 52 25.5t15 80.5t-15 78.5t-52 23.5t-53 -23t-16 -76q0 -57 16.5 -83t52.5 -26z" />
    <glyph glyph-name="ampersand" unicode="&#x26;" horiz-adv-x="679" 
d="M278 -9q-124 0 -177.5 54t-53.5 158q0 94 39 138t124 68q-51 53 -51 132q0 153 155 153q151 0 151 -146q0 -70 -38.5 -111t-126.5 -70l188 -184q27 81 34 184l35 1q-14 -140 -43 -212l140 -138l-24 -25l-131 130q-39 -77 -92 -104.5t-129 -27.5zM276 392q85 28 120 61
t35 93q0 115 -119 115q-118 0 -118 -113q0 -74 45 -122zM274 25q79 0 124.5 29t74.5 94l-236 235q-84 -22 -119 -58.5t-35 -115.5q0 -94 47 -139t144 -45z" />
    <glyph glyph-name="quotesingle" unicode="'" horiz-adv-x="187" 
d="M77 490l-3 210h39l-3 -210h-33z" />
    <glyph glyph-name="parenleft" unicode="(" horiz-adv-x="235" 
d="M156 -125q-55 145 -75.5 239.5t-20.5 189.5q0 180 96 446h35q-40 -106 -67.5 -235.5t-27.5 -223.5q0 -156 95 -416h-35z" />
    <glyph glyph-name="parenright" unicode=")" horiz-adv-x="235" 
d="M79 -125h-35q93 259 93 414q0 196 -93 461h35q96 -269 96 -446q0 -94 -20.5 -189t-75.5 -240z" />
    <glyph glyph-name="asterisk" unicode="*" horiz-adv-x="417" 
d="M234 380l-41 130l-109 -79l-21 27l110 80l-108 79l21 28l109 -81l42 129l32 -10l-41 -130h134v-34h-138l43 -128z" />
    <glyph glyph-name="plus" unicode="+" 
d="M261 19v215h-203v34h203v213h36v-213h205v-34h-205v-215h-36z" />
    <glyph glyph-name="comma" unicode="," horiz-adv-x="196" 
d="M43 -123l44 210h39l-51 -210h-32z" />
    <glyph glyph-name="hyphen" unicode="-" horiz-adv-x="458" 
d="M76 263v36h308v-36h-308z" />
    <glyph glyph-name="period" unicode="." horiz-adv-x="189" 
d="M74 0v79h41v-79h-41z" />
    <glyph glyph-name="slash" unicode="/" horiz-adv-x="376" 
d="M66 -1l-33 12l278 690l33 -13z" />
    <glyph glyph-name="zero" unicode="0" 
d="M280 -10q-120 0 -175.5 75.5t-55.5 263.5q0 187 56 263.5t175 76.5q117 0 173 -77t56 -263q0 -187 -56 -263t-173 -76zM280 23q101 0 146.5 67.5t45.5 238.5q0 169 -45.5 237t-146.5 68t-146.5 -68t-45.5 -237q0 -171 45.5 -238.5t146.5 -67.5z" />
    <glyph glyph-name="one" unicode="1" 
d="M333 0v621l-188 -126l-16 28l205 137h36v-660h-37z" />
    <glyph glyph-name="two" unicode="2" 
d="M72 0v30l227 243q2 2 16 16.5t19.5 20t19 21t20 24.5t17.5 24.5t17 28t12.5 28t9 31t2.5 31.5q0 74 -41.5 105.5t-136.5 31.5q-62 0 -144 -20l-27 -7l-6 36q97 25 192 25q101 0 150.5 -40t49.5 -129q0 -64 -29 -115t-103 -124l-216 -229h369v-32h-418z" />
    <glyph glyph-name="three" unicode="3" 
d="M286 -9q-89 0 -190 16l-31 7l7 35q105 -28 182 -28q199 0 199 162q0 142 -162 149h-133v34h133q53 0 98.5 39.5t45.5 101.5q0 69 -35 98.5t-117 29.5q-101 0 -173 -15l-26 -6l-5 34q94 22 202 22q102 0 146.5 -39.5t44.5 -128.5q0 -46 -31.5 -90t-80.5 -58q68 -19 99 -56
t31 -114q0 -99 -49.5 -146t-154.5 -47z" />
    <glyph glyph-name="four" unicode="4" 
d="M387 0v142h-347v30l205 488h38l-200 -484h304v220h36v-220h98v-34h-98v-142h-36z" />
    <glyph glyph-name="five" unicode="5" 
d="M281 -7q-86 0 -178 18l-31 6l5 33q111 -24 188 -24q96 0 146 49.5t50 140.5q0 86 -44.5 124t-132.5 38q-35 0 -81.5 -14t-66.5 -28l-25 -14l-34 4l18 334h373v-37h-338l-19 -263q88 53 180 53q207 0 207 -193q0 -111 -56.5 -169t-160.5 -58z" />
    <glyph glyph-name="six" unicode="6" 
d="M289 -9q-229 0 -229 339q0 171 63.5 255t183.5 84q82 0 145 -6l24 -3l-3 -35q-79 10 -174 10q-94 0 -147 -73t-53 -204l27 13q25 11 76 23t88 12q218 0 218 -199q0 -102 -58 -159t-161 -57zM278 25q96 0 144 46t48 133q0 84 -47.5 125.5t-133.5 41.5q-37 0 -88 -12
t-76 -23l-27 -13q1 -138 46 -218t134 -80z" />
    <glyph glyph-name="seven" unicode="7" 
d="M218 -9l-37 15l265 597v22h-364v35h402v-64z" />
    <glyph glyph-name="eight" unicode="8" 
d="M281 -9q-246 0 -246 177q0 73 30.5 111t103.5 69q-64 23 -93.5 59.5t-29.5 97.5q0 85 61 125q57 40 171 40q113 0 174.5 -41.5t61.5 -124.5q0 -64 -31.5 -99t-103.5 -57q73 -21 109 -60.5t36 -108.5q0 -95 -57.5 -141.5t-185.5 -46.5zM214 364h117q76 18 110.5 49.5
t34.5 89.5q0 133 -196 133t-196 -129q0 -59 31 -92t99 -51zM280 25q206 0 206 153q0 67 -35.5 98t-119.5 54h-117q-73 -18 -107 -55t-34 -107q0 -143 207 -143z" />
    <glyph glyph-name="nine" unicode="9" 
d="M246 -9q-59 0 -147 9l-22 2l3 33q79 -10 166 -10q212 0 215 275q-106 -43 -203 -43q-107 0 -157.5 48t-50.5 146t59.5 158t155.5 60q235 0 235 -353q0 -170 -63 -247.5t-191 -77.5zM260 290q72 0 169 33l33 12q-5 300 -192 300q-84 0 -133 -50t-49 -134q0 -161 172 -161z
" />
    <glyph glyph-name="colon" unicode=":" horiz-adv-x="191" 
d="M74 344v79h41v-79h-41zM74 0v79h41v-79h-41z" />
    <glyph glyph-name="semicolon" unicode=";" horiz-adv-x="227" 
d="M99 344v79h41v-79h-41zM62 -123l43 210h40l-52 -210h-31z" />
    <glyph glyph-name="less" unicode="&#x3c;" 
d="M480 15l-422 218v36l422 217v-40l-391 -195l391 -195v-41z" />
    <glyph glyph-name="equal" unicode="=" 
d="M68 318v35h424v-35h-424zM68 149v34h424v-34h-424z" />
    <glyph glyph-name="greater" unicode="&#x3e;" 
d="M78 15v41l391 195l-391 195v40l423 -217v-36z" />
    <glyph glyph-name="question" unicode="?" horiz-adv-x="454" 
d="M180 190q-1 15 -1 41q0 42 25 75.5t94 95.5q53 48 66.5 75.5t13.5 83.5q0 59 -39.5 86.5t-125.5 27.5q-34 0 -162 -27l-4 34q111 27 157 27q109 0 158.5 -37.5t49.5 -125.5q0 -56 -18 -87.5t-75 -81.5q-64 -56 -85 -86t-21 -63v-38h-33zM176 2v79h41v-79h-41z" />
    <glyph glyph-name="at" unicode="@" horiz-adv-x="980" 
d="M505 -199q-120 0 -197.5 22t-134.5 74q-113 98 -113 364q0 244 106.5 351t336.5 107q226 0 324.5 -98t98.5 -316v-16q0 -78 -7 -132.5t-18.5 -87t-32 -50.5t-43 -23.5t-56.5 -5.5q-95 0 -114 63q-109 -61 -192 -61q-28 0 -49.5 4t-45 18t-38.5 38t-25 67.5t-10 103.5
q0 155 47.5 220t163.5 65q50 0 111 -19l20 -7v18h35v-199q0 -195 15 -242q6 -11 12.5 -19t11.5 -12t15.5 -6t14.5 -2.5t18.5 0t19.5 0.5q26 0 45 10.5t30.5 33t19 44.5t10.5 58t3.5 60t0.5 63v17q0 204 -88 293t-297 89q-214 0 -310 -98t-96 -331q0 -235 94.5 -331
t313.5 -96l143 11l1 -34q-104 -8 -144 -8zM464 23q46 0 184 60q-11 61 -11 218v149q-76 27 -131 27q-98 0 -136.5 -55.5t-38.5 -182.5q0 -216 133 -216z" />
    <glyph glyph-name="A" unicode="A" horiz-adv-x="592" 
d="M529 0l-66 215h-334l-66 -215h-34l214 700h33l6 5l-2 -5h32l-2 5l6 -5h33l214 -700h-34zM140 250h312l-2 7l1 -1l-129 410h-52l-128 -409z" />
    <glyph glyph-name="B" unicode="B" horiz-adv-x="621" 
d="M92 0v700h241q102 0 152 -43t50 -133q0 -125 -99 -162q64 -21 94.5 -63.5t30.5 -115.5q0 -97 -53 -140t-156 -43h-260zM129 375h214q79 0 116 37t37 112q0 76 -38.5 108.5t-125.5 32.5h-203v-290zM129 35h222q173 0 173 151q0 155 -181 155h-214v-306z" />
    <glyph glyph-name="C" unicode="C" horiz-adv-x="545" 
d="M326 -9q-79 0 -131 23t-79.5 72t-38 111t-10.5 155q0 69 5 118t21 97t44 77t75 47t113 18q74 0 176 -19l-2 -35q-105 20 -183 20q-65 0 -105 -16t-63.5 -57t-32 -100t-9.5 -156q-1 -67 3 -111.5t17 -88t37.5 -67.5t66.5 -39t103 -15q67 0 166 21l3 -35q-105 -20 -176 -20
z" />
    <glyph glyph-name="D" unicode="D" horiz-adv-x="650" 
d="M351 700q234 0 234 -329q0 -189 -64.5 -280t-169.5 -91h-259v700h259zM351 33q85 0 141 83.5t56 237.5q0 157 -54 235t-143 78h-222v-634h222z" />
    <glyph glyph-name="E" unicode="E" horiz-adv-x="552" 
d="M129 667v-293h312v-33h-312v-308h372v-33h-409v700h409v-33h-372z" />
    <glyph glyph-name="F" unicode="F" horiz-adv-x="523" 
d="M493 667h-364v-317h313v-33h-313v-317h-37v700h401v-33z" />
    <glyph glyph-name="G" unicode="G" horiz-adv-x="619" 
d="M326 -9q-141 0 -201 86.5t-60 270.5q0 187 58.5 274t202.5 87q90 0 188 -20l33 -5l-3 -35q-130 26 -227 26q-110 0 -161.5 -69.5t-51.5 -242.5q0 -184 48.5 -261t175.5 -77q75 0 183 20v267h-151v35h187v-331q-113 -25 -221 -25z" />
    <glyph glyph-name="H" unicode="H" horiz-adv-x="674" 
d="M547 700h34v-700h-34v334h-418v-334h-37v700h37v-331h418v331z" />
    <glyph glyph-name="I" unicode="I" horiz-adv-x="219" 
d="M92 0v700h37v-700h-37z" />
    <glyph glyph-name="J" unicode="J" horiz-adv-x="280" 
d="M17 -73v35q36 0 54 1t36.5 6t25.5 12t13.5 23.5t7.5 36.5t1 55v604h35l1 -618q0 -33 -4 -58t-11.5 -41.5t-18 -27.5t-23.5 -16.5t-28.5 -8.5t-32.5 -3h-35h-21z" />
    <glyph glyph-name="K" unicode="K" horiz-adv-x="553" 
d="M490 0l-234 327l-127 2v-329h-37v700h37v-337l124 -2l225 339h42l-236 -354l251 -346h-45z" />
    <glyph glyph-name="L" unicode="L" horiz-adv-x="484" 
d="M129 34h340v-34h-377v700h37v-666z" />
    <glyph glyph-name="M" unicode="M" horiz-adv-x="828" 
d="M661 700h75v-700h-37v666h-9l-250 -644h-52l-251 644h-8v-666h-37v700h75l247 -636z" />
    <glyph glyph-name="N" unicode="N" horiz-adv-x="665" 
d="M538 700h34v-700h-83l-341 667h-19v-667h-37v700h85l338 -667h23v667z" />
    <glyph glyph-name="O" unicode="O" horiz-adv-x="665" 
d="M334 -9q-152 0 -210 82.5t-58 273.5q0 190 60 276t207 86q148 0 208 -86t60 -279q0 -196 -58 -274.5t-209 -78.5zM334 25q133 0 181 71t48 248q0 178 -50 254.5t-180 76.5q-131 0 -180.5 -75.5t-49.5 -252.5q0 -182 49.5 -252t181.5 -70z" />
    <glyph glyph-name="P" unicode="P" horiz-adv-x="596" 
d="M92 0v700h255q108 0 157.5 -51.5t49.5 -162.5q0 -117 -51 -173.5t-156 -56.5h-218v-256h-37zM129 291h217q170 0 170 195q0 92 -40.5 135.5t-129.5 43.5h-217v-374z" />
    <glyph glyph-name="Q" unicode="Q" horiz-adv-x="665" 
d="M530 -138l-87 142q-52 -13 -110 -13q-151 0 -209 82.5t-58 273.5q0 190 60 276t207 86q148 0 208 -85.5t60 -275.5q0 -142 -26.5 -218.5t-94.5 -110.5l86 -139zM334 25q133 0 181 70.5t48 248.5t-50 254.5t-180 76.5q-131 0 -180.5 -75.5t-49.5 -251.5q0 -182 50 -252.5
t181 -70.5z" />
    <glyph glyph-name="R" unicode="R" horiz-adv-x="613" 
d="M92 0v700h251q105 0 156.5 -48.5t51.5 -152.5q0 -179 -145 -204l157 -295h-41l-155 290h-238v-290h-37zM129 324h214q86 0 128.5 41.5t42.5 129.5t-41.5 129t-129.5 41h-214v-341z" />
    <glyph glyph-name="S" unicode="S" horiz-adv-x="541" 
d="M274 -7q-55 0 -178 12l-36 4l4 35q138 -18 208 -18q176 0 176 173q0 70 -33 98t-142 46q-125 21 -171.5 58t-46.5 134q0 88 52.5 131.5t164.5 43.5q88 0 199 -15l-4 -36q-151 18 -196 18q-177 0 -177 -140q0 -43 4.5 -64.5t25.5 -40.5t55.5 -29t103.5 -23
q113 -19 157.5 -55.5t44.5 -121.5q0 -108 -50 -159t-161 -51z" />
    <glyph glyph-name="T" unicode="T" horiz-adv-x="526" 
d="M247 0v666h-234v34h500v-34h-232v-666h-34z" />
    <glyph glyph-name="U" unicode="U" horiz-adv-x="637" 
d="M317 -9q-116 0 -172.5 49t-56.5 157v503h36v-505q0 -170 190 -170q101 0 151 40t50 130v505h34v-503q0 -108 -58 -157t-174 -49z" />
    <glyph glyph-name="V" unicode="V" horiz-adv-x="568" 
d="M226 0l-197 700h37l186 -667h64l186 667h37l-197 -700h-116z" />
    <glyph glyph-name="W" unicode="W" horiz-adv-x="857" 
d="M186 0l-149 700h37l141 -665h38l154 655h43l154 -655h38l141 665h35l-147 -700h-96l-147 640l-147 -640h-95z" />
    <glyph glyph-name="X" unicode="X" horiz-adv-x="551" 
d="M26 0l226 348l-226 352h43l207 -327l208 327h43l-225 -354l225 -346h-43l-206 322l-209 -322h-43z" />
    <glyph glyph-name="Y" unicode="Y" horiz-adv-x="525" 
d="M245 0v302l-228 398h43l203 -359l203 359h43l-228 -398v-302h-36z" />
    <glyph glyph-name="Z" unicode="Z" horiz-adv-x="539" 
d="M44 -2v69l413 575v25h-413v33h450v-70l-414 -575v-22h414v-35h-450z" />
    <glyph glyph-name="bracketleft" unicode="[" horiz-adv-x="312" 
d="M86 -123v872h182v-32h-146v-808h146v-32h-182z" />
    <glyph glyph-name="backslash" unicode="\" horiz-adv-x="395" 
d="M330 1l-301 686l35 14l300 -686z" />
    <glyph glyph-name="bracketright" unicode="]" horiz-adv-x="312" 
d="M225 -123h-182v32h147v808h-147v32h182v-872z" />
    <glyph glyph-name="asciicircum" unicode="^" 
d="M83 323l179 337h35l189 -337h-40l-165 300l-158 -300h-40z" />
    <glyph glyph-name="underscore" unicode="_" horiz-adv-x="640" 
d="M106 -139v34h428v-34h-428z" />
    <glyph glyph-name="grave" unicode="`" horiz-adv-x="215" 
d="M203 609l-193 92l16 30l192 -95z" />
    <glyph glyph-name="a" unicode="a" horiz-adv-x="494" 
d="M179 -9q-63 0 -97.5 38t-34.5 105t33.5 102.5t105.5 45.5l190 19v51q0 62 -26 92.5t-71 30.5q-65 0 -203 -17l-3 33q104 18 189 18q77 0 113.5 -38.5t36.5 -118.5v-288q1 -15 21 -26.5t53 -15.5l-2 -31q-33 0 -61.5 12t-41.5 32q-100 -44 -202 -44zM180 24q87 0 168 30
l28 11v203l-186 -18q-55 -4 -79.5 -30.5t-24.5 -79.5q0 -116 94 -116z" />
    <glyph glyph-name="b" unicode="b" horiz-adv-x="514" 
d="M211 -7q-63 0 -111 5l-21 2v730h34v-262q84 41 174 41q96 0 131.5 -57t35.5 -198q0 -156 -49 -208.5t-194 -52.5zM230 23q113 0 150.5 51.5t37.5 183.5q0 125 -28.5 172t-107.5 47q-72 0 -169 -40v-408q102 -6 117 -6z" />
    <glyph glyph-name="c" unicode="c" horiz-adv-x="429" 
d="M258 -9q-113 0 -155.5 58.5t-42.5 200.5q0 29 0.5 44.5t4 47t9.5 50.5t19.5 44t32.5 39.5t49 24.5t68 10q64 0 143 -12l-3 -31q-76 10 -123 10q-93 0 -128 -49t-35 -182q0 -125 34.5 -174t134.5 -49l119 10l2 -32q-93 -10 -129 -10z" />
    <glyph glyph-name="d" unicode="d" horiz-adv-x="516" 
d="M228 -9q-92 0 -131 60.5t-39 188.5q0 144 50 206.5t170 62.5q72 0 123 -13v234h34v-730h-34v43q-79 -52 -173 -52zM230 23q39 0 82.5 13t64.5 26l24 13v389q-73 14 -129 14q-99 0 -137.5 -53.5t-38.5 -176.5q0 -112 30 -168.5t104 -56.5z" />
    <glyph glyph-name="e" unicode="e" horiz-adv-x="502" 
d="M260 -9q-111 0 -156 59.5t-45 185.5q0 140 48.5 206.5t153.5 66.5q96 0 142 -58t46 -182v-33h-354q-2 -117 36.5 -165t139.5 -48q57 0 129 6l30 3l2 -33q-122 -8 -172 -8zM94 268h318q0 111 -36 160t-114 49q-167 0 -168 -209z" />
    <glyph glyph-name="f" unicode="f" horiz-adv-x="314" 
d="M98 0v468h-69v32h69v60q0 103 28 141t99 38l93 -6l-1 -28q-35 0 -57.5 0.5t-29.5 1t-10.5 0.5h-6.5q-48 0 -64 -35.5t-16 -112.5v-59h161v-32h-161v-468h-35z" />
    <glyph glyph-name="g" unicode="g" horiz-adv-x="501" 
d="M250 -238q-115 0 -153 34t-38 118q0 28 3 44.5t16.5 33t23 24.5t40.5 32q-22 14 -22 61q0 21 31 82q-86 25 -86 152q0 85 41 126t134 41q49 0 102 -13l140 3v-35l-109 -1q41 -30 41 -122q0 -88 -43 -125.5t-138 -37.5q-32 0 -55 4q-23 -60 -23 -75q0 -10 2 -17.5
t7.5 -12.5t10.5 -9t14.5 -6t16.5 -3.5t20.5 -1.5h21t23.5 0.5t24 0.5q90 2 131.5 -25.5t41.5 -111.5t-48 -122t-170 -38zM239 211q76 0 107 29.5t31 104.5q0 74 -30.5 103.5t-105.5 29.5q-77 0 -109 -30.5t-32 -104.5t31.5 -103t107.5 -29zM255 -207q100 0 138.5 29
t38.5 103q0 61 -26.5 81.5t-116.5 19.5l-120 4q-47 -32 -61 -52.5t-14 -61.5q0 -71 34 -97t127 -26z" />
    <glyph glyph-name="h" unicode="h" horiz-adv-x="526" 
d="M79 0v730h35v-261q91 40 176 40q97 0 130 -51.5t33 -198.5v-259h-36v258q0 134 -25 176.5t-106 42.5q-72 0 -149 -30l-23 -9v-438h-35z" />
    <glyph glyph-name="i" unicode="i" horiz-adv-x="191" 
d="M78 645v55h34v-55h-34zM79 0v500h34v-500h-34z" />
    <glyph glyph-name="j" unicode="j" horiz-adv-x="192" 
d="M79 645v55h34v-55h-34zM-44 -218l-15 30q87 47 113 83t26 111v494h34v-495q0 -86 -31.5 -130t-126.5 -93z" />
    <glyph glyph-name="k" unicode="k" horiz-adv-x="455" 
d="M79 0v730h35v-441h96l173 211h41l-185 -225l192 -275h-41l-181 257l-95 1v-258h-35z" />
    <glyph glyph-name="l" unicode="l" horiz-adv-x="205" 
d="M85 0v730h35v-730h-35z" />
    <glyph glyph-name="m" unicode="m" horiz-adv-x="834" 
d="M79 0v500h34v-40q80 49 169 49q96 0 129 -54q29 20 85 37t115 17q88 0 118.5 -54t30.5 -196v-259h-35v259q0 130 -23.5 174t-97.5 44q-48 0 -94 -12t-65 -25l-22 -12q19 -4 19 -167v-261h-35v259q0 127 -23.5 172.5t-94.5 45.5q-44 0 -88.5 -11.5t-65.5 -25.5l-21 -13
v-427h-35z" />
    <glyph glyph-name="n" unicode="n" horiz-adv-x="526" 
d="M79 0v500h34v-40q93 49 181 49q95 0 127 -51.5t32 -198.5v-259h-34v259q0 127 -24 172.5t-95 45.5q-45 0 -91.5 -12t-70.5 -25l-24 -13v-427h-35z" />
    <glyph glyph-name="o" unicode="o" horiz-adv-x="525" 
d="M263 -9q-122 0 -163 53.5t-41 199.5q0 153 43 209t161 56q119 0 161 -56.5t42 -208.5q0 -146 -40 -199.5t-163 -53.5zM264 24q103 0 133.5 45.5t30.5 174.5q0 138 -32 185t-132 47q-101 0 -134 -47t-33 -185q0 -128 32 -174t135 -46z" />
    <glyph glyph-name="p" unicode="p" horiz-adv-x="516" 
d="M79 -230v730h34v-42q84 51 174 51q91 0 131 -60t40 -191q0 -142 -49.5 -204.5t-169.5 -62.5q-62 0 -125 13v-234h-35zM250 22q93 0 132.5 54.5t39.5 176.5q0 120 -33.5 172t-98.5 52q-38 0 -82 -13t-70 -27l-24 -13v-387q98 -15 136 -15z" />
    <glyph glyph-name="q" unicode="q" horiz-adv-x="515" 
d="M400 -230v258q-72 -37 -161 -37q-98 0 -139.5 59t-41.5 192q0 143 50.5 205t177.5 62l148 -8v-731h-34zM241 23q67 0 138 30l21 10v407q-82 8 -116 8q-107 0 -148 -55.5t-41 -181.5q0 -118 32.5 -168t113.5 -50z" />
    <glyph glyph-name="r" unicode="r" horiz-adv-x="329" 
d="M79 0v500h34v-78q87 65 199 88v-36q-42 -8 -94.5 -30t-74.5 -39l-29 -17v-388h-35z" />
    <glyph glyph-name="s" unicode="s" horiz-adv-x="460" 
d="M224 -9q-51 0 -138 12l-29 4l4 34q118 -18 170 -18q75 0 110 26.5t35 84.5q0 18 -4 32.5t-8.5 24.5t-16 18t-19 12.5t-24.5 9t-26 6l-30 5t-30 4.5q-99 17 -133 42t-34 83q0 78 47 107.5t136 29.5q79 0 136 -9l25 -5l-2 -32q-99 16 -163 16q-143 0 -143 -101
q0 -35 18 -54.5t43 -26.5t72 -16q4 0 6.5 -0.5t6 -1t6.5 -1.5q100 -18 136.5 -43t36.5 -95q0 -79 -46.5 -113.5t-141.5 -34.5z" />
    <glyph glyph-name="t" unicode="t" horiz-adv-x="342" 
d="M230 -10q-68 0 -94.5 37t-26.5 141v300h-79v32h79v162h34v-162h183v-32h-183v-262q0 -46 1.5 -71t6 -50.5t14.5 -37t27 -19t43 -7.5l97 9l5 -32q-82 -8 -107 -8z" />
    <glyph glyph-name="u" unicode="u" horiz-adv-x="516" 
d="M231 -9q-94 0 -125.5 50.5t-31.5 198.5v260h35v-257q0 -131 24 -175.5t98 -44.5q92 0 171 50v427h36v-500h-37v40q-77 -49 -170 -49z" />
    <glyph glyph-name="v" unicode="v" horiz-adv-x="470" 
d="M187 0l-155 500h40l141 -468h43l146 468h38l-155 -500h-98z" />
    <glyph glyph-name="w" unicode="w" horiz-adv-x="755" 
d="M171 0l-135 500h37l127 -468h11l148 458h38l147 -458h13l126 468h37l-135 -500h-69l-138 448l-139 -448h-68z" />
    <glyph glyph-name="x" unicode="x" horiz-adv-x="437" 
d="M27 0l171 249l-171 251h42l150 -223l149 223h41l-170 -250l169 -250h-42l-147 223l-150 -223h-42z" />
    <glyph glyph-name="y" unicode="y" horiz-adv-x="472" 
d="M175 -230l71 230h-60l-155 500h37l148 -468h39l150 468h37l-230 -730h-37z" />
    <glyph glyph-name="z" unicode="z" horiz-adv-x="456" 
d="M43 0v32l326 436h-326v32h371v-32l-327 -436h327v-32h-371z" />
    <glyph glyph-name="braceleft" unicode="{" horiz-adv-x="346" 
d="M301 -124q-94 4 -134.5 45.5t-40.5 131.5l7 123q0 47 -23.5 74.5t-80.5 43.5v33q57 12 80.5 40.5t23.5 78.5l-7 128q0 91 41 132t135 45l1 -32q-79 -4 -110.5 -37.5t-31.5 -107.5l7 -119q0 -64 -21.5 -95t-78.5 -49q55 -19 77 -49.5t22 -92.5l-7 -116q0 -73 32 -107
t113 -38z" />
    <glyph glyph-name="bar" unicode="|" horiz-adv-x="205" 
d="M85 -230v960h34v-960h-34z" />
    <glyph glyph-name="braceright" unicode="}" horiz-adv-x="346" 
d="M45 -124l-4 32q81 4 113 38t32 107l-7 116q0 62 22 92.5t77 49.5q-57 18 -78.5 49t-21.5 95l7 119q0 74 -31.5 107.5t-110.5 37.5l1 32q94 -4 135 -45t41 -132l-7 -128q0 -50 23.5 -78.5t80.5 -40.5v-33q-57 -16 -80.5 -43.5t-23.5 -74.5l7 -123q0 -90 -40.5 -131.5
t-134.5 -45.5z" />
    <glyph glyph-name="asciitilde" unicode="~" 
d="M376 212q-27 0 -98 37q-74 37 -92 37q-34 0 -86 -39l-17 -14l-12 32q62 54 111 54q29 0 104 -35q71 -37 91 -37q37 0 88 38l17 13l12 -30q-69 -56 -118 -56z" />
    <glyph glyph-name="uni00A0" unicode="&#xa0;" horiz-adv-x="220" 
 />
    <glyph glyph-name="exclamdown" unicode="&#xa1;" horiz-adv-x="204" 
d="M81 500h40v-79h-40v79zM82 287h36l-1 -487h-35v487z" />
    <glyph glyph-name="cent" unicode="&#xa2;" 
d="M283 -85v126q-97 4 -135 46.5t-38 156.5t41 164t132 54v129h35v-132l116 -11l-2 -33q-68 9 -129 9q-89 0 -121.5 -38.5t-32.5 -138.5q0 -99 32 -135t123 -36l129 9l3 -35q-90 -9 -118 -9v-126h-35z" />
    <glyph glyph-name="sterling" unicode="&#xa3;" 
d="M83 0v34h93v340h-69v32h69v53q0 124 28.5 167t107.5 43q49 0 97 -8l22 -4l1 -32q-94 13 -122 13q-60 0 -80.5 -36t-20.5 -148v-48h183v-32h-183v-340h174l83 16l7 -32l-82 -18h-308z" />
    <glyph glyph-name="currency" unicode="&#xa4;" 
d="M104 49l-27 27l68 68q-35 49 -35 106q0 60 35 110l-68 68l27 27l68 -69q46 36 106 36t110 -36l68 69l27 -27l-69 -68q36 -50 36 -110q0 -59 -36 -106l69 -68l-27 -27l-68 69q-50 -36 -110 -36q-61 0 -106 36zM280 118q56 0 95 39t39 95t-39 95t-95 39t-95 -39t-39 -95
t39 -95t95 -39z" />
    <glyph glyph-name="yen" unicode="&#xa5;" 
d="M263 0v182h-205v34h205v115h-207v34h172l-193 295h41l205 -309l202 309h41l-189 -295h167v-34h-203v-115h205v-34h-205v-182h-36z" />
    <glyph glyph-name="brokenbar" unicode="&#xa6;" horiz-adv-x="209" 
d="M87 355v375h34v-375h-34zM87 -230v377h34v-377h-34z" />
    <glyph glyph-name="section" unicode="&#xa7;" horiz-adv-x="487" 
d="M244 -123q-77 0 -138 8l-29 5l3 33q110 -15 165 -15q67 0 102.5 32t35.5 95q0 55 -31 75q-32 18 -119 30q-90 13 -130.5 44.5t-40.5 98.5q0 36 19.5 72.5t34.5 48.5q-44 32 -44 113q0 143 175 143q46 0 132 -10l24 -3l-2 -33q-108 15 -165 15q-60 0 -94.5 -28t-34.5 -82
q0 -46 8.5 -66t39.5 -33.5t102 -25.5q88 -13 126.5 -42.5t38.5 -95.5q0 -65 -40 -127q36 -30 36 -94q0 -76 -45.5 -117t-128.5 -41zM356 144q3 4 9.5 20t13.5 45.5t7 55.5q0 44 -32 65.5t-120 36.5q-62 9 -93 22q-44 -75 -44 -116q0 -43 35 -67t120 -37q89 -16 104 -25z" />
    <glyph glyph-name="dieresis" unicode="&#xa8;" horiz-adv-x="215" 
d="M0 638v62h35v-62h-35zM189 638v62h37v-62h-37z" />
    <glyph glyph-name="copyright" unicode="&#xa9;" horiz-adv-x="646" 
d="M324 168q-109 0 -182.5 77t-73.5 189t73 189t181 77q109 0 183 -77.5t74 -188.5q0 -112 -73 -189t-182 -77zM322 202q95 0 160 67.5t65 165.5t-64.5 165.5t-158.5 67.5q-97 0 -161 -68q-63 -69 -63 -166q0 -99 63.5 -165.5t158.5 -66.5zM327 281q-64 0 -88.5 36.5
t-24.5 115.5t24.5 116t83.5 37q46 0 65 -3l10 -3l-2 -31q-39 6 -79 6q-39 0 -54 -27.5t-15 -93.5q0 -68 15 -95t61 -27l72 9l2 -32q-39 -8 -70 -8z" />
    <glyph glyph-name="ordfeminine" unicode="&#xaa;" horiz-adv-x="372" 
d="M132 386q-31 0 -50.5 22t-19.5 58q0 70 75 76l102 7v23q0 30 -12.5 43.5t-39.5 13.5l-104 -7l-2 29q74 8 109 8q41 0 60.5 -21t19.5 -67v-134q11 -17 37 -23l-2 -28q-32 2 -54 22q-62 -22 -119 -22zM135 417q42 0 88 13l16 5v85l-97 -6q-47 -1 -47 -50q0 -47 40 -47z" />
    <glyph glyph-name="guillemotleft" unicode="&#xab;" horiz-adv-x="498" 
d="M215 96l-167 138v36l167 129v-38l-134 -107l134 -118v-40zM423 96l-167 138v36l167 129v-38l-134 -107l134 -118v-40z" />
    <glyph glyph-name="logicalnot" unicode="&#xac;" 
d="M456 126v172h-386v33h423v-205h-37z" />
    <glyph glyph-name="registered" unicode="&#xae;" horiz-adv-x="646" 
d="M323 168q-108 0 -181.5 77.5t-73.5 189.5t73 188.5t182 76.5t182.5 -76t73.5 -189q0 -112 -73.5 -189.5t-182.5 -77.5zM323 202q95 0 159.5 67t64.5 165t-64.5 166t-158.5 68t-159 -66.5t-65 -165.5t63.5 -166.5t159.5 -67.5zM221 286v295h93q60 0 87 -19.5t27 -62.5
q0 -42 -14 -63.5t-46 -31.5l64 -118h-35l-64 116h-79v-116h-33zM253 433h79q34 0 48.5 13.5t14.5 45.5q0 59 -80 59h-62v-118z" />
    <glyph glyph-name="macron" unicode="&#xaf;" horiz-adv-x="215" 
d="M-20 642v32h267v-32h-267z" />
    <glyph glyph-name="degree" unicode="&#xb0;" 
d="M280 438q-60 0 -98.5 37.5t-38.5 98.5q0 60 38 97.5t99 37.5t99 -37.5t38 -97.5q0 -61 -38 -98.5t-99 -37.5zM280 469q47 0 75.5 28.5t28.5 76.5q0 46 -29 74.5t-75 28.5q-45 0 -73.5 -28t-28.5 -75q0 -48 27.5 -76.5t74.5 -28.5z" />
    <glyph glyph-name="plusminus" unicode="&#xb1;" 
d="M261 163v145h-203v34h203v138h36v-138h205v-34h-205v-145h-36zM58 51v33h444v-33h-444z" />
    <glyph glyph-name="uni00B2" unicode="&#xb2;" horiz-adv-x="280" 
d="M36 478v32l98 105q54 59 54 101q0 51 -57 51l-91 -11v29q45 14 94 14q90 0 90 -92q0 -47 -65 -113l-79 -83h150v-33h-194z" />
    <glyph glyph-name="uni00B3" unicode="&#xb3;" horiz-adv-x="280" 
d="M144 469l-107 11l2 31q65 -9 112 -9q56 0 56 61t-61 61h-64v31h66q18 0 34 19.5t16 44.5q0 47 -57 47l-98 -8l-2 31q50 10 98 10q94 0 94 -80q0 -50 -46 -75q30 -10 42.5 -26.5t12.5 -57.5q0 -91 -98 -91z" />
    <glyph glyph-name="acute" unicode="&#xb4;" horiz-adv-x="268" 
d="M55 609l-15 27l192 95l17 -30z" />
    <glyph glyph-name="uni00B5" unicode="&#xb5;" 
d="M98 -230v730h36v-241q-1 -145 23 -190.5t105 -45.5q37 0 80 12.5t63 24.5l21 13v427h36v-500h-36v40q-80 -49 -150 -49q-93 0 -142 27v-248h-36z" />
    <glyph glyph-name="paragraph" unicode="&#xb6;" horiz-adv-x="589" 
d="M233 0v349h-7q-80 0 -133 49t-53 126q0 76 53.5 126t132.5 50h328v-32h-96v-668h-38v668h-152v-668h-35z" />
    <glyph glyph-name="periodcentered" unicode="&#xb7;" horiz-adv-x="191" 
d="M74 270v80h41v-80h-41z" />
    <glyph glyph-name="cedilla" unicode="&#xb8;" horiz-adv-x="262" 
d="M131 -201q-46 0 -70 3l-11 1l2 28q60 -4 78 -4q48 0 48 46q0 42 -48 42h-54v86h33v-58q57 1 80 -14.5t23 -54.5q0 -75 -81 -75z" />
    <glyph glyph-name="uni00B9" unicode="&#xb9;" horiz-adv-x="280" 
d="M144 478v273l-82 -57l-15 29l97 67h36v-312h-36z" />
    <glyph glyph-name="ordmasculine" unicode="&#xba;" horiz-adv-x="353" 
d="M178 386q-116 0 -116 139q0 70 28.5 102t87.5 32q58 0 85 -32t27 -102q0 -139 -112 -139zM178 417q42 0 60 25t18 83q0 56 -17.5 79t-60.5 23q-44 0 -62.5 -23.5t-18.5 -78.5q0 -58 19 -83t62 -25z" />
    <glyph glyph-name="guillemotright" unicode="&#xbb;" horiz-adv-x="496" 
d="M75 96v40l134 118l-134 107v38l166 -129v-36zM283 96v40l134 118l-134 107v38l166 -129v-36z" />
    <glyph glyph-name="onequarter" unicode="&#xbc;" 
d="M180 651l19 -12l-19 -30v-131h-36v73l-338 -541l-30 17l368 595v129l-82 -57l-15 29l97 67h36v-139zM493 -10h37v-33h-37v-57h-35v57h-147v31l89 224h38l-87 -222h107l-1 88h36v-88z" />
    <glyph glyph-name="onehalf" unicode="&#xbd;" 
d="M180 651l19 -12l-19 -30v-131h-36v73l-338 -541l-30 17l368 595v129l-82 -57l-15 29l97 67h36v-139zM360 -67h150v-33h-194v32l98 105q54 58 54 101q0 51 -57 51l-91 -11v29q45 14 94 14q90 0 90 -92q0 -47 -65 -113z" />
    <glyph glyph-name="threequarters" unicode="&#xbe;" 
d="M424 469l-107 11l2 31q65 -9 112 -9q56 0 56 61t-61 61h-64v31h66q18 0 34 19.5t16 44.5q0 47 -57 47l-98 -8l-2 31q50 10 98 10q94 0 94 -80q0 -50 -46 -75q30 -10 42.5 -26.5t12.5 -57.5q0 -91 -98 -91zM-194 10l-30 17l391 632l32 -20zM178 -100v57h-147v31l89 224h38
l-87 -222h107l-1 88h36v-88h37v-33h-37v-57h-35z" />
    <glyph glyph-name="questiondown" unicode="&#xbf;" horiz-adv-x="446" 
d="M280 500v-79h-41v79h41zM276 312q1 -15 1 -41q0 -42 -25 -75.5t-94 -95.5q-53 -48 -66.5 -75.5t-13.5 -83.5q0 -59 39.5 -86.5t125.5 -27.5q34 0 162 27l4 -34q-111 -27 -157 -27q-109 0 -158.5 37.5t-49.5 125.5q0 56 18 87.5t75 81.5q64 56 85 86t21 63v38h33z" />
    <glyph glyph-name="Agrave" unicode="&#xc0;" horiz-adv-x="592" 
d="M385 826l-17 -27l-191 93l16 30zM529 0l-66 215h-334l-66 -215h-34l214 700h33l6 5l-2 -5h32l-2 5l6 -5h33l214 -700h-34zM140 250h312l-2 7l1 -1l-129 410h-52l-128 -409z" />
    <glyph glyph-name="Aacute" unicode="&#xc1;" horiz-adv-x="592" 
d="M410 892l-191 -93l-17 27l192 96zM529 0l-66 215h-334l-66 -215h-34l214 700h33l6 5l-2 -5h32l-2 5l6 -5h33l214 -700h-34zM140 250h312l-2 7l1 -1l-129 410h-52l-128 -409z" />
    <glyph glyph-name="Acircumflex" unicode="&#xc2;" horiz-adv-x="592" 
d="M294 904l-104 -96h-45l134 126h30l134 -126h-45zM529 0l-66 215h-334l-66 -215h-34l214 700h33l6 5l-2 -5h32l-2 5l6 -5h33l214 -700h-34zM140 250h312l-2 7l1 -1l-129 410h-52l-128 -409z" />
    <glyph glyph-name="Atilde" unicode="&#xc3;" horiz-adv-x="592" 
d="M163 854l-13 -14l-9 30q48 54 82 54q19 0 80 -30t70 -30q18 0 52 37l11 12l10 -29q-20 -24 -34.5 -36t-21.5 -13.5t-18 -1.5q-18 0 -79 30q-57 29 -73 29q-22 0 -57 -38zM529 0l-66 215h-334l-66 -215h-34l214 700h33l6 5l-2 -5h32l-2 5l6 -5h33l214 -700h-34zM140 250
h312l-2 7l1 -1l-129 410h-52l-128 -409z" />
    <glyph glyph-name="Adieresis" unicode="&#xc4;" horiz-adv-x="592" 
d="M216 899v-62h-37v62h37zM410 899v-62h-35v62h35zM529 0l-66 215h-334l-66 -215h-34l214 700h33l6 5l-2 -5h32l-2 5l6 -5h33l214 -700h-34zM140 250h312l-2 7l1 -1l-129 410h-52l-128 -409z" />
    <glyph glyph-name="Aring" unicode="&#xc5;" horiz-adv-x="592" 
d="M529 0l-66 215h-334l-66 -215h-34l208 681q-41 25 -41 79q0 41 27 66t72 25q44 0 70 -25t26 -66q0 -52 -37 -77l209 -683h-34zM295 821q-34 0 -49 -15t-15 -46q0 -48 40 -60h5l6 5l-2 -5h32l-2 5l6 -5h3q40 12 40 60q0 61 -64 61zM140 250h312l-2 7l1 -1l-129 410h-52
l-128 -409z" />
    <glyph glyph-name="AE" unicode="&#xc6;" horiz-adv-x="879" 
d="M25 0l251 700h552v-34h-373v-288h313v-34h-313v-310h373v-34h-409v214h-277l-77 -214h-40zM155 249h264l1 417h-115z" />
    <glyph glyph-name="Ccedilla" unicode="&#xc7;" horiz-adv-x="545" 
d="M326 -57q57 1 80 -14.5t23 -54.5q0 -75 -81 -75q-46 0 -70 3l-11 1l2 28q60 -4 78 -4q48 0 48 46q0 42 -48 42h-54v77q-55 4 -95 22t-65.5 47t-40 74t-20 96t-5.5 121q0 69 5 118t21 97t44 77t75 47t113 18q74 0 176 -19l-2 -35q-105 20 -183 20q-65 0 -105 -16
t-63.5 -57t-32 -100t-9.5 -156q-1 -67 3 -111.5t17 -88t37.5 -67.5t66.5 -39t103 -15q67 0 166 21l3 -35q-105 -20 -176 -20v-48z" />
    <glyph glyph-name="Egrave" unicode="&#xc8;" horiz-adv-x="552" 
d="M397 826l-17 -27l-191 93l16 30zM129 667v-293h312v-33h-312v-308h372v-33h-409v700h409v-33h-372z" />
    <glyph glyph-name="Eacute" unicode="&#xc9;" horiz-adv-x="552" 
d="M398 892l-191 -93l-17 27l192 96zM129 667v-293h312v-33h-312v-308h372v-33h-409v700h409v-33h-372z" />
    <glyph glyph-name="Ecircumflex" unicode="&#xca;" horiz-adv-x="552" 
d="M291 904l-104 -96h-45l134 126h30l134 -126h-45zM129 667v-293h312v-33h-312v-308h372v-33h-409v700h409v-33h-372z" />
    <glyph glyph-name="Edieresis" unicode="&#xcb;" horiz-adv-x="552" 
d="M216 899v-62h-37v62h37zM410 899v-62h-35v62h35zM129 667v-293h312v-33h-312v-308h372v-33h-409v700h409v-33h-372z" />
    <glyph glyph-name="Igrave" unicode="&#xcc;" horiz-adv-x="219" 
d="M174 799l-191 93l16 30l192 -96zM92 0v700h37v-700h-37z" />
    <glyph glyph-name="Iacute" unicode="&#xcd;" horiz-adv-x="219" 
d="M32 799l-17 27l192 96l16 -30zM92 0v700h37v-700h-37z" />
    <glyph glyph-name="Icircumflex" unicode="&#xce;" horiz-adv-x="219" 
d="M-45 808l134 126h30l134 -126h-45l-104 96l-104 -96h-45zM92 0v700h37v-700h-37z" />
    <glyph glyph-name="Idieresis" unicode="&#xcf;" horiz-adv-x="219" 
d="M-7 837v62h37v-62h-37zM189 837v62h35v-62h-35zM92 0v700h37v-700h-37z" />
    <glyph glyph-name="Eth" unicode="&#xd0;" horiz-adv-x="650" 
d="M94 0v334h-77v33h77v333h260q115 0 174.5 -92t59.5 -247q0 -177 -66.5 -269t-167.5 -92h-260zM130 34h224q94 0 145 90.5t51 237.5q0 153 -55.5 228.5t-140.5 75.5h-224v-299h177v-33h-177v-300z" />
    <glyph glyph-name="Ntilde" unicode="&#xd1;" horiz-adv-x="665" 
d="M201 854l-13 -14l-9 30q48 54 82 54q19 0 80 -30t70 -30q18 0 52 37l11 12l10 -29q-20 -24 -34.5 -36t-21.5 -13.5t-18 -1.5q-18 0 -79 30q-57 29 -73 29q-22 0 -57 -38zM538 700h34v-700h-83l-341 667h-19v-667h-37v700h85l338 -667h23v667z" />
    <glyph glyph-name="Ograve" unicode="&#xd2;" horiz-adv-x="665" 
d="M418 799l-191 93l16 30l192 -96zM334 -9q-152 0 -210 82.5t-58 273.5q0 190 60 276t207 86q148 0 208 -86t60 -279q0 -196 -58 -274.5t-209 -78.5zM334 25q133 0 181 71t48 248q0 178 -50 254.5t-180 76.5q-131 0 -180.5 -75.5t-49.5 -252.5q0 -182 49.5 -252t181.5 -70z
" />
    <glyph glyph-name="Oacute" unicode="&#xd3;" horiz-adv-x="665" 
d="M235 799l-17 27l192 96l16 -30zM334 -9q-152 0 -210 82.5t-58 273.5q0 190 60 276t207 86q148 0 208 -86t60 -279q0 -196 -58 -274.5t-209 -78.5zM334 25q133 0 181 71t48 248q0 178 -50 254.5t-180 76.5q-131 0 -180.5 -75.5t-49.5 -252.5q0 -182 49.5 -252t181.5 -70z
" />
    <glyph glyph-name="Ocircumflex" unicode="&#xd4;" horiz-adv-x="665" 
d="M183 808l134 126h30l134 -126h-45l-104 96l-104 -96h-45zM334 -9q-152 0 -210 82.5t-58 273.5q0 190 60 276t207 86q148 0 208 -86t60 -279q0 -196 -58 -274.5t-209 -78.5zM334 25q133 0 181 71t48 248q0 178 -50 254.5t-180 76.5q-131 0 -180.5 -75.5t-49.5 -252.5
q0 -182 49.5 -252t181.5 -70z" />
    <glyph glyph-name="Otilde" unicode="&#xd5;" horiz-adv-x="665" 
d="M407 833q-17 0 -79 30q-57 29 -73 29q-22 0 -57 -38l-13 -14l-9 30q48 54 82 54q18 0 80 -30t70 -30q18 0 52 37l11 12l10 -29q-20 -24 -34.5 -36t-21.5 -13.5t-18 -1.5zM334 -9q-152 0 -210 82.5t-58 273.5q0 190 60 276t207 86q148 0 208 -86t60 -279
q0 -196 -58 -274.5t-209 -78.5zM334 25q133 0 181 71t48 248q0 178 -50 254.5t-180 76.5q-131 0 -180.5 -75.5t-49.5 -252.5q0 -182 49.5 -252t181.5 -70z" />
    <glyph glyph-name="Odieresis" unicode="&#xd6;" horiz-adv-x="665" 
d="M216 837v62h37v-62h-37zM412 837v62h35v-62h-35zM334 -9q-152 0 -210 82.5t-58 273.5q0 190 60 276t207 86q148 0 208 -86t60 -279q0 -196 -58 -274.5t-209 -78.5zM334 25q133 0 181 71t48 248q0 178 -50 254.5t-180 76.5q-131 0 -180.5 -75.5t-49.5 -252.5
q0 -182 49.5 -252t181.5 -70z" />
    <glyph glyph-name="multiply" unicode="&#xd7;" horiz-adv-x="561" 
d="M413 425l-169 -169l169 -170l-23 -23l-169 170l-170 -170l-23 23l170 170l-170 169l23 23l170 -169l169 169z" />
    <glyph glyph-name="Oslash" unicode="&#xd8;" horiz-adv-x="665" 
d="M140 -109l-29 11l59 127q-57 39 -80.5 114.5t-23.5 204.5q0 189 60 275t207 86q87 0 142 -27l53 110l30 -12l-55 -118q98 -75 98 -314q0 -196 -57.5 -276.5t-210.5 -80.5q-79 0 -136 22zM179 51l282 597q-44 27 -128 27q-134 0 -182 -77t-48 -281q0 -202 76 -266zM333 25
q136 0 183 72t47 272q0 195 -71 271l-279 -595q48 -20 120 -20z" />
    <glyph glyph-name="Ugrave" unicode="&#xd9;" horiz-adv-x="637" 
d="M401 799l-191 93l16 30l192 -96zM317 -9q-116 0 -172.5 49t-56.5 157v503h36v-505q0 -170 190 -170q101 0 151 40t50 130v505h34v-503q0 -108 -58 -157t-174 -49z" />
    <glyph glyph-name="Uacute" unicode="&#xda;" horiz-adv-x="637" 
d="M232 799l-17 27l192 96l16 -30zM317 -9q-116 0 -172.5 49t-56.5 157v503h36v-505q0 -170 190 -170q101 0 151 40t50 130v505h34v-503q0 -108 -58 -157t-174 -49z" />
    <glyph glyph-name="Ucircumflex" unicode="&#xdb;" horiz-adv-x="637" 
d="M168 808l134 126h30l134 -126h-45l-104 96l-104 -96h-45zM317 -9q-116 0 -172.5 49t-56.5 157v503h36v-505q0 -170 190 -170q101 0 151 40t50 130v505h34v-503q0 -108 -58 -157t-174 -49z" />
    <glyph glyph-name="Udieresis" unicode="&#xdc;" horiz-adv-x="637" 
d="M202 837v62h37v-62h-37zM398 837v62h35v-62h-35zM317 -9q-116 0 -172.5 49t-56.5 157v503h36v-505q0 -170 190 -170q101 0 151 40t50 130v505h34v-503q0 -108 -58 -157t-174 -49z" />
    <glyph glyph-name="Yacute" unicode="&#xdd;" horiz-adv-x="525" 
d="M206 799l-17 27l192 96l16 -30zM245 0v302l-228 398h43l203 -359l203 359h43l-228 -398v-302h-36z" />
    <glyph glyph-name="Thorn" unicode="&#xde;" horiz-adv-x="601" 
d="M92 0v700h37v-121h218q107 0 157.5 -52t50.5 -162q0 -229 -208 -229h-218v-136h-37zM129 170h217q86 0 128 48t42 148q0 94 -40 135.5t-130 41.5h-217v-373z" />
    <glyph glyph-name="germandbls" unicode="&#xdf;" horiz-adv-x="549" 
d="M306 -9q-39 0 -97 7l-19 3l3 34q80 -11 114 -11q89 0 125 36t36 109q0 63 -19 91t-95 64q-65 33 -84.5 51.5t-19.5 46.5q0 26 16 40.5t58 34.5q39 18 49 40t10 74q0 50 -27 72.5t-106 22.5q-77 0 -106.5 -33t-29.5 -126v-547h-35v560q0 100 39 139.5t134 39.5
q92 0 130.5 -32t38.5 -104q0 -98 -72 -129q-24 -11 -34 -16.5t-18.5 -14.5t-8.5 -20q0 -4 -1 -9q-1 -6 3 -9.5t31 -19.5q11 -7 18 -11t20.5 -12.5t26.5 -16.5q67 -34 93.5 -67.5t26.5 -91.5q0 -104 -46 -149.5t-154 -45.5z" />
    <glyph glyph-name="agrave" unicode="&#xe0;" horiz-adv-x="494" 
d="M326 609l-193 92l16 30l192 -95zM179 -9q-63 0 -97.5 38t-34.5 105t33.5 102.5t105.5 45.5l190 19v51q0 62 -26 92.5t-71 30.5q-65 0 -203 -17l-3 33q104 18 189 18q77 0 113.5 -38.5t36.5 -118.5v-288q1 -15 21 -26.5t53 -15.5l-2 -31q-33 0 -61.5 12t-41.5 32
q-100 -44 -202 -44zM180 24q87 0 168 30l28 11v203l-186 -18q-55 -4 -79.5 -30.5t-24.5 -79.5q0 -116 94 -116z" />
    <glyph glyph-name="aacute" unicode="&#xe1;" horiz-adv-x="494" 
d="M148 609l-15 27l192 95l17 -30zM179 -9q-63 0 -97.5 38t-34.5 105t33.5 102.5t105.5 45.5l190 19v51q0 62 -26 92.5t-71 30.5q-65 0 -203 -17l-3 33q104 18 189 18q77 0 113.5 -38.5t36.5 -118.5v-288q1 -15 21 -26.5t53 -15.5l-2 -31q-33 0 -61.5 12t-41.5 32
q-100 -44 -202 -44zM180 24q87 0 168 30l28 11v203l-186 -18q-55 -4 -79.5 -30.5t-24.5 -79.5q0 -116 94 -116z" />
    <glyph glyph-name="acircumflex" unicode="&#xe2;" horiz-adv-x="494" 
d="M103 600l121 133h29l122 -133h-43l-91 100l-95 -100h-43zM179 -9q-63 0 -97.5 38t-34.5 105t33.5 102.5t105.5 45.5l190 19v51q0 62 -26 92.5t-71 30.5q-65 0 -203 -17l-3 33q104 18 189 18q77 0 113.5 -38.5t36.5 -118.5v-288q1 -15 21 -26.5t53 -15.5l-2 -31
q-33 0 -61.5 12t-41.5 32q-100 -44 -202 -44zM180 24q87 0 168 30l28 11v203l-186 -18q-55 -4 -79.5 -30.5t-24.5 -79.5q0 -116 94 -116z" />
    <glyph glyph-name="atilde" unicode="&#xe3;" horiz-adv-x="494" 
d="M319 630q-21 0 -74 28q-58 26 -69 26q-20 0 -60 -34l-13 -12l-10 30q46 47 82 47q18 0 76 -26q59 -27 68 -27q15 0 52 32l13 9l9 -29q-28 -29 -42 -36.5t-32 -7.5zM179 -9q-63 0 -97.5 38t-34.5 105t33.5 102.5t105.5 45.5l190 19v51q0 62 -26 92.5t-71 30.5
q-65 0 -203 -17l-3 33q104 18 189 18q77 0 113.5 -38.5t36.5 -118.5v-288q1 -15 21 -26.5t53 -15.5l-2 -31q-33 0 -61.5 12t-41.5 32q-100 -44 -202 -44zM180 24q87 0 168 30l28 11v203l-186 -18q-55 -4 -79.5 -30.5t-24.5 -79.5q0 -116 94 -116z" />
    <glyph glyph-name="adieresis" unicode="&#xe4;" horiz-adv-x="494" 
d="M132 638v62h35v-62h-35zM321 638v62h37v-62h-37zM179 -9q-63 0 -97.5 38t-34.5 105t33.5 102.5t105.5 45.5l190 19v51q0 62 -26 92.5t-71 30.5q-65 0 -203 -17l-3 33q104 18 189 18q77 0 113.5 -38.5t36.5 -118.5v-288q1 -15 21 -26.5t53 -15.5l-2 -31q-33 0 -61.5 12
t-41.5 32q-100 -44 -202 -44zM180 24q87 0 168 30l28 11v203l-186 -18q-55 -4 -79.5 -30.5t-24.5 -79.5q0 -116 94 -116z" />
    <glyph glyph-name="aring" unicode="&#xe5;" horiz-adv-x="494" 
d="M248 554q-38 0 -64 28t-26 69q0 39 26 66.5t64 27.5t64 -27.5t26 -66.5q0 -41 -26 -69t-64 -28zM248 586q26 0 44 19t18 46q0 26 -18.5 45t-43.5 19t-43.5 -19t-18.5 -45q0 -27 18 -46t44 -19zM179 -9q-63 0 -97.5 38t-34.5 105t33.5 102.5t105.5 45.5l190 19v51
q0 62 -26 92.5t-71 30.5q-65 0 -203 -17l-3 33q104 18 189 18q77 0 113.5 -38.5t36.5 -118.5v-288q1 -15 21 -26.5t53 -15.5l-2 -31q-33 0 -61.5 12t-41.5 32q-100 -44 -202 -44zM180 24q87 0 168 30l28 11v203l-186 -18q-55 -4 -79.5 -30.5t-24.5 -79.5q0 -116 94 -116z
" />
    <glyph glyph-name="ae" unicode="&#xe6;" horiz-adv-x="817" 
d="M170 -9q-123 0 -123 150q0 75 38 103.5t148 41.5l143 15v52q0 122 -108 122q-55 0 -161 -8l-30 -2l-2 34q103 10 186 10q117 0 144 -97q45 97 166 97q102 0 148.5 -57t46.5 -183v-34h-354q-1 -212 142 -212q63 0 161 7l29 2l2 -33q-117 -8 -197 -8q-84 0 -130 58l-38 -16
q-90 -42 -211 -42zM412 268h317q0 112 -36 160.5t-115 48.5q-166 0 -166 -209zM177 23q37 0 84.5 10.5t79 23t32.5 18.5v193l-183 -18q-55 -5 -79.5 -31.5t-24.5 -80.5q0 -115 91 -115z" />
    <glyph glyph-name="ccedilla" unicode="&#xe7;" horiz-adv-x="429" 
d="M245 -57q57 1 80 -14.5t23 -54.5q0 -75 -81 -75q-46 0 -70 3l-11 1l2 28q60 -4 78 -4q48 0 48 46q0 42 -48 42h-54v79q-86 10 -119 69.5t-33 186.5q0 29 0.5 44.5t4 47t9.5 50.5t19.5 44t32.5 39.5t49 24.5t68 10q64 0 143 -12l-3 -31q-76 10 -123 10q-93 0 -128 -49
t-35 -182q0 -125 34.5 -174t134.5 -49l119 10l2 -32q-93 -10 -129 -10h-13v-48z" />
    <glyph glyph-name="egrave" unicode="&#xe8;" horiz-adv-x="502" 
d="M322 609l-193 92l16 30l192 -95zM260 -9q-111 0 -156 59.5t-45 185.5q0 140 48.5 206.5t153.5 66.5q96 0 142 -58t46 -182v-33h-354q-2 -117 36.5 -165t139.5 -48q57 0 129 6l30 3l2 -33q-122 -8 -172 -8zM94 268h318q0 111 -36 160t-114 49q-167 0 -168 -209z" />
    <glyph glyph-name="eacute" unicode="&#xe9;" horiz-adv-x="502" 
d="M187 609l-15 27l192 95l17 -30zM260 -9q-111 0 -156 59.5t-45 185.5q0 140 48.5 206.5t153.5 66.5q96 0 142 -58t46 -182v-33h-354q-2 -117 36.5 -165t139.5 -48q57 0 129 6l30 3l2 -33q-122 -8 -172 -8zM94 268h318q0 111 -36 160t-114 49q-167 0 -168 -209z" />
    <glyph glyph-name="ecircumflex" unicode="&#xea;" horiz-adv-x="502" 
d="M127 600l121 133h29l122 -133h-43l-91 100l-95 -100h-43zM260 -9q-111 0 -156 59.5t-45 185.5q0 140 48.5 206.5t153.5 66.5q96 0 142 -58t46 -182v-33h-354q-2 -117 36.5 -165t139.5 -48q57 0 129 6l30 3l2 -33q-122 -8 -172 -8zM94 268h318q0 111 -36 160t-114 49
q-167 0 -168 -209z" />
    <glyph glyph-name="edieresis" unicode="&#xeb;" horiz-adv-x="502" 
d="M144 638v62h35v-62h-35zM333 638v62h37v-62h-37zM260 -9q-111 0 -156 59.5t-45 185.5q0 140 48.5 206.5t153.5 66.5q96 0 142 -58t46 -182v-33h-354q-2 -117 36.5 -165t139.5 -48q57 0 129 6l30 3l2 -33q-122 -8 -172 -8zM94 268h318q0 111 -36 160t-114 49
q-167 0 -168 -209z" />
    <glyph glyph-name="igrave" unicode="&#xec;" horiz-adv-x="191" 
d="M133 609l-193 92l16 30l192 -95zM79 0v500h34v-500h-34z" />
    <glyph glyph-name="iacute" unicode="&#xed;" horiz-adv-x="191" 
d="M58 609l-15 27l192 95l17 -30zM79 0v500h34v-500h-34z" />
    <glyph glyph-name="icircumflex" unicode="&#xee;" horiz-adv-x="191" 
d="M-40 600l121 133h29l122 -133h-43l-91 100l-95 -100h-43zM79 0v500h34v-500h-34z" />
    <glyph glyph-name="idieresis" unicode="&#xef;" horiz-adv-x="191" 
d="M-20 638v62h35v-62h-35zM169 638v62h37v-62h-37zM79 0v500h34v-500h-34z" />
    <glyph glyph-name="eth" unicode="&#xf0;" horiz-adv-x="535" 
d="M260 -9q-100 0 -157.5 58.5t-57.5 156.5q0 102 55 160.5t149 58.5q68 0 158 -33l31 -11q-6 154 -169 252l-118 -78l-19 28l108 73q-64 31 -135 52l13 31q87 -27 149 -64l105 70l20 -27l-92 -63q175 -103 175 -302q0 -197 -50 -279.5t-165 -82.5zM270 24q92 0 130 70.5
t39 251.5q-120 46 -182 46q-85 0 -130 -48.5t-45 -137.5q0 -84 47 -133t141 -49z" />
    <glyph glyph-name="ntilde" unicode="&#xf1;" horiz-adv-x="526" 
d="M351 630q-21 0 -74 28q-58 26 -69 26q-20 0 -60 -34l-13 -12l-10 30q46 47 82 47q18 0 76 -26q59 -27 68 -27q15 0 52 32l13 9l9 -29q-28 -29 -42 -36.5t-32 -7.5zM79 0v500h34v-40q93 49 181 49q95 0 127 -51.5t32 -198.5v-259h-34v259q0 127 -24 172.5t-95 45.5
q-45 0 -91.5 -12t-70.5 -25l-24 -13v-427h-35z" />
    <glyph glyph-name="ograve" unicode="&#xf2;" horiz-adv-x="525" 
d="M346 609l-193 92l16 30l192 -95zM263 -9q-122 0 -163 53.5t-41 199.5q0 153 43 209t161 56q119 0 161 -56.5t42 -208.5q0 -146 -40 -199.5t-163 -53.5zM264 24q103 0 133.5 45.5t30.5 174.5q0 138 -32 185t-132 47q-101 0 -134 -47t-33 -185q0 -128 32 -174t135 -46z" />
    <glyph glyph-name="oacute" unicode="&#xf3;" horiz-adv-x="525" 
d="M194 609l-15 27l192 95l17 -30zM263 -9q-122 0 -163 53.5t-41 199.5q0 153 43 209t161 56q119 0 161 -56.5t42 -208.5q0 -146 -40 -199.5t-163 -53.5zM264 24q103 0 133.5 45.5t30.5 174.5q0 138 -32 185t-132 47q-101 0 -134 -47t-33 -185q0 -128 32 -174t135 -46z" />
    <glyph glyph-name="ocircumflex" unicode="&#xf4;" horiz-adv-x="525" 
d="M127 600l121 133h29l122 -133h-43l-91 100l-95 -100h-43zM263 -9q-122 0 -163 53.5t-41 199.5q0 153 43 209t161 56q119 0 161 -56.5t42 -208.5q0 -146 -40 -199.5t-163 -53.5zM264 24q103 0 133.5 45.5t30.5 174.5q0 138 -32 185t-132 47q-101 0 -134 -47t-33 -185
q0 -128 32 -174t135 -46z" />
    <glyph glyph-name="otilde" unicode="&#xf5;" horiz-adv-x="525" 
d="M341 630q-21 0 -74 28q-58 26 -69 26q-20 0 -60 -34l-13 -12l-10 30q46 47 82 47q18 0 76 -26q59 -27 68 -27q15 0 52 32l13 9l9 -29q-28 -29 -42 -36.5t-32 -7.5zM263 -9q-122 0 -163 53.5t-41 199.5q0 153 43 209t161 56q119 0 161 -56.5t42 -208.5q0 -146 -40 -199.5
t-163 -53.5zM264 24q103 0 133.5 45.5t30.5 174.5q0 138 -32 185t-132 47q-101 0 -134 -47t-33 -185q0 -128 32 -174t135 -46z" />
    <glyph glyph-name="odieresis" unicode="&#xf6;" horiz-adv-x="525" 
d="M146 638v62h35v-62h-35zM335 638v62h37v-62h-37zM263 -9q-122 0 -163 53.5t-41 199.5q0 153 43 209t161 56q119 0 161 -56.5t42 -208.5q0 -146 -40 -199.5t-163 -53.5zM264 24q103 0 133.5 45.5t30.5 174.5q0 138 -32 185t-132 47q-101 0 -134 -47t-33 -185
q0 -128 32 -174t135 -46z" />
    <glyph glyph-name="divide" unicode="&#xf7;" 
d="M261 605v81h37v-81h-37zM167 341v42h225v-42h-225zM261 39v80h37v-80h-37z" />
    <glyph glyph-name="oslash" unicode="&#xf8;" horiz-adv-x="525" 
d="M134 -115l-30 10l44 113q-50 25 -69.5 82.5t-19.5 168.5q0 138 46 194t158 56q43 0 86 -10l45 106l29 -11l-44 -108q87 -44 87 -227q0 -154 -40 -211t-163 -57q-42 0 -85 10zM159 29l178 438l-74 9q-93 0 -129.5 -44.5t-36.5 -148.5q0 -73 2.5 -112t17 -81t42.5 -61z
M263 24q104 0 134.5 47.5t30.5 200.5q0 150 -60 190l-177 -431q30 -7 72 -7z" />
    <glyph glyph-name="ugrave" unicode="&#xf9;" horiz-adv-x="516" 
d="M318 609l-193 92l16 30l192 -95zM231 -9q-94 0 -125.5 50.5t-31.5 198.5v260h35v-257q0 -131 24 -175.5t98 -44.5q92 0 171 50v427h36v-500h-37v40q-77 -49 -170 -49z" />
    <glyph glyph-name="uacute" unicode="&#xfa;" horiz-adv-x="516" 
d="M187 609l-15 27l192 95l17 -30zM231 -9q-94 0 -125.5 50.5t-31.5 198.5v260h35v-257q0 -131 24 -175.5t98 -44.5q92 0 171 50v427h36v-500h-37v40q-77 -49 -170 -49z" />
    <glyph glyph-name="ucircumflex" unicode="&#xfb;" horiz-adv-x="516" 
d="M120 600l121 133h29l122 -133h-43l-91 100l-95 -100h-43zM231 -9q-94 0 -125.5 50.5t-31.5 198.5v260h35v-257q0 -131 24 -175.5t98 -44.5q92 0 171 50v427h36v-500h-37v40q-77 -49 -170 -49z" />
    <glyph glyph-name="udieresis" unicode="&#xfc;" horiz-adv-x="516" 
d="M149 638v62h35v-62h-35zM338 638v62h37v-62h-37zM231 -9q-94 0 -125.5 50.5t-31.5 198.5v260h35v-257q0 -131 24 -175.5t98 -44.5q92 0 171 50v427h36v-500h-37v40q-77 -49 -170 -49z" />
    <glyph glyph-name="yacute" unicode="&#xfd;" horiz-adv-x="472" 
d="M190 609l-15 27l192 95l17 -30zM175 -230l71 230h-60l-155 500h37l148 -468h39l150 468h37l-230 -730h-37z" />
    <glyph glyph-name="thorn" unicode="&#xfe;" horiz-adv-x="516" 
d="M79 -230v960h35v-262q84 41 172 41q97 0 133.5 -56.5t36.5 -198.5q0 -144 -48.5 -203.5t-180.5 -59.5l-113 7v-228h-35zM227 22q113 0 152 51t39 177q0 131 -27.5 179t-104.5 48q-71 0 -149 -30l-23 -10v-409q78 -6 113 -6z" />
    <glyph glyph-name="ydieresis" unicode="&#xff;" horiz-adv-x="472" 
d="M121 638v62h35v-62h-35zM310 638v62h37v-62h-37zM175 -230l71 230h-60l-155 500h37l148 -468h39l150 468h37l-230 -730h-37z" />
    <glyph glyph-name="Amacron" unicode="&#x100;" horiz-adv-x="592" 
d="M439 863v-31h-287v31h287zM529 0l-66 215h-334l-66 -215h-34l214 700h33l6 5l-2 -5h32l-2 5l6 -5h33l214 -700h-34zM140 250h312l-2 7l1 -1l-129 410h-52l-128 -409z" />
    <glyph glyph-name="amacron" unicode="&#x101;" horiz-adv-x="494" 
d="M115 642v32h267v-32h-267zM179 -9q-63 0 -97.5 38t-34.5 105t33.5 102.5t105.5 45.5l190 19v51q0 62 -26 92.5t-71 30.5q-65 0 -203 -17l-3 33q104 18 189 18q77 0 113.5 -38.5t36.5 -118.5v-288q1 -15 21 -26.5t53 -15.5l-2 -31q-33 0 -61.5 12t-41.5 32
q-100 -44 -202 -44zM180 24q87 0 168 30l28 11v203l-186 -18q-55 -4 -79.5 -30.5t-24.5 -79.5q0 -116 94 -116z" />
    <glyph glyph-name="Abreve" unicode="&#x102;" horiz-adv-x="592" 
d="M296 806q-59 0 -99 32.5t-39 84.5h34q-1 -37 30 -62t75 -25q43 0 72.5 24.5t28.5 62.5h36q1 -52 -39 -84.5t-99 -32.5zM529 0l-66 215h-334l-66 -215h-34l214 700h33l6 5l-2 -5h32l-2 5l6 -5h33l214 -700h-34zM140 250h312l-2 7l1 -1l-129 410h-52l-128 -409z" />
    <glyph glyph-name="abreve" unicode="&#x103;" horiz-adv-x="497" 
d="M253 595q-61 0 -100.5 36.5t-38.5 91.5h36q1 -43 28 -69.5t74 -26.5t75.5 27t27.5 69h35q1 -55 -38 -91.5t-99 -36.5zM175 -9q-61 0 -94.5 37.5t-33.5 105.5t34 103.5t105 43.5l190 20v52q0 63 -27 92.5t-85 29.5q-77 0 -189 -17l-2 33l30 5q85 13 163 13q146 0 146 -157
v-286q1 -14 21.5 -26t51.5 -16v-33q-31 0 -61.5 11.5t-42.5 29.5l-26 -11q-25 -9 -80 -19.5t-100 -10.5zM177 23q98 0 199 40v205l-186 -18q-104 -10 -104 -112q0 -54 24 -84.5t67 -30.5z" />
    <glyph glyph-name="Aogonek" unicode="&#x104;" horiz-adv-x="592" 
d="M585 -158l4 -34q-34 -7 -68 -7q-31 0 -54 21.5t-23 50.5q0 48 63 113l21 19l-65 210h-334l-66 -215h-34l214 700h33l6 5l-2 -5h32l-2 5l6 -5h33l214 -700h-2q-78 -87 -78 -117q0 -20 14 -34.5t33 -14.5zM140 250h312l-2 7l1 -1l-129 410h-52l-128 -409z" />
    <glyph glyph-name="aogonek" unicode="&#x105;" horiz-adv-x="494" 
d="M483 -158l4 -34q-34 -7 -68 -7q-31 0 -54 21.5t-23 50.5q0 48 63 113l18 17q-29 11 -42 32q-100 -44 -202 -44q-63 0 -97.5 38t-34.5 105t33.5 102.5t105.5 45.5l190 19v51q0 62 -26 92.5t-71 30.5q-65 0 -203 -17l-3 33q104 18 189 18q77 0 113.5 -38.5t36.5 -118.5
v-288q1 -15 21 -26.5t53 -15.5l-2 -31q-16 0 -30 3q-73 -82 -73 -111q0 -20 14 -34.5t33 -14.5zM376 65v203l-186 -18q-55 -4 -79.5 -30.5t-24.5 -79.5q0 -116 94 -116q87 0 168 30z" />
    <glyph glyph-name="Cacute" unicode="&#x106;" horiz-adv-x="545" 
d="M220 799l-17 27l192 96l16 -30zM326 -9q-79 0 -131 23t-79.5 72t-38 111t-10.5 155q0 69 5 118t21 97t44 77t75 47t113 18q74 0 176 -19l-2 -35q-105 20 -183 20q-65 0 -105 -16t-63.5 -57t-32 -100t-9.5 -156q-1 -67 3 -111.5t17 -88t37.5 -67.5t66.5 -39t103 -15
q67 0 166 21l3 -35q-105 -20 -176 -20z" />
    <glyph glyph-name="cacute" unicode="&#x107;" horiz-adv-x="429" 
d="M160 609l-15 27l192 95l17 -30zM258 -9q-113 0 -155.5 58.5t-42.5 200.5q0 29 0.5 44.5t4 47t9.5 50.5t19.5 44t32.5 39.5t49 24.5t68 10q64 0 143 -12l-3 -31q-76 10 -123 10q-93 0 -128 -49t-35 -182q0 -125 34.5 -174t134.5 -49l119 10l2 -32q-93 -10 -129 -10z" />
    <glyph glyph-name="Ccircumflex" unicode="&#x108;" horiz-adv-x="545" 
d="M169 808l134 126h30l134 -126h-45l-104 96l-104 -96h-45zM326 -9q-79 0 -131 23t-79.5 72t-38 111t-10.5 155q0 69 5 118t21 97t44 77t75 47t113 18q74 0 176 -19l-2 -35q-105 20 -183 20q-65 0 -105 -16t-63.5 -57t-32 -100t-9.5 -156q-1 -67 3 -111.5t17 -88
t37.5 -67.5t66.5 -39t103 -15q67 0 166 21l3 -35q-105 -20 -176 -20z" />
    <glyph glyph-name="ccircumflex" unicode="&#x109;" horiz-adv-x="429" 
d="M102 600l121 133h29l122 -133h-43l-91 100l-95 -100h-43zM258 -9q-113 0 -155.5 58.5t-42.5 200.5q0 29 0.5 44.5t4 47t9.5 50.5t19.5 44t32.5 39.5t49 24.5t68 10q64 0 143 -12l-3 -31q-76 10 -123 10q-93 0 -128 -49t-35 -182q0 -125 34.5 -174t134.5 -49l119 10l2 -32
q-93 -10 -129 -10z" />
    <glyph glyph-name="Cdotaccent" unicode="&#x10a;" horiz-adv-x="545" 
d="M279 829v55h34v-55h-34zM326 -9q-79 0 -131 23t-79.5 72t-38 111t-10.5 155q0 69 5 118t21 97t44 77t75 47t113 18q74 0 176 -19l-2 -35q-105 20 -183 20q-65 0 -105 -16t-63.5 -57t-32 -100t-9.5 -156q-1 -67 3 -111.5t17 -88t37.5 -67.5t66.5 -39t103 -15q67 0 166 21
l3 -35q-105 -20 -176 -20z" />
    <glyph glyph-name="cdotaccent" unicode="&#x10b;" horiz-adv-x="429" 
d="M230 644v55h34v-55h-34zM258 -9q-113 0 -155.5 58.5t-42.5 200.5q0 29 0.5 44.5t4 47t9.5 50.5t19.5 44t32.5 39.5t49 24.5t68 10q64 0 143 -12l-3 -31q-76 10 -123 10q-93 0 -128 -49t-35 -182q0 -125 34.5 -174t134.5 -49l119 10l2 -32q-93 -10 -129 -10z" />
    <glyph glyph-name="Ccaron" unicode="&#x10c;" horiz-adv-x="545" 
d="M285 808l-134 126h46l103 -96l104 96h46l-134 -126h-31zM326 -9q-79 0 -131 23t-79.5 72t-38 111t-10.5 155q0 69 5 118t21 97t44 77t75 47t113 18q74 0 176 -19l-2 -35q-105 20 -183 20q-65 0 -105 -16t-63.5 -57t-32 -100t-9.5 -156q-1 -67 3 -111.5t17 -88t37.5 -67.5
t66.5 -39t103 -15q67 0 166 21l3 -35q-105 -20 -176 -20z" />
    <glyph glyph-name="ccaron" unicode="&#x10d;" horiz-adv-x="429" 
d="M103 733h43l94 -101l91 101h43l-121 -133h-29zM258 -9q-113 0 -155.5 58.5t-42.5 200.5q0 29 0.5 44.5t4 47t9.5 50.5t19.5 44t32.5 39.5t49 24.5t68 10q64 0 143 -12l-3 -31q-76 10 -123 10q-93 0 -128 -49t-35 -182q0 -125 34.5 -174t134.5 -49l119 10l2 -32
q-93 -10 -129 -10z" />
    <glyph glyph-name="Dcaron" unicode="&#x10e;" horiz-adv-x="650" 
d="M303 808h-31l-134 126h46l103 -96l104 96h46zM351 700q234 0 234 -329q0 -189 -64.5 -280t-169.5 -91h-259v700h259zM351 33q85 0 141 83.5t56 237.5q0 157 -54 235t-143 78h-222v-634h222z" />
    <glyph glyph-name="dcaron" unicode="&#x10f;" horiz-adv-x="516" 
d="M228 -9q-92 0 -131 60.5t-39 188.5q0 144 50 206.5t170 62.5q72 0 123 -13v234h34v-730h-34v43q-79 -52 -173 -52zM499 497l37 189h37l-47 -189h-27zM230 23q39 0 82.5 13t64.5 26l24 13v389q-73 14 -129 14q-99 0 -137.5 -53.5t-38.5 -176.5q0 -112 30 -168.5t104 -56.5
z" />
    <glyph glyph-name="Dcroat" unicode="&#x110;" horiz-adv-x="650" 
d="M94 0v334h-77v33h77v333h260q115 0 174.5 -92t59.5 -247q0 -177 -66.5 -269t-167.5 -92h-260zM130 34h224q94 0 145 90.5t51 237.5q0 153 -55.5 228.5t-140.5 75.5h-224v-299h177v-33h-177v-300z" />
    <glyph glyph-name="dcroat" unicode="&#x111;" horiz-adv-x="515" 
d="M236 -9q-35 0 -52 3t-42 16q-27 14 -43 39t-28 74q-13 48 -13 119q0 139 48 203t163 64q57 0 132 -12v125h-173v32h173v76h35v-76h59v-32h-59v-622h-35v42q-29 -19 -81 -35t-84 -16zM234 23q30 0 73.5 12.5t69.5 26.5l24 13v390q-78 12 -132 12q-98 0 -136 -55t-38 -180
q0 -144 46 -186q21 -20 40.5 -26.5t52.5 -6.5z" />
    <glyph glyph-name="Emacron" unicode="&#x112;" horiz-adv-x="552" 
d="M440 863v-31h-287v31h287zM129 667v-293h312v-33h-312v-308h372v-33h-409v700h409v-33h-372z" />
    <glyph glyph-name="emacron" unicode="&#x113;" horiz-adv-x="502" 
d="M130 642v32h267v-32h-267zM260 -9q-111 0 -156 59.5t-45 185.5q0 140 48.5 206.5t153.5 66.5q96 0 142 -58t46 -182v-33h-354q-2 -117 36.5 -165t139.5 -48q57 0 129 6l30 3l2 -33q-122 -8 -172 -8zM94 268h318q0 111 -36 160t-114 49q-167 0 -168 -209z" />
    <glyph glyph-name="Ebreve" unicode="&#x114;" horiz-adv-x="552" 
d="M307 806q-59 0 -99 32.5t-39 84.5h34q-1 -37 30 -62t75 -25q43 0 72.5 24.5t28.5 62.5h36q1 -52 -39 -84.5t-99 -32.5zM129 667v-293h312v-33h-312v-308h372v-33h-409v700h409v-33h-372z" />
    <glyph glyph-name="ebreve" unicode="&#x115;" horiz-adv-x="502" 
d="M256 595q-62 0 -101 36t-38 92h34q2 -44 29.5 -70t75.5 -26q46 0 74.5 27t26.5 69h36q1 -56 -37.5 -92t-99.5 -36zM260 -9q-111 0 -156 59.5t-45 185.5q0 140 48.5 206.5t153.5 66.5q96 0 142 -58t46 -182v-33h-354q-2 -117 36.5 -165t139.5 -48q57 0 129 6l30 3l2 -33
q-122 -8 -172 -8zM94 268h318q0 111 -36 160t-114 49q-167 0 -168 -209z" />
    <glyph glyph-name="Edotaccent" unicode="&#x116;" horiz-adv-x="552" 
d="M312 879v-55h-34v55h34zM129 667v-293h312v-33h-312v-308h372v-33h-409v700h409v-33h-372z" />
    <glyph glyph-name="edotaccent" unicode="&#x117;" horiz-adv-x="502" 
d="M235 644v55h34v-55h-34zM260 -9q-111 0 -156 59.5t-45 185.5q0 140 48.5 206.5t153.5 66.5q96 0 142 -58t46 -182v-33h-354q-2 -117 36.5 -165t139.5 -48q57 0 129 6l30 3l2 -33q-122 -8 -172 -8zM94 268h318q0 111 -36 160t-114 49q-167 0 -168 -209z" />
    <glyph glyph-name="Eogonek" unicode="&#x118;" horiz-adv-x="552" 
d="M129 667v-293h312v-33h-312v-308h372v-33h-31q-78 -87 -78 -117q0 -20 14 -34.5t33 -14.5l55 8l4 -34q-34 -7 -68 -7q-31 0 -54 21.5t-23 50.5q0 48 63 113l15 14h-339v700h409v-33h-372z" />
    <glyph glyph-name="eogonek" unicode="&#x119;" horiz-adv-x="502" 
d="M449 236h-354q-2 -117 36.5 -165t139.5 -48q57 0 129 6l30 3l2 -33q-3 0 -8.5 -0.5t-8.5 -0.5q-76 -85 -76 -115q0 -20 14 -34.5t33 -14.5l55 8l4 -34q-34 -7 -68 -7q-31 0 -54 21.5t-23 50.5q0 48 63 113l10 9q-100 -4 -113 -4q-111 0 -156 59.5t-45 185.5
q0 140 48.5 206.5t153.5 66.5q96 0 142 -58t46 -182v-33zM94 268h318q0 111 -36 160t-114 49q-167 0 -168 -209z" />
    <glyph glyph-name="Ecaron" unicode="&#x11a;" horiz-adv-x="552" 
d="M313 808h-31l-134 126h46l103 -96l104 96h46zM129 667v-293h312v-33h-312v-308h372v-33h-409v700h409v-33h-372z" />
    <glyph glyph-name="ecaron" unicode="&#x11b;" horiz-adv-x="502" 
d="M117 733h43l94 -101l91 101h43l-121 -133h-29zM260 -9q-111 0 -156 59.5t-45 185.5q0 140 48.5 206.5t153.5 66.5q96 0 142 -58t46 -182v-33h-354q-2 -117 36.5 -165t139.5 -48q57 0 129 6l30 3l2 -33q-122 -8 -172 -8zM94 268h318q0 111 -36 160t-114 49
q-167 0 -168 -209z" />
    <glyph glyph-name="Gcircumflex" unicode="&#x11c;" horiz-adv-x="619" 
d="M169 808l134 126h30l134 -126h-45l-104 96l-104 -96h-45zM326 -9q-141 0 -201 86.5t-60 270.5q0 187 58.5 274t202.5 87q90 0 188 -20l33 -5l-3 -35q-130 26 -227 26q-110 0 -161.5 -69.5t-51.5 -242.5q0 -184 48.5 -261t175.5 -77q75 0 183 20v267h-151v35h187v-331
q-113 -25 -221 -25z" />
    <glyph glyph-name="gcircumflex" unicode="&#x11d;" horiz-adv-x="501" 
d="M119 600l121 133h29l122 -133h-43l-91 100l-95 -100h-43zM250 -238q-115 0 -153 34t-38 118q0 28 3 44.5t16.5 33t23 24.5t40.5 32q-22 14 -22 61q0 21 31 82q-86 25 -86 152q0 85 41 126t134 41q49 0 102 -13l140 3v-35l-109 -1q41 -30 41 -122q0 -88 -43 -125.5
t-138 -37.5q-32 0 -55 4q-23 -60 -23 -75q0 -10 2 -17.5t7.5 -12.5t10.5 -9t14.5 -6t16.5 -3.5t20.5 -1.5h21t23.5 0.5t24 0.5q90 2 131.5 -25.5t41.5 -111.5t-48 -122t-170 -38zM239 211q76 0 107 29.5t31 104.5q0 74 -30.5 103.5t-105.5 29.5q-77 0 -109 -30.5t-32 -104.5
t31.5 -103t107.5 -29zM255 -207q100 0 138.5 29t38.5 103q0 61 -26.5 81.5t-116.5 19.5l-120 4q-47 -32 -61 -52.5t-14 -61.5q0 -71 34 -97t127 -26z" />
    <glyph glyph-name="Gbreve" unicode="&#x11e;" horiz-adv-x="619" 
d="M332 806q-59 0 -99 32.5t-39 84.5h34q-1 -37 30 -62t75 -25q43 0 72.5 24.5t28.5 62.5h36q1 -52 -39 -84.5t-99 -32.5zM326 -9q-141 0 -201 86.5t-60 270.5q0 187 58.5 274t202.5 87q90 0 188 -20l33 -5l-3 -35q-130 26 -227 26q-110 0 -161.5 -69.5t-51.5 -242.5
q0 -184 48.5 -261t175.5 -77q75 0 183 20v267h-151v35h187v-331q-113 -25 -221 -25z" />
    <glyph glyph-name="gbreve" unicode="&#x11f;" horiz-adv-x="501" 
d="M256 595q-62 0 -101 36t-38 92h34q2 -44 29.5 -70t75.5 -26q46 0 74.5 27t26.5 69h36q1 -56 -37.5 -92t-99.5 -36zM250 -238q-115 0 -153 34t-38 118q0 28 3 44.5t16.5 33t23 24.5t40.5 32q-22 14 -22 61q0 21 31 82q-86 25 -86 152q0 85 41 126t134 41q49 0 102 -13
l140 3v-35l-109 -1q41 -30 41 -122q0 -88 -43 -125.5t-138 -37.5q-32 0 -55 4q-23 -60 -23 -75q0 -10 2 -17.5t7.5 -12.5t10.5 -9t14.5 -6t16.5 -3.5t20.5 -1.5h21t23.5 0.5t24 0.5q90 2 131.5 -25.5t41.5 -111.5t-48 -122t-170 -38zM239 211q76 0 107 29.5t31 104.5
q0 74 -30.5 103.5t-105.5 29.5q-77 0 -109 -30.5t-32 -104.5t31.5 -103t107.5 -29zM255 -207q100 0 138.5 29t38.5 103q0 61 -26.5 81.5t-116.5 19.5l-120 4q-47 -32 -61 -52.5t-14 -61.5q0 -71 34 -97t127 -26z" />
    <glyph glyph-name="Gdotaccent" unicode="&#x120;" horiz-adv-x="619" 
d="M296 824v55h34v-55h-34zM326 -9q-141 0 -201 86.5t-60 270.5q0 187 58.5 274t202.5 87q90 0 188 -20l33 -5l-3 -35q-130 26 -227 26q-110 0 -161.5 -69.5t-51.5 -242.5q0 -184 48.5 -261t175.5 -77q75 0 183 20v267h-151v35h187v-331q-113 -25 -221 -25z" />
    <glyph glyph-name="gdotaccent" unicode="&#x121;" horiz-adv-x="501" 
d="M237 644v55h34v-55h-34zM250 -238q-115 0 -153 34t-38 118q0 28 3 44.5t16.5 33t23 24.5t40.5 32q-22 14 -22 61q0 21 31 82q-86 25 -86 152q0 85 41 126t134 41q49 0 102 -13l140 3v-35l-109 -1q41 -30 41 -122q0 -88 -43 -125.5t-138 -37.5q-32 0 -55 4
q-23 -60 -23 -75q0 -10 2 -17.5t7.5 -12.5t10.5 -9t14.5 -6t16.5 -3.5t20.5 -1.5h21t23.5 0.5t24 0.5q90 2 131.5 -25.5t41.5 -111.5t-48 -122t-170 -38zM239 211q76 0 107 29.5t31 104.5q0 74 -30.5 103.5t-105.5 29.5q-77 0 -109 -30.5t-32 -104.5t31.5 -103t107.5 -29z
M255 -207q100 0 138.5 29t38.5 103q0 61 -26.5 81.5t-116.5 19.5l-120 4q-47 -32 -61 -52.5t-14 -61.5q0 -71 34 -97t127 -26z" />
    <glyph glyph-name="Gcommaaccent" unicode="&#x122;" horiz-adv-x="619" 
d="M326 -9q-141 0 -201 86.5t-60 270.5q0 187 58.5 274t202.5 87q90 0 188 -20l33 -5l-3 -35q-130 26 -227 26q-110 0 -161.5 -69.5t-51.5 -242.5q0 -184 48.5 -261t175.5 -77q75 0 183 20v267h-151v35h187v-331q-113 -25 -221 -25zM287 -268l37 189h37l-47 -189h-27z" />
    <glyph glyph-name="gcommaaccent" unicode="&#x123;" horiz-adv-x="501" 
d="M281 782l-37 -189h-37l47 189h27zM250 -238q-115 0 -153 34t-38 118q0 28 3 44.5t16.5 33t23 24.5t40.5 32q-22 14 -22 61q0 21 31 82q-86 25 -86 152q0 85 41 126t134 41q49 0 102 -13l140 3v-35l-109 -1q41 -30 41 -122q0 -88 -43 -125.5t-138 -37.5q-32 0 -55 4
q-23 -60 -23 -75q0 -10 2 -17.5t7.5 -12.5t10.5 -9t14.5 -6t16.5 -3.5t20.5 -1.5h21t23.5 0.5t24 0.5q90 2 131.5 -25.5t41.5 -111.5t-48 -122t-170 -38zM239 211q76 0 107 29.5t31 104.5q0 74 -30.5 103.5t-105.5 29.5q-77 0 -109 -30.5t-32 -104.5t31.5 -103t107.5 -29z
M255 -207q100 0 138.5 29t38.5 103q0 61 -26.5 81.5t-116.5 19.5l-120 4q-47 -32 -61 -52.5t-14 -61.5q0 -71 34 -97t127 -26z" />
    <glyph glyph-name="Hcircumflex" unicode="&#x124;" horiz-adv-x="674" 
d="M338 904l-104 -96h-45l134 126h30l134 -126h-45zM547 700h34v-700h-34v334h-418v-334h-37v700h37v-331h418v331z" />
    <glyph glyph-name="hcircumflex" unicode="&#x125;" horiz-adv-x="526" 
d="M125 790l121 133h29l122 -133h-43l-91 100l-95 -100h-43zM79 0v730h35v-261q91 40 176 40q97 0 130 -51.5t33 -198.5v-259h-36v258q0 134 -25 176.5t-106 42.5q-72 0 -149 -30l-23 -9v-438h-35z" />
    <glyph glyph-name="Hbar" unicode="&#x126;" horiz-adv-x="687" 
d="M96 0v523h-84v31h84v146h37v-146h418v146h34v-146h95v-31h-95v-523h-34v334h-418v-334h-37zM133 369h418v154h-418v-154z" />
    <glyph glyph-name="hbar" unicode="&#x127;" horiz-adv-x="526" 
d="M79 0v612h-70v33h70v85h35v-85h162v-33h-162v-143q89 40 174 40q99 0 132 -50.5t33 -199.5v-259h-36v258q0 133 -24.5 176t-103.5 43q-76 0 -152 -30l-23 -9v-438h-35z" />
    <glyph glyph-name="Itilde" unicode="&#x128;" horiz-adv-x="219" 
d="M181 833q-17 0 -79 30q-57 29 -73 29q-22 0 -57 -38l-13 -14l-9 30q48 54 82 54q18 0 80 -30t70 -30q18 0 52 37l11 12l10 -29q-20 -24 -34.5 -36t-21.5 -13.5t-18 -1.5zM92 0v700h37v-700h-37z" />
    <glyph glyph-name="itilde" unicode="&#x129;" horiz-adv-x="191" 
d="M173 630q-21 0 -74 28q-58 26 -69 26q-20 0 -60 -34l-13 -12l-10 30q46 47 82 47q18 0 76 -26q59 -27 68 -27q15 0 52 32l13 9l9 -29q-28 -29 -42 -36.5t-32 -7.5zM79 0v500h34v-500h-34z" />
    <glyph glyph-name="Imacron" unicode="&#x12a;" horiz-adv-x="219" 
d="M-32 832v31h287v-31h-287zM92 0v700h37v-700h-37z" />
    <glyph glyph-name="imacron" unicode="&#x12b;" horiz-adv-x="191" 
d="M-37 642v32h267v-32h-267zM79 0v500h34v-500h-34z" />
    <glyph glyph-name="Ibreve" unicode="&#x12c;" horiz-adv-x="219" 
d="M112 806q-59 0 -99 32.5t-39 84.5h34q-1 -37 30 -62t75 -25q43 0 72.5 24.5t28.5 62.5h36q1 -52 -39 -84.5t-99 -32.5zM92 0v700h37v-700h-37z" />
    <glyph glyph-name="ibreve" unicode="&#x12d;" horiz-adv-x="191" 
d="M97 595q-62 0 -101 36t-38 92h34q2 -44 29.5 -70t75.5 -26q46 0 74.5 27t26.5 69h36q1 -56 -37.5 -92t-99.5 -36zM79 0v500h34v-500h-34z" />
    <glyph glyph-name="Iogonek" unicode="&#x12e;" horiz-adv-x="219" 
d="M151 -158l4 -34q-34 -7 -68 -7q-31 0 -54 21.5t-23 50.5q0 48 63 113l19 17v697h37v-700h-2q-78 -87 -78 -117q0 -20 14 -34.5t33 -14.5z" />
    <glyph glyph-name="iogonek" unicode="&#x12f;" horiz-adv-x="191" 
d="M112 700v-55h-34v55h34zM136 -158l4 -34q-34 -7 -68 -7q-31 0 -54 21.5t-23 50.5q0 48 63 113l21 19v495h34v-500h-1q-78 -87 -78 -117q0 -20 14 -34.5t33 -14.5z" />
    <glyph glyph-name="Idotaccent" unicode="&#x130;" horiz-adv-x="219" 
d="M92 824v55h34v-55h-34zM92 0v700h37v-700h-37z" />
    <glyph glyph-name="dotlessi" unicode="&#x131;" horiz-adv-x="191" 
d="M79 0v500h34v-500h-34z" />
    <glyph glyph-name="Jcircumflex" unicode="&#x134;" horiz-adv-x="280" 
d="M23 803l134 126h30l134 -126h-45l-104 96l-104 -96h-45zM17 -73v35q36 0 54 1t36.5 6t25.5 12t13.5 23.5t7.5 36.5t1 55v604h35l1 -618q0 -33 -4 -58t-11.5 -41.5t-18 -27.5t-23.5 -16.5t-28.5 -8.5t-32.5 -3h-35h-21z" />
    <glyph glyph-name="jcircumflex" unicode="&#x135;" horiz-adv-x="192" 
d="M-44 600l121 133h29l122 -133h-43l-91 100l-95 -100h-43zM-44 -218l-15 30q87 47 113 83t26 111v494h34v-495q0 -86 -31.5 -130t-126.5 -93z" />
    <glyph glyph-name="Kcommaaccent" unicode="&#x136;" horiz-adv-x="553" 
d="M284 346l251 -346h-45l-234 327l-127 2v-329h-37v700h37v-337l124 -2l225 339h42zM239 -268l37 189h37l-47 -189h-27z" />
    <glyph glyph-name="kcommaaccent" unicode="&#x137;" horiz-adv-x="455" 
d="M79 0v730h35v-441h96l173 211h41l-185 -225l192 -275h-41l-181 257l-95 1v-258h-35zM174 -268l37 189h37l-47 -189h-27z" />
    <glyph glyph-name="Lacute" unicode="&#x139;" horiz-adv-x="484" 
d="M358 892l-191 -93l-17 27l192 96zM129 34h340v-34h-377v700h37v-666z" />
    <glyph glyph-name="lacute" unicode="&#x13a;" horiz-adv-x="205" 
d="M74 809l-15 27l192 95l17 -30zM85 0v730h35v-730h-35z" />
    <glyph glyph-name="Lcommaaccent" unicode="&#x13b;" horiz-adv-x="484" 
d="M129 34h340v-34h-377v700h37v-666zM228 -268l37 189h37l-47 -189h-27z" />
    <glyph glyph-name="lcommaaccent" unicode="&#x13c;" horiz-adv-x="205" 
d="M85 0v730h35v-730h-35zM42 -268l37 189h37l-47 -189h-27z" />
    <glyph glyph-name="Lcaron" unicode="&#x13d;" horiz-adv-x="491" 
d="M129 34h340v-34h-377v700h37v-666zM424 700v-217h-35v217h35z" />
    <glyph glyph-name="lcaron" unicode="&#x13e;" horiz-adv-x="134" 
d="M85 0v730h35v-730h-35zM186 497l37 189h37l-47 -189h-27z" />
    <glyph glyph-name="Lslash" unicode="&#x141;" horiz-adv-x="484" 
d="M95 0v309l-67 -48l-19 27l86 60v352h36v-326l171 118l18 -25l-189 -133v-300h341v-34h-377z" />
    <glyph glyph-name="lslash" unicode="&#x142;" horiz-adv-x="263" 
d="M111 0v320l-78 -55l-18 26l96 68v371h35v-347l82 57l18 -26l-100 -70v-344h-35z" />
    <glyph glyph-name="Nacute" unicode="&#x143;" horiz-adv-x="665" 
d="M440 892l-191 -93l-17 27l192 96zM538 700h34v-700h-83l-341 667h-19v-667h-37v700h85l338 -667h23v667z" />
    <glyph glyph-name="nacute" unicode="&#x144;" horiz-adv-x="526" 
d="M184 609l-15 27l192 95l17 -30zM79 0v500h34v-40q93 49 181 49q95 0 127 -51.5t32 -198.5v-259h-34v259q0 127 -24 172.5t-95 45.5q-45 0 -91.5 -12t-70.5 -25l-24 -13v-427h-35z" />
    <glyph glyph-name="Ncommaaccent" unicode="&#x145;" horiz-adv-x="665" 
d="M538 700h34v-700h-83l-341 667h-19v-667h-37v700h85l338 -667h23v667zM303 -268l37 189h37l-47 -189h-27z" />
    <glyph glyph-name="ncommaaccent" unicode="&#x146;" horiz-adv-x="526" 
d="M79 0v500h34v-40q93 49 181 49q95 0 127 -51.5t32 -198.5v-259h-34v259q0 127 -24 172.5t-95 45.5q-45 0 -91.5 -12t-70.5 -25l-24 -13v-427h-35zM219 -268l37 189h37l-47 -189h-27z" />
    <glyph glyph-name="Ncaron" unicode="&#x147;" horiz-adv-x="665" 
d="M348 803h-31l-134 126h46l103 -96l104 96h46zM538 700h34v-700h-83l-341 667h-19v-667h-37v700h85l338 -667h23v667z" />
    <glyph glyph-name="ncaron" unicode="&#x148;" horiz-adv-x="526" 
d="M128 733h43l94 -101l91 101h43l-121 -133h-29zM79 0v500h34v-40q93 49 181 49q95 0 127 -51.5t32 -198.5v-259h-34v259q0 127 -24 172.5t-95 45.5q-45 0 -91.5 -12t-70.5 -25l-24 -13v-427h-35z" />
    <glyph glyph-name="Eng" unicode="&#x14a;" horiz-adv-x="665" 
d="M400 -174v35q36 0 54 1t36.5 6t25.5 12t13.5 24t7.5 37t1 55v4h-49l-335 667h-25v-667h-37v700h85l332 -667h29v667h34l2 -719q0 -86 -24 -118t-95 -37h-55z" />
    <glyph glyph-name="eng" unicode="&#x14b;" horiz-adv-x="529" 
d="M305 -230l-14 31q79 46 103.5 82.5t24.5 109.5v265q0 129 -24.5 174t-105.5 45q-37 0 -84.5 -12.5t-66.5 -25.5l-25 -11v-428h-34v501h34v-41q89 49 178 49q97 0 130 -52t33 -198v-266q0 -85 -29 -128t-120 -95z" />
    <glyph glyph-name="Omacron" unicode="&#x14c;" horiz-adv-x="665" 
d="M191 832v31h287v-31h-287zM334 -9q-152 0 -210 82.5t-58 273.5q0 190 60 276t207 86q148 0 208 -86t60 -279q0 -196 -58 -274.5t-209 -78.5zM334 25q133 0 181 71t48 248q0 178 -50 254.5t-180 76.5q-131 0 -180.5 -75.5t-49.5 -252.5q0 -182 49.5 -252t181.5 -70z" />
    <glyph glyph-name="omacron" unicode="&#x14d;" horiz-adv-x="525" 
d="M129 662v32h267v-32h-267zM263 -9q-122 0 -163 53.5t-41 199.5q0 153 43 209t161 56q119 0 161 -56.5t42 -208.5q0 -146 -40 -199.5t-163 -53.5zM264 24q103 0 133.5 45.5t30.5 174.5q0 138 -32 185t-132 47q-101 0 -134 -47t-33 -185q0 -128 32 -174t135 -46z" />
    <glyph glyph-name="Obreve" unicode="&#x14e;" horiz-adv-x="665" 
d="M334 806q-59 0 -99 32.5t-39 84.5h34q-1 -37 30 -62t75 -25q43 0 72.5 24.5t28.5 62.5h36q1 -52 -39 -84.5t-99 -32.5zM334 -9q-152 0 -210 82.5t-58 273.5q0 190 60 276t207 86q148 0 208 -86t60 -279q0 -196 -58 -274.5t-209 -78.5zM334 25q133 0 181 71t48 248
q0 178 -50 254.5t-180 76.5q-131 0 -180.5 -75.5t-49.5 -252.5q0 -182 49.5 -252t181.5 -70z" />
    <glyph glyph-name="obreve" unicode="&#x14f;" horiz-adv-x="525" 
d="M266 595q-62 0 -101 36t-38 92h34q2 -44 29.5 -70t75.5 -26q46 0 74.5 27t26.5 69h36q1 -56 -37.5 -92t-99.5 -36zM263 -9q-122 0 -163 53.5t-41 199.5q0 153 43 209t161 56q119 0 161 -56.5t42 -208.5q0 -146 -40 -199.5t-163 -53.5zM264 24q103 0 133.5 45.5
t30.5 174.5q0 138 -32 185t-132 47q-101 0 -134 -47t-33 -185q0 -128 32 -174t135 -46z" />
    <glyph glyph-name="Ohungarumlaut" unicode="&#x150;" horiz-adv-x="665" 
d="M162 762l-15 29l192 89l12 -31zM351 761l-15 31l192 87l15 -31zM334 -9q-152 0 -210 82.5t-58 273.5q0 190 60 276t207 86q148 0 208 -86t60 -279q0 -196 -58 -274.5t-209 -78.5zM334 25q133 0 181 71t48 248q0 178 -50 254.5t-180 76.5q-131 0 -180.5 -75.5
t-49.5 -252.5q0 -182 49.5 -252t181.5 -70z" />
    <glyph glyph-name="ohungarumlaut" unicode="&#x151;" horiz-adv-x="525" 
d="M323 595l-18 26l164 105l17 -27zM139 595l-20 26l164 104l17 -26zM263 -9q-122 0 -163 53.5t-41 199.5q0 153 43 209t161 56q119 0 161 -56.5t42 -208.5q0 -146 -40 -199.5t-163 -53.5zM264 24q103 0 133.5 45.5t30.5 174.5q0 138 -32 185t-132 47q-101 0 -134 -47
t-33 -185q0 -128 32 -174t135 -46z" />
    <glyph glyph-name="OE" unicode="&#x152;" horiz-adv-x="940" 
d="M333 -9q-151 0 -210 83t-59 272q0 191 60 277t209 86q103 0 157 -9h399v-35h-363v-287h303v-36h-303v-307h363v-37h-397q-119 -7 -159 -7zM333 26q74 0 157 7v630q-118 11 -148 11q-90 0 -140 -27t-74.5 -94.5t-24.5 -190.5q0 -188 48 -262t182 -74z" />
    <glyph glyph-name="oe" unicode="&#x153;" horiz-adv-x="872" 
d="M270 -9q-125 0 -168 56t-43 206q0 144 46 200t159 56q76 0 120 -28.5t66 -92.5q41 121 181 121q97 0 143.5 -57.5t46.5 -182.5v-34h-354q-1 -108 33.5 -160t108.5 -52q64 0 161 7l29 2l2 -33q-117 -8 -180 -8q-130 0 -172 107q-20 -58 -61.5 -82.5t-117.5 -24.5zM264 22
q100 0 132 49.5t32 180.5q0 124 -38.5 174.5t-130.5 50.5t-127 -46t-35 -174q0 -136 33 -185.5t134 -49.5zM466 268h318q0 112 -36.5 160.5t-116.5 48.5t-122.5 -53.5t-42.5 -155.5z" />
    <glyph glyph-name="Racute" unicode="&#x154;" horiz-adv-x="613" 
d="M215 799l-17 27l192 96l16 -30zM92 0v700h251q105 0 156.5 -48.5t51.5 -152.5q0 -179 -145 -204l157 -295h-41l-155 290h-238v-290h-37zM129 324h214q86 0 128.5 41.5t42.5 129.5t-41.5 129t-129.5 41h-214v-341z" />
    <glyph glyph-name="racute" unicode="&#x155;" horiz-adv-x="329" 
d="M95 609l-15 27l192 95l17 -30zM79 0v500h34v-78q87 65 199 88v-36q-42 -8 -94.5 -30t-74.5 -39l-29 -17v-388h-35z" />
    <glyph glyph-name="Rcommaaccent" unicode="&#x156;" horiz-adv-x="613" 
d="M92 0v700h251q105 0 156.5 -48.5t51.5 -152.5q0 -179 -145 -204l157 -295h-41l-155 290h-238v-290h-37zM129 324h214q86 0 128.5 41.5t42.5 129.5t-41.5 129t-129.5 41h-214v-341zM268 -268l37 189h37l-47 -189h-27z" />
    <glyph glyph-name="rcommaaccent" unicode="&#x157;" horiz-adv-x="329" 
d="M79 0v500h34v-78q87 65 199 88v-36q-42 -8 -94.5 -30t-74.5 -39l-29 -17v-388h-35zM41 -268l37 189h37l-47 -189h-27z" />
    <glyph glyph-name="Rcaron" unicode="&#x158;" horiz-adv-x="613" 
d="M286 808l-134 126h46l103 -96l104 96h46l-134 -126h-31zM92 0v700h251q105 0 156.5 -48.5t51.5 -152.5q0 -179 -145 -204l157 -295h-41l-155 290h-238v-290h-37zM129 324h214q86 0 128.5 41.5t42.5 129.5t-41.5 129t-129.5 41h-214v-341z" />
    <glyph glyph-name="rcaron" unicode="&#x159;" horiz-adv-x="329" 
d="M40 733h43l94 -101l91 101h43l-121 -133h-29zM79 0v500h34v-78q87 65 199 88v-36q-42 -8 -94.5 -30t-74.5 -39l-29 -17v-388h-35z" />
    <glyph glyph-name="Sacute" unicode="&#x15a;" horiz-adv-x="541" 
d="M192 799l-17 27l192 96l16 -30zM274 -7q-55 0 -178 12l-36 4l4 35q138 -18 208 -18q176 0 176 173q0 70 -33 98t-142 46q-125 21 -171.5 58t-46.5 134q0 88 52.5 131.5t164.5 43.5q88 0 199 -15l-4 -36q-151 18 -196 18q-177 0 -177 -140q0 -43 4.5 -64.5t25.5 -40.5
t55.5 -29t103.5 -23q113 -19 157.5 -55.5t44.5 -121.5q0 -108 -50 -159t-161 -51z" />
    <glyph glyph-name="sacute" unicode="&#x15b;" horiz-adv-x="460" 
d="M144 609l-15 27l192 95l17 -30zM224 -9q-51 0 -138 12l-29 4l4 34q118 -18 170 -18q75 0 110 26.5t35 84.5q0 18 -4 32.5t-8.5 24.5t-16 18t-19 12.5t-24.5 9t-26 6l-30 5t-30 4.5q-99 17 -133 42t-34 83q0 78 47 107.5t136 29.5q79 0 136 -9l25 -5l-2 -32
q-99 16 -163 16q-143 0 -143 -101q0 -35 18 -54.5t43 -26.5t72 -16q4 0 6.5 -0.5t6 -1t6.5 -1.5q100 -18 136.5 -43t36.5 -95q0 -79 -46.5 -113.5t-141.5 -34.5z" />
    <glyph glyph-name="Scircumflex" unicode="&#x15c;" horiz-adv-x="541" 
d="M124 803l134 126h30l134 -126h-45l-104 96l-104 -96h-45zM274 -7q-55 0 -178 12l-36 4l4 35q138 -18 208 -18q176 0 176 173q0 70 -33 98t-142 46q-125 21 -171.5 58t-46.5 134q0 88 52.5 131.5t164.5 43.5q88 0 199 -15l-4 -36q-151 18 -196 18q-177 0 -177 -140
q0 -43 4.5 -64.5t25.5 -40.5t55.5 -29t103.5 -23q113 -19 157.5 -55.5t44.5 -121.5q0 -108 -50 -159t-161 -51z" />
    <glyph glyph-name="scircumflex" unicode="&#x15d;" horiz-adv-x="460" 
d="M96 600l121 133h29l122 -133h-43l-91 100l-95 -100h-43zM224 -9q-51 0 -138 12l-29 4l4 34q118 -18 170 -18q75 0 110 26.5t35 84.5q0 18 -4 32.5t-8.5 24.5t-16 18t-19 12.5t-24.5 9t-26 6l-30 5t-30 4.5q-99 17 -133 42t-34 83q0 78 47 107.5t136 29.5q79 0 136 -9
l25 -5l-2 -32q-99 16 -163 16q-143 0 -143 -101q0 -35 18 -54.5t43 -26.5t72 -16q4 0 6.5 -0.5t6 -1t6.5 -1.5q100 -18 136.5 -43t36.5 -95q0 -79 -46.5 -113.5t-141.5 -34.5z" />
    <glyph glyph-name="Scedilla" unicode="&#x15e;" horiz-adv-x="541" 
d="M485 203q0 -104 -45.5 -155t-148.5 -55v-50q57 1 80 -14.5t23 -54.5q0 -75 -81 -75q-46 0 -70 3l-11 1l2 28q60 -4 78 -4q48 0 48 46q0 42 -48 42h-54v78q-45 1 -162 12l-36 4l4 35q138 -18 208 -18q176 0 176 173q0 70 -33 98t-142 46q-125 21 -171.5 58t-46.5 134
q0 88 52.5 131.5t164.5 43.5q88 0 199 -15l-4 -36q-151 18 -196 18q-177 0 -177 -140q0 -43 4.5 -64.5t25.5 -40.5t55.5 -29t103.5 -23q113 -19 157.5 -55.5t44.5 -121.5z" />
    <glyph glyph-name="scedilla" unicode="&#x15f;" horiz-adv-x="460" 
d="M412 139q0 -76 -43.5 -111t-131.5 -37v-48q57 1 80 -14.5t23 -54.5q0 -75 -81 -75q-46 0 -70 3l-11 1l2 28q60 -4 78 -4q48 0 48 46q0 42 -48 42h-54v76q-53 3 -118 12l-29 4l4 34q118 -18 170 -18q75 0 110 26.5t35 84.5q0 18 -4 32.5t-8.5 24.5t-16 18t-19 12.5
t-24.5 9t-26 6l-30 5t-30 4.5q-99 17 -133 42t-34 83q0 78 47 107.5t136 29.5q79 0 136 -9l25 -5l-2 -32q-99 16 -163 16q-143 0 -143 -101q0 -35 18 -54.5t43 -26.5t72 -16q4 0 6.5 -0.5t6 -1t6.5 -1.5q100 -18 136.5 -43t36.5 -95z" />
    <glyph glyph-name="Scaron" unicode="&#x160;" horiz-adv-x="541" 
d="M260 808l-134 126h46l103 -96l104 96h46l-134 -126h-31zM274 -7q-55 0 -178 12l-36 4l4 35q138 -18 208 -18q176 0 176 173q0 70 -33 98t-142 46q-125 21 -171.5 58t-46.5 134q0 88 52.5 131.5t164.5 43.5q88 0 199 -15l-4 -36q-151 18 -196 18q-177 0 -177 -140
q0 -43 4.5 -64.5t25.5 -40.5t55.5 -29t103.5 -23q113 -19 157.5 -55.5t44.5 -121.5q0 -108 -50 -159t-161 -51z" />
    <glyph glyph-name="scaron" unicode="&#x161;" horiz-adv-x="460" 
d="M104 733h43l94 -101l91 101h43l-121 -133h-29zM224 -9q-51 0 -138 12l-29 4l4 34q118 -18 170 -18q75 0 110 26.5t35 84.5q0 18 -4 32.5t-8.5 24.5t-16 18t-19 12.5t-24.5 9t-26 6l-30 5t-30 4.5q-99 17 -133 42t-34 83q0 78 47 107.5t136 29.5q79 0 136 -9l25 -5l-2 -32
q-99 16 -163 16q-143 0 -143 -101q0 -35 18 -54.5t43 -26.5t72 -16q4 0 6.5 -0.5t6 -1t6.5 -1.5q100 -18 136.5 -43t36.5 -95q0 -79 -46.5 -113.5t-141.5 -34.5z" />
    <glyph glyph-name="uni0162" unicode="&#x162;" horiz-adv-x="526" 
d="M281 -57q57 1 80 -14.5t23 -54.5q0 -75 -81 -75q-46 0 -70 3l-11 1l2 28q60 -4 78 -4q48 0 48 46q0 42 -48 42h-54v85h-1v666h-234v34h500v-34h-232v-723z" />
    <glyph glyph-name="uni0163" unicode="&#x163;" horiz-adv-x="342" 
d="M230 -10q-68 0 -94.5 37t-26.5 141v300h-79v32h79v162h34v-162h183v-32h-183v-262q0 -46 1.5 -71t6 -50.5t14.5 -37t27 -19t43 -7.5l97 9l5 -32q-82 -8 -107 -8zM169 -201q-46 0 -70 3l-11 1l2 28q60 -4 78 -4q48 0 48 46q0 42 -48 42h-54v86h33v-58q57 1 80 -14.5
t23 -54.5q0 -75 -81 -75z" />
    <glyph glyph-name="Tcaron" unicode="&#x164;" horiz-adv-x="526" 
d="M247 808l-134 126h46l103 -96l104 96h46l-134 -126h-31zM247 0v666h-234v34h500v-34h-232v-666h-34z" />
    <glyph glyph-name="tcaron" unicode="&#x165;" horiz-adv-x="395" 
d="M366 483v217h33v-217h-33zM230 -10q-68 0 -94.5 37t-26.5 141v300h-79v32h79v162h34v-162h183v-32h-183v-262q0 -46 1.5 -71t6 -50.5t14.5 -37t27 -19t43 -7.5l97 9l5 -32q-82 -8 -107 -8z" />
    <glyph glyph-name="Tbar" unicode="&#x166;" horiz-adv-x="530" 
d="M249 0v331h-183v33h183v302h-233v34h500v-34h-232v-302h181v-33h-181v-331h-35z" />
    <glyph glyph-name="tbar" unicode="&#x167;" horiz-adv-x="347" 
d="M240 -10q-72 0 -100 38t-28 140v114h-72v32h72v154h-79v33h79v161h36v-161h181v-33h-181v-154h160v-32h-160v-76q0 -85 7 -121.5t25 -49t60 -12.5l97 7l3 -32q-69 -8 -100 -8z" />
    <glyph glyph-name="Utilde" unicode="&#x168;" horiz-adv-x="637" 
d="M400 834q-18 0 -79 30q-57 29 -73 29q-22 0 -57 -38l-13 -14l-9 30q48 54 82 54q19 0 80 -30q62 -30 70 -30q18 0 52 37l11 12l10 -29q-20 -24 -34.5 -36t-21.5 -13.5t-18 -1.5zM317 -9q-116 0 -172.5 49t-56.5 157v503h36v-505q0 -170 190 -170q101 0 151 40t50 130v505
h34v-503q0 -108 -58 -157t-174 -49z" />
    <glyph glyph-name="utilde" unicode="&#x169;" horiz-adv-x="516" 
d="M335 630q-21 0 -74 28q-58 26 -69 26q-20 0 -60 -34l-13 -12l-10 30q46 47 82 47q18 0 76 -26q59 -27 68 -27q15 0 52 32l13 9l9 -29q-28 -29 -42 -36.5t-32 -7.5zM231 -9q-94 0 -125.5 50.5t-31.5 198.5v260h35v-257q0 -131 24 -175.5t98 -44.5q92 0 171 50v427h36v-500
h-37v40q-77 -49 -170 -49z" />
    <glyph glyph-name="Umacron" unicode="&#x16a;" horiz-adv-x="637" 
d="M175 832v31h287v-31h-287zM317 -9q-116 0 -172.5 49t-56.5 157v503h36v-505q0 -170 190 -170q101 0 151 40t50 130v505h34v-503q0 -108 -58 -157t-174 -49z" />
    <glyph glyph-name="umacron" unicode="&#x16b;" horiz-adv-x="516" 
d="M121 642v32h267v-32h-267zM231 -9q-94 0 -125.5 50.5t-31.5 198.5v260h35v-257q0 -131 24 -175.5t98 -44.5q92 0 171 50v427h36v-500h-37v40q-77 -49 -170 -49z" />
    <glyph glyph-name="Ubreve" unicode="&#x16c;" horiz-adv-x="637" 
d="M320 806q-59 0 -99 32.5t-39 84.5h34q-1 -37 30 -62t75 -25q43 0 72.5 24.5t28.5 62.5h36q1 -52 -39 -84.5t-99 -32.5zM317 -9q-116 0 -172.5 49t-56.5 157v503h36v-505q0 -170 190 -170q101 0 151 40t50 130v505h34v-503q0 -108 -58 -157t-174 -49z" />
    <glyph glyph-name="ubreve" unicode="&#x16d;" horiz-adv-x="516" 
d="M249 595q-62 0 -101 36t-38 92h34q2 -44 29.5 -70t75.5 -26q46 0 74.5 27t26.5 69h36q1 -56 -37.5 -92t-99.5 -36zM231 -9q-94 0 -125.5 50.5t-31.5 198.5v260h35v-257q0 -131 24 -175.5t98 -44.5q92 0 171 50v427h36v-500h-37v40q-77 -49 -170 -49z" />
    <glyph glyph-name="Uring" unicode="&#x16e;" horiz-adv-x="637" 
d="M320 758q-46 0 -72.5 25.5t-26.5 67.5q0 41 27 66t72 25q44 0 70 -25t26 -66q0 -43 -25.5 -68t-70.5 -25zM320 788q31 0 47.5 17t16.5 46q0 61 -64 61q-34 0 -49 -15t-15 -46q0 -29 16.5 -46t47.5 -17zM317 -9q-116 0 -172.5 49t-56.5 157v503h36v-505q0 -170 190 -170
q101 0 151 40t50 130v505h34v-503q0 -108 -58 -157t-174 -49z" />
    <glyph glyph-name="uring" unicode="&#x16f;" horiz-adv-x="516" 
d="M258 554q-38 0 -64 28t-26 69q0 39 26 66.5t64 27.5t64 -27.5t26 -66.5q0 -41 -26 -69t-64 -28zM258 586q26 0 44 19t18 46q0 26 -18.5 45t-43.5 19t-43.5 -19t-18.5 -45q0 -27 18 -46t44 -19zM231 -9q-94 0 -125.5 50.5t-31.5 198.5v260h35v-257q0 -131 24 -175.5
t98 -44.5q92 0 171 50v427h36v-500h-37v40q-77 -49 -170 -49z" />
    <glyph glyph-name="Uhungarumlaut" unicode="&#x170;" horiz-adv-x="637" 
d="M172 762l-15 29l192 89l12 -31zM361 761l-15 31l192 87l15 -31zM317 -9q-116 0 -172.5 49t-56.5 157v503h36v-505q0 -170 190 -170q101 0 151 40t50 130v505h34v-503q0 -108 -58 -157t-174 -49z" />
    <glyph glyph-name="uhungarumlaut" unicode="&#x171;" horiz-adv-x="516" 
d="M320 595l-18 26l164 105l17 -27zM136 595l-20 26l164 104l17 -26zM231 -9q-94 0 -125.5 50.5t-31.5 198.5v260h35v-257q0 -131 24 -175.5t98 -44.5q92 0 171 50v427h36v-500h-37v40q-77 -49 -170 -49z" />
    <glyph glyph-name="Uogonek" unicode="&#x172;" horiz-adv-x="637" 
d="M515 700h34v-503q0 -163 -142 -197q-78 -87 -78 -117q0 -20 14 -34.5t33 -14.5l55 8l4 -34q-34 -7 -68 -7q-31 0 -54 21.5t-23 50.5q0 48 63 113l8 7q-28 -2 -44 -2q-116 0 -172.5 49t-56.5 157v503h36v-505q0 -170 190 -170q101 0 151 40t50 130v505z" />
    <glyph glyph-name="uogonek" unicode="&#x173;" horiz-adv-x="516" 
d="M461 -158l4 -34q-34 -7 -68 -7q-31 0 -54 21.5t-23 50.5q0 48 63 113l18 16v38q-77 -49 -170 -49q-94 0 -125.5 50.5t-31.5 198.5v260h35v-257q0 -131 24 -175.5t98 -44.5q92 0 171 50v427h36v-500h-1q-78 -87 -78 -117q0 -20 14 -34.5t33 -14.5z" />
    <glyph glyph-name="Wcircumflex" unicode="&#x174;" horiz-adv-x="857" 
d="M280 803l134 126h30l134 -126h-45l-104 96l-104 -96h-45zM186 0l-149 700h37l141 -665h38l154 655h43l154 -655h38l141 665h35l-147 -700h-96l-147 640l-147 -640h-95z" />
    <glyph glyph-name="wcircumflex" unicode="&#x175;" horiz-adv-x="755" 
d="M242 600l121 133h29l122 -133h-43l-91 100l-95 -100h-43zM171 0l-135 500h37l127 -468h11l148 458h38l147 -458h13l126 468h37l-135 -500h-69l-138 448l-139 -448h-68z" />
    <glyph glyph-name="Ycircumflex" unicode="&#x176;" horiz-adv-x="525" 
d="M115 808l134 126h30l134 -126h-45l-104 96l-104 -96h-45zM245 0v302l-228 398h43l203 -359l203 359h43l-228 -398v-302h-36z" />
    <glyph glyph-name="ycircumflex" unicode="&#x177;" horiz-adv-x="472" 
d="M103 600l121 133h29l122 -133h-43l-91 100l-95 -100h-43zM175 -230l71 230h-60l-155 500h37l148 -468h39l150 468h37l-230 -730h-37z" />
    <glyph glyph-name="Ydieresis" unicode="&#x178;" horiz-adv-x="525" 
d="M146 837v62h37v-62h-37zM342 837v62h35v-62h-35zM245 0v302l-228 398h43l203 -359l203 359h43l-228 -398v-302h-36z" />
    <glyph glyph-name="Zacute" unicode="&#x179;" horiz-adv-x="539" 
d="M191 799l-17 27l192 96l16 -30zM44 -2v69l413 575v25h-413v33h450v-70l-414 -575v-22h414v-35h-450z" />
    <glyph glyph-name="zacute" unicode="&#x17a;" horiz-adv-x="456" 
d="M149 609l-15 27l192 95l17 -30zM43 0v32l326 436h-326v32h371v-32l-327 -436h327v-32h-371z" />
    <glyph glyph-name="Zdotaccent" unicode="&#x17b;" horiz-adv-x="539" 
d="M250 824v55h34v-55h-34zM44 -2v69l413 575v25h-413v33h450v-70l-414 -575v-22h414v-35h-450z" />
    <glyph glyph-name="zdotaccent" unicode="&#x17c;" horiz-adv-x="456" 
d="M210 644v55h34v-55h-34zM43 0v32l326 436h-326v32h371v-32l-327 -436h327v-32h-371z" />
    <glyph glyph-name="Zcaron" unicode="&#x17d;" horiz-adv-x="539" 
d="M265 808l-134 126h46l103 -96l104 96h46l-134 -126h-31zM44 -2v69l413 575v25h-413v33h450v-70l-414 -575v-22h414v-35h-450z" />
    <glyph glyph-name="zcaron" unicode="&#x17e;" horiz-adv-x="456" 
d="M91 733h43l94 -101l91 101h43l-121 -133h-29zM43 0v32l326 436h-326v32h371v-32l-327 -436h327v-32h-371z" />
    <glyph glyph-name="florin" unicode="&#x192;" 
d="M126 -238q-30 0 -76 3l-14 1l1 34q66 -7 97 -7q44 0 64.5 33t20.5 113v414h-69v30h69v74q0 104 27.5 160.5t99.5 56.5q18 0 80 -5l12 -2l-1 -32q-39 5 -93 5q-42 0 -66 -37.5t-24 -107.5v-112h161v-30h-161v-413q0 -100 -29 -139t-99 -39z" />
    <glyph glyph-name="Aringacute" unicode="&#x1fa;" horiz-adv-x="592" 
d="M396 980l-191 -93l-17 27l192 96zM529 0l-66 215h-334l-66 -215h-34l208 681q-41 25 -41 79q0 41 27 66t72 25q44 0 70 -25t26 -66q0 -52 -37 -77l209 -683h-34zM295 821q-34 0 -49 -15t-15 -46q0 -48 40 -60h5l6 5l-2 -5h32l-2 5l6 -5h3q40 12 40 60q0 61 -64 61z
M140 250h312l-2 7l1 -1l-129 410h-52l-128 -409z" />
    <glyph glyph-name="aringacute" unicode="&#x1fb;" horiz-adv-x="494" 
d="M163 778l-15 27l192 95l17 -30zM248 554q-38 0 -64 28t-26 69q0 39 26 66.5t64 27.5t64 -27.5t26 -66.5q0 -41 -26 -69t-64 -28zM248 586q26 0 44 19t18 46q0 26 -18.5 45t-43.5 19t-43.5 -19t-18.5 -45q0 -27 18 -46t44 -19zM179 -9q-63 0 -97.5 38t-34.5 105
t33.5 102.5t105.5 45.5l190 19v51q0 62 -26 92.5t-71 30.5q-65 0 -203 -17l-3 33q104 18 189 18q77 0 113.5 -38.5t36.5 -118.5v-288q1 -15 21 -26.5t53 -15.5l-2 -31q-33 0 -61.5 12t-41.5 32q-100 -44 -202 -44zM180 24q87 0 168 30l28 11v203l-186 -18
q-55 -4 -79.5 -30.5t-24.5 -79.5q0 -116 94 -116z" />
    <glyph glyph-name="AEacute" unicode="&#x1fc;" horiz-adv-x="879" 
d="M462 799l-17 27l192 96l16 -30zM25 0l251 700h552v-34h-373v-288h313v-34h-313v-310h373v-34h-409v214h-277l-77 -214h-40zM155 249h264l1 417h-115z" />
    <glyph glyph-name="aeacute" unicode="&#x1fd;" horiz-adv-x="817" 
d="M328 609l-15 27l192 95l17 -30zM170 -9q-123 0 -123 150q0 75 38 103.5t148 41.5l143 15v52q0 122 -108 122q-55 0 -161 -8l-30 -2l-2 34q103 10 186 10q117 0 144 -97q45 97 166 97q102 0 148.5 -57t46.5 -183v-34h-354q-1 -212 142 -212q63 0 161 7l29 2l2 -33
q-117 -8 -197 -8q-84 0 -130 58l-38 -16q-90 -42 -211 -42zM412 268h317q0 112 -36 160.5t-115 48.5q-166 0 -166 -209zM177 23q37 0 84.5 10.5t79 23t32.5 18.5v193l-183 -18q-55 -5 -79.5 -31.5t-24.5 -80.5q0 -115 91 -115z" />
    <glyph glyph-name="Oslashacute" unicode="&#x1fe;" horiz-adv-x="665" 
d="M252 799l-17 27l192 96l16 -30zM140 -109l-29 11l59 127q-57 39 -80.5 114.5t-23.5 204.5q0 189 60 275t207 86q87 0 142 -27l53 110l30 -12l-55 -118q98 -75 98 -314q0 -196 -57.5 -276.5t-210.5 -80.5q-79 0 -136 22zM179 51l282 597q-44 27 -128 27q-134 0 -182 -77
t-48 -281q0 -202 76 -266zM333 25q136 0 183 72t47 272q0 195 -71 271l-279 -595q48 -20 120 -20z" />
    <glyph glyph-name="oslashacute" unicode="&#x1ff;" horiz-adv-x="525" 
d="M174 609l-15 27l192 95l17 -30zM134 -115l-30 10l44 113q-50 25 -69.5 82.5t-19.5 168.5q0 138 46 194t158 56q43 0 86 -10l45 106l29 -11l-44 -108q87 -44 87 -227q0 -154 -40 -211t-163 -57q-42 0 -85 10zM159 29l178 438l-74 9q-93 0 -129.5 -44.5t-36.5 -148.5
q0 -73 2.5 -112t17 -81t42.5 -61zM263 24q104 0 134.5 47.5t30.5 200.5q0 150 -60 190l-177 -431q30 -7 72 -7z" />
    <glyph glyph-name="Scommaaccent" unicode="&#x218;" horiz-adv-x="541" 
d="M274 -7q-55 0 -178 12l-36 4l4 35q138 -18 208 -18q176 0 176 173q0 70 -33 98t-142 46q-125 21 -171.5 58t-46.5 134q0 88 52.5 131.5t164.5 43.5q88 0 199 -15l-4 -36q-151 18 -196 18q-177 0 -177 -140q0 -43 4.5 -64.5t25.5 -40.5t55.5 -29t103.5 -23
q113 -19 157.5 -55.5t44.5 -121.5q0 -108 -50 -159t-161 -51zM234 -268l37 189h37l-47 -189h-27z" />
    <glyph glyph-name="scommaaccent" unicode="&#x219;" horiz-adv-x="460" 
d="M224 -9q-51 0 -138 12l-29 4l4 34q118 -18 170 -18q75 0 110 26.5t35 84.5q0 18 -4 32.5t-8.5 24.5t-16 18t-19 12.5t-24.5 9t-26 6l-30 5t-30 4.5q-99 17 -133 42t-34 83q0 78 47 107.5t136 29.5q79 0 136 -9l25 -5l-2 -32q-99 16 -163 16q-143 0 -143 -101
q0 -35 18 -54.5t43 -26.5t72 -16q4 0 6.5 -0.5t6 -1t6.5 -1.5q100 -18 136.5 -43t36.5 -95q0 -79 -46.5 -113.5t-141.5 -34.5zM197 -268l37 189h37l-47 -189h-27z" />
    <glyph glyph-name="uni021A" unicode="&#x21a;" horiz-adv-x="526" 
d="M247 0v666h-234v34h500v-34h-232v-666h-34zM226 -268l37 189h37l-47 -189h-27z" />
    <glyph glyph-name="uni021B" unicode="&#x21b;" horiz-adv-x="342" 
d="M230 -10q-68 0 -94.5 37t-26.5 141v300h-79v32h79v162h34v-162h183v-32h-183v-262q0 -46 1.5 -71t6 -50.5t14.5 -37t27 -19t43 -7.5l97 9l5 -32q-82 -8 -107 -8zM167 -268l37 189h37l-47 -189h-27z" />
    <glyph glyph-name="circumflex" unicode="&#x2c6;" horiz-adv-x="215" 
d="M-16 600l121 133h29l122 -133h-43l-91 100l-95 -100h-43z" />
    <glyph glyph-name="caron" unicode="&#x2c7;" horiz-adv-x="215" 
d="M-15 733h43l94 -101l91 101h43l-121 -133h-29z" />
    <glyph glyph-name="breve" unicode="&#x2d8;" horiz-adv-x="215" 
d="M124 595q-62 0 -101 36t-38 92h34q2 -44 29.5 -70t75.5 -26q46 0 74.5 27t26.5 69h36q1 -56 -37.5 -92t-99.5 -36z" />
    <glyph glyph-name="dotaccent" unicode="&#x2d9;" horiz-adv-x="215" 
d="M90 644v55h34v-55h-34z" />
    <glyph glyph-name="ring" unicode="&#x2da;" horiz-adv-x="215" 
d="M112 554q-38 0 -64 28t-26 69q0 39 26 66.5t64 27.5t64 -27.5t26 -66.5q0 -41 -26 -69t-64 -28zM112 586q26 0 44 19t18 46q0 26 -18.5 45t-43.5 19t-43.5 -19t-18.5 -45q0 -27 18 -46t44 -19z" />
    <glyph glyph-name="ogonek" unicode="&#x2db;" horiz-adv-x="434" 
d="M244 -199q-31 0 -54 21.5t-23 50.5q0 48 63 113l22 20l33 -5q-79 -88 -79 -118q0 -20 14 -34.5t33 -14.5l55 8l4 -34q-34 -7 -68 -7z" />
    <glyph glyph-name="tilde" unicode="&#x2dc;" horiz-adv-x="215" 
d="M191 630q-21 0 -74 28q-58 26 -69 26q-20 0 -60 -34l-13 -12l-10 30q46 47 82 47q18 0 76 -26q59 -27 68 -27q15 0 52 32l13 9l9 -29q-28 -29 -42 -36.5t-32 -7.5z" />
    <glyph glyph-name="hungarumlaut" unicode="&#x2dd;" horiz-adv-x="215" 
d="M152 595l-18 26l164 105l17 -27zM-32 595l-20 26l164 104l17 -26z" />
    <glyph glyph-name="pi" unicode="&#x3c0;" 
d="M520 0q-78 0 -106.5 31t-28.5 123v314h-203l-30 -468h-36l30 468q-71 0 -111 -10l-10 -3v32q52 13 136 13h225q78 0 128 11l17 4v-31q-33 -14 -110 -14v-316q0 -76 19 -99t80 -23v-32z" />
    <glyph glyph-name="uni060C" unicode="&#x60c;" horiz-adv-x="196" 
d="M70 -123l52 210h31l-43 -210h-40z" />
    <glyph glyph-name="uni0615" unicode="&#x615;" horiz-adv-x="0" 
d="M124 918q69 0 69 -77v-71h-193v33h19v169h35v-106q10 19 16 27.5t20 16.5t34 8zM122 880q-31 0 -49.5 -23t-18.5 -49v-5h102v38q0 39 -34 39z" />
    <glyph glyph-name="uni061B" unicode="&#x61b;" horiz-adv-x="227" 
d="M82 336l52 210h31l-43 -210h-40zM86 0v79h41v-79h-41z" />
    <glyph glyph-name="uni061F" unicode="&#x61f;" horiz-adv-x="449" 
d="M279 190h-33v38q0 33 -21 63t-85 86q-57 50 -75 81.5t-18 87.5q0 88 49.5 125.5t158.5 37.5q46 0 157 -27l-4 -34q-128 27 -162 27q-86 0 -125.5 -27.5t-39.5 -86.5q0 -56 13.5 -83.5t66.5 -75.5q69 -62 94 -95.5t25 -75.5q0 -26 -1 -41zM283 2h-41v79h41v-79z" />
    <glyph glyph-name="uni0621" unicode="&#x621;" horiz-adv-x="538" 
d="M485 139l11 -45l-432 -94l-8 30l101 26q-73 67 -73 167q0 86 57.5 149.5t149.5 63.5q64 0 135 -32l-6 -26q-58 25 -111 25q-82 0 -133.5 -57t-51.5 -133q0 -87 66 -149z" />
    <glyph glyph-name="uni0622" unicode="&#x622;" horiz-adv-x="226" 
d="M180 705q-20 0 -66 20q-54 23 -65 23q-22 0 -55 -32l-9 -5l-6 24q39 47 73 47q17 0 64 -22q51 -21 61 -21q9 0 26.5 10.5t26.5 19.5l7 6l7 -24q-35 -46 -64 -46zM97 0v644h39v-644h-39z" />
    <glyph glyph-name="uni0623" unicode="&#x623;" horiz-adv-x="226" 
d="M204 743l9 -36l-194 -38l-8 22l50 13q-31 27 -31 65q0 34 23.5 58.5t61.5 24.5q23 0 43 -8.5t27 -15.5l-8 -23q-19 15 -49 15q-28 0 -46 -18t-18 -43q0 -29 24 -47zM97 0v644h39v-644h-39z" />
    <glyph glyph-name="uni0624" unicode="&#x624;" horiz-adv-x="472" 
d="M129 586l-8 22l50 13q-31 27 -31 65q0 34 23.5 58.5t61.5 24.5q23 0 43 -8.5t27 -15.5l-8 -23q-19 15 -49 15q-28 0 -46 -18t-18 -43q0 -29 24 -47l116 31l9 -36zM253 518q71 0 152 -15v-458q0 -96 -10.5 -157t-33 -89.5t-46.5 -37.5t-62 -9q-34 0 -136 12v33
q93 -14 131 -14q28 0 47.5 7t38 28t27.5 66.5t7 115.5h-149q-47 0 -81 15.5t-53 39t-29.5 58.5t-13.5 65.5t-3 69.5q0 140 45.5 205t168.5 65zM78 248q0 -34 2.5 -60t11.5 -56.5t25.5 -50.5t46 -33.5t70.5 -13.5h132v442l-2 1q-66 8 -101 8q-106 0 -145.5 -57.5
t-39.5 -179.5z" />
    <glyph glyph-name="uni0625" unicode="&#x625;" horiz-adv-x="226" 
d="M136 730v-730h-39v730h39zM225 -166l9 -36l-194 -38l-8 22l49 13q-30 26 -30 65q0 34 23.5 58.5t61.5 24.5q23 0 43 -9t26 -15l-8 -24q-20 16 -48 16t-46 -18t-18 -43q0 -28 23 -48z" />
    <glyph glyph-name="uni0626" unicode="&#x626;" horiz-adv-x="806" 
d="M544 170q108 -19 155 -65.5t47 -134.5q0 -89 -53 -153.5t-158 -64.5h-253q-113 0 -177.5 58t-64.5 138q0 60 25 235l39 -6q-25 -163 -25 -214q0 -80 59.5 -128.5t138.5 -48.5l256 -2q82 0 129 56.5t47 125.5q0 73 -34.5 110t-140.5 57q-125 21 -171.5 58t-46.5 134
q0 88 52.5 131.5t164.5 43.5q78 0 199 -15l-4 -36q-151 18 -196 18q-177 0 -177 -141q0 -29 1.5 -45.5t9 -33t18.5 -26t34 -19t51.5 -16.5t74.5 -16zM51 254l-8 22l50 13q-31 27 -31 65q0 34 23.5 58.5t61.5 24.5q23 0 43 -8.5t27 -15.5l-8 -23q-19 15 -49 15q-28 0 -46 -18
t-18 -43q0 -29 24 -47l116 31l9 -36z" />
    <glyph glyph-name="uni0627" unicode="&#x627;" horiz-adv-x="226" 
d="M97 0v730h39v-730h-39z" />
    <glyph glyph-name="uni0628" unicode="&#x628;" horiz-adv-x="714" 
d="M588 500h39v-500h-332q-79 0 -129 10t-73.5 31t-31 43.5t-7.5 58.5q0 80 31 245l28 -1q-3 -28 -10.5 -83.5t-11 -91t-3.5 -60.5q0 -75 44.5 -96.5t171.5 -21.5h284v466zM336 -133v53h44v-53h-44z" />
    <glyph glyph-name="uni0629" unicode="&#x629;" horiz-adv-x="520" 
d="M224 650v-53h-45v53h45zM318 650v-53h-45v53h45zM235 510q97 0 219 -10v-500h-199q-123 0 -169 59.5t-46 189.5q0 133 44.5 197t150.5 64zM79 252q0 -116 42 -167t151 -51h143v434q-124 7 -157 7q-97 0 -138 -53.5t-41 -169.5z" />
    <glyph glyph-name="uni062A" unicode="&#x62a;" horiz-adv-x="714" 
d="M335 557v-53h-45v53h45zM429 557v-53h-45v53h45zM588 500h39v-500h-332q-79 0 -129 10t-73.5 31t-31 43.5t-7.5 58.5q0 80 31 245l28 -1q-3 -28 -10.5 -83.5t-11 -91t-3.5 -60.5q0 -75 44.5 -96.5t171.5 -21.5h284v466z" />
    <glyph glyph-name="uni062B" unicode="&#x62b;" horiz-adv-x="714" 
d="M388 672v-61h-61v61h61zM333 560v-60h-58v60h58zM382 500v60h58v-60h-58zM588 500h39v-500h-332q-79 0 -129 10t-73.5 31t-31 43.5t-7.5 58.5q0 80 31 245l28 -1q-3 -28 -10.5 -83.5t-11 -91t-3.5 -60.5q0 -75 44.5 -96.5t171.5 -21.5h284v466z" />
    <glyph glyph-name="uni062C" unicode="&#x62c;" horiz-adv-x="526" 
d="M462 -259l5 -33q-122 -24 -197 -24q-230 0 -230 214q0 99 50 145.5t150 46.5q64 0 114 -16t73 -36v322q0 54 -31 82.5t-87 28.5q-59 1 -203 -26l-2 35q15 3 51.5 9.5t59 10t51 7t47.5 3.5t36.5 -3t40 -14t38.5 -29t27 -51.5t11 -77.5v-335h-39q-29 20 -79 36.5t-109 16.5
q-78 0 -117.5 -36t-39.5 -119q0 -181 197 -181q69 0 183 24zM345 -182h-58v60h58v-60z" />
    <glyph glyph-name="uni062D" unicode="&#x62d;" horiz-adv-x="526" 
d="M462 -259l5 -33q-122 -24 -197 -24q-230 0 -230 214q0 99 50 145.5t150 46.5q64 0 114 -16t73 -36v322q0 54 -31 82.5t-87 28.5q-59 1 -203 -26l-2 35q15 3 51.5 9.5t59 10t51 7t47.5 3.5t36.5 -3t40 -14t38.5 -29t27 -51.5t11 -77.5v-335h-39q-29 20 -79 36.5t-109 16.5
q-78 0 -117.5 -36t-39.5 -119q0 -181 197 -181q69 0 183 24z" />
    <glyph glyph-name="uni062E" unicode="&#x62e;" horiz-adv-x="526" 
d="M281 646v-53h-44v53h44zM462 -259l5 -33q-122 -24 -197 -24q-230 0 -230 214q0 99 50 145.5t150 46.5q64 0 114 -16t73 -36v322q0 54 -31 82.5t-87 28.5q-59 1 -203 -26l-2 35q15 3 51.5 9.5t59 10t51 7t47.5 3.5t36.5 -3t40 -14t38.5 -29t27 -51.5t11 -77.5v-335h-39
q-29 20 -79 36.5t-109 16.5q-78 0 -117.5 -36t-39.5 -119q0 -181 197 -181q69 0 183 24z" />
    <glyph glyph-name="uni062F" unicode="&#x62f;" horiz-adv-x="470" 
d="M159 520q35 0 67 -7.5t66 -29t58.5 -55.5t40.5 -93.5t16 -136.5v-198h-367v34h328v169q0 85 -20 144.5t-53.5 88t-66.5 40t-70 11.5h-67l-2 25l14 4q27 4 56 4z" />
    <glyph glyph-name="uni0630" unicode="&#x630;" horiz-adv-x="470" 
d="M155 673v-53h-44v53h44zM159 520q35 0 67 -7.5t66 -29t58.5 -55.5t40.5 -93.5t16 -136.5v-198h-367v34h328v169q0 85 -20 144.5t-53.5 88t-66.5 40t-70 11.5h-67l-2 25l14 4q27 4 56 4z" />
    <glyph glyph-name="uni0631" unicode="&#x631;" horiz-adv-x="357" 
d="M113 -248q-8 0 -73 5v34q75 -5 78 -5q61 0 91 49t30 136v529h39v-510q0 -238 -165 -238z" />
    <glyph glyph-name="uni0632" unicode="&#x632;" horiz-adv-x="357" 
d="M234 593v53h44v-53h-44zM113 -248q-8 0 -73 5v34q75 -5 78 -5q61 0 91 49t30 136v529h39v-510q0 -238 -165 -238z" />
    <glyph glyph-name="uni0633" unicode="&#x633;" horiz-adv-x="1111" 
d="M1000 499q35 -134 35 -221v-278h-173q-54 0 -110 46q-31 -46 -91 -46h-144v-40q0 -49 -16.5 -87t-40.5 -60t-56 -36.5t-59.5 -19.5t-54.5 -5q-37 0 -77 10t-80.5 31t-66.5 62t-26 96q0 66 37 318l39 -2q-34 -217 -34 -303q0 -58 32.5 -100.5t76.5 -60.5t90 -18
q75 0 136 46.5t61 121.5v497h39v-416h134q93 0 93 159v257h39v-256q0 -74 -16 -117q48 -43 104 -43h125v270q0 50 -23 194z" />
    <glyph glyph-name="uni0634" unicode="&#x634;" horiz-adv-x="1111" 
d="M791 765v-61h-61v61h61zM736 653v-60h-58v60h58zM785 593v60h58v-60h-58zM1000 499q35 -134 35 -221v-278h-173q-54 0 -110 46q-31 -46 -91 -46h-144v-40q0 -49 -16.5 -87t-40.5 -60t-56 -36.5t-59.5 -19.5t-54.5 -5q-37 0 -77 10t-80.5 31t-66.5 62t-26 96q0 66 37 318
l39 -2q-34 -217 -34 -303q0 -58 32.5 -100.5t76.5 -60.5t90 -18q75 0 136 46.5t61 121.5v497h39v-416h134q93 0 93 159v257h39v-256q0 -74 -16 -117q48 -43 104 -43h125v270q0 50 -23 194z" />
    <glyph glyph-name="uni0635" unicode="&#x635;" horiz-adv-x="1088" 
d="M1028 251v-251h-511v-40q0 -49 -16.5 -87t-40.5 -60t-56 -36.5t-60 -19.5t-55 -5q-37 0 -76.5 10t-80 31t-66.5 63t-26 98q0 61 37 315l38 -2q-33 -233 -33 -301q0 -59 33 -101.5t77 -60.5t89 -18q74 0 135.5 46t61.5 121v547h39v-160q34 42 57.5 66.5t58 51.5t75 39.5
t89.5 12.5q67 0 114.5 -24t71.5 -64.5t34.5 -82.5t10.5 -88zM804 476q-44 0 -85 -15t-73.5 -40.5t-55 -47.5t-45.5 -50.5t-28 -33.5v-255h472v216q0 97 -46.5 161.5t-138.5 64.5z" />
    <glyph glyph-name="uni0636" unicode="&#x636;" horiz-adv-x="1088" 
d="M766 646v-53h-44v53h44zM1028 251v-251h-511v-40q0 -49 -16.5 -87t-40.5 -60t-56 -36.5t-60 -19.5t-55 -5q-37 0 -76.5 10t-80 31t-66.5 63t-26 98q0 61 37 315l38 -2q-33 -233 -33 -301q0 -59 33 -101.5t77 -60.5t89 -18q74 0 135.5 46t61.5 121v547h39v-160
q34 42 57.5 66.5t58 51.5t75 39.5t89.5 12.5q67 0 114.5 -24t71.5 -64.5t34.5 -82.5t10.5 -88zM804 476q-44 0 -85 -15t-73.5 -40.5t-55 -47.5t-45.5 -50.5t-28 -33.5v-255h472v216q0 97 -46.5 161.5t-138.5 64.5z" />
    <glyph glyph-name="uni0637" unicode="&#x637;" horiz-adv-x="697" 
d="M406 510q67 0 114.5 -24t71.5 -64.5t34.5 -82.5t10.5 -88v-251h-604v34h54v696h39v-390q34 42 57.5 66.5t58 51.5t75 39.5t89.5 12.5zM414 476q-44 0 -85.5 -15t-74 -40.5t-54.5 -47.5t-45.5 -50.5t-28.5 -33.5v-255h472v216q0 97 -46.5 161.5t-137.5 64.5z" />
    <glyph glyph-name="uni0638" unicode="&#x638;" horiz-adv-x="697" 
d="M406 510q67 0 114.5 -24t71.5 -64.5t34.5 -82.5t10.5 -88v-251h-604v34h54v696h39v-390q34 42 57.5 66.5t58 51.5t75 39.5t89.5 12.5zM374 646v-53h-44v53h44zM414 476q-44 0 -85.5 -15t-74 -40.5t-54.5 -47.5t-45.5 -50.5t-28.5 -33.5v-255h472v216q0 97 -46.5 161.5
t-137.5 64.5z" />
    <glyph glyph-name="uni0639" unicode="&#x639;" horiz-adv-x="491" 
d="M475 -257l6 -32q-127 -27 -211 -27q-230 0 -230 218q0 20 0.5 31t6.5 38.5t18 45.5t37.5 37t62.5 28q-58 79 -58 200q0 227 192 227q104 0 180 -49l-1 -30q-1 5 -27 15.5t-67.5 20t-77.5 9.5q-157 0 -157 -198q0 -118 71 -188q7 1 22 1q106 0 174 -52v-38q-77 53 -180 53
q-78 0 -117.5 -36.5t-39.5 -118.5q0 -181 200 -181q74 0 196 26z" />
    <glyph glyph-name="uni063A" unicode="&#x63a;" horiz-adv-x="491" 
d="M333 646v-53h-44v53h44zM475 -257l6 -32q-127 -27 -211 -27q-230 0 -230 218q0 20 0.5 31t6.5 38.5t18 45.5t37.5 37t62.5 28q-58 79 -58 200q0 227 192 227q104 0 180 -49l-1 -30q-1 5 -27 15.5t-67.5 20t-77.5 9.5q-157 0 -157 -198q0 -118 71 -188q7 1 22 1
q106 0 174 -52v-38q-77 53 -180 53q-78 0 -117.5 -36.5t-39.5 -118.5q0 -181 200 -181q74 0 196 26z" />
    <glyph glyph-name="uni0640" unicode="&#x640;" horiz-adv-x="250" 
d="M0 0v34h250v-34h-250z" />
    <glyph glyph-name="uni0641" unicode="&#x641;" horiz-adv-x="929" 
d="M755 646v-53h-44v53h44zM850 492l12 -1v-491h-581q-79 0 -129 10t-73.5 31t-31 43.5t-7.5 57.5q0 91 33 246l28 -1q0 -4 -5 -36.5t-9.5 -64.5t-8.5 -71t-4 -63q0 -75 44.5 -96.5t171.5 -21.5h247q-22 36 -28.5 78t-6.5 111q0 165 42 220.5t174 55.5q71 0 132 -7zM823 34
v428q-72 6 -114 6q-102 0 -136.5 -52t-34.5 -173q0 -165 44 -209h241z" />
    <glyph glyph-name="uni0642" unicode="&#x642;" horiz-adv-x="826" 
d="M569 650v-53h-45v53h45zM663 650v-53h-45v53h45zM737 492l12 -1v-527q0 -94 -58.5 -144.5t-153.5 -50.5h-281q-96 0 -156 50.5t-60 144.5q0 73 33 263l38 -6q-29 -181 -29 -238q0 -87 45.5 -133.5t133.5 -46.5h269q90 0 135 46.5t45 134.5v16h-159q-93 0 -128.5 51
t-35.5 181q0 65 8 110.5t28.5 83t60 56.5t98.5 19q65 0 155 -9zM572 34h138v428q-107 8 -116 8q-95 0 -131.5 -57t-36.5 -176q0 -112 32.5 -157.5t113.5 -45.5z" />
    <glyph glyph-name="uni0643" unicode="&#x643;" horiz-adv-x="733" 
d="M597 730h39v-730h-338q-79 0 -129.5 10t-73.5 31t-30.5 43.5t-7.5 58.5q0 72 27 217l29 -1q-23 -165 -23 -207q0 -75 45 -96.5t172 -21.5h290v696zM236 363l-8 22l50 13q-31 27 -31 65q0 34 23.5 58.5t61.5 24.5q23 0 43 -8.5t27 -15.5l-8 -23q-19 15 -49 15
q-28 0 -46 -18t-18 -43q0 -29 24 -47l116 31l9 -36z" />
    <glyph glyph-name="uni0644" unicode="&#x644;" horiz-adv-x="613" 
d="M283 -248q-102 0 -172.5 53.5t-70.5 142.5q0 81 43 324l39 -2q-40 -252 -40 -323q0 -73 58 -117t143 -44q79 0 136.5 39.5t57.5 122.5v782h39v-787q0 -53 -21 -91.5t-56.5 -59.5t-74.5 -30.5t-81 -9.5z" />
    <glyph glyph-name="uni0645" unicode="&#x645;" horiz-adv-x="572" 
d="M277 511q49 0 87 -11.5t71.5 -39t51.5 -80.5t18 -130v-250h-321q-110 0 -110 -136q0 -67 27 -190h-32q-27 131 -27 195q0 135 83 160q-14 88 -14 212q0 154 20 247q60 23 146 23zM172 34h294v216q0 124 -53 175t-148 51q-47 0 -97 -11q-15 -105 -15 -224q0 -121 14 -207
h5z" />
    <glyph glyph-name="uni0646" unicode="&#x646;" horiz-adv-x="580" 
d="M264 500v53h44v-53h-44zM283 -248q-102 0 -172.5 53.5t-70.5 142.5q0 81 43 324l39 -2q-40 -252 -40 -323q0 -73 58 -117t143 -44q79 0 136.5 39.5t57.5 122.5v552h39v-557q0 -53 -21 -91.5t-56.5 -59.5t-74.5 -30.5t-81 -9.5z" />
    <glyph glyph-name="uni0647" unicode="&#x647;" horiz-adv-x="520" 
d="M235 510q97 0 219 -10v-500h-199q-123 0 -169 59.5t-46 189.5q0 133 44.5 197t150.5 64zM79 252q0 -116 42 -167t151 -51h143v434q-124 7 -157 7q-97 0 -138 -53.5t-41 -169.5z" />
    <glyph glyph-name="uni0648" unicode="&#x648;" horiz-adv-x="472" 
d="M253 518q71 0 152 -15v-458q0 -96 -10.5 -157t-33 -89.5t-46.5 -37.5t-62 -9q-34 0 -136 12v33q93 -14 131 -14q28 0 47.5 7t38 28t27.5 66.5t7 115.5h-149q-47 0 -81 15.5t-53 39t-29.5 58.5t-13.5 65.5t-3 69.5q0 140 45.5 205t168.5 65zM78 248q0 -34 2.5 -60
t11.5 -56.5t25.5 -50.5t46 -33.5t70.5 -13.5h132v442l-2 1q-66 8 -101 8q-106 0 -145.5 -57.5t-39.5 -179.5z" />
    <glyph glyph-name="uni0649" unicode="&#x649;" horiz-adv-x="806" 
d="M282 -248q-113 0 -177.5 58t-64.5 138q0 60 25 235l39 -6q-25 -163 -25 -214q0 -80 59.5 -128.5t138.5 -48.5l256 -2q82 0 129 56.5t47 125.5q0 73 -34.5 110t-140.5 57q-125 21 -171.5 58t-46.5 134q0 88 52.5 131.5t164.5 43.5q78 0 199 -15l-4 -36q-151 18 -196 18
q-177 0 -177 -141q0 -29 1.5 -45.5t9 -33t18.5 -26t34 -19t51.5 -16.5t74.5 -16q108 -19 155 -65.5t47 -134.5q0 -89 -53 -153.5t-158 -64.5h-253z" />
    <glyph glyph-name="uni064A" unicode="&#x64a;" horiz-adv-x="806" 
d="M282 -248q-113 0 -177.5 58t-64.5 138q0 60 25 235l39 -6q-25 -163 -25 -214q0 -80 59.5 -128.5t138.5 -48.5l256 -2q82 0 129 56.5t47 125.5q0 73 -34.5 110t-140.5 57q-125 21 -171.5 58t-46.5 134q0 88 52.5 131.5t164.5 43.5q78 0 199 -15l-4 -36q-151 18 -196 18
q-177 0 -177 -141q0 -29 1.5 -45.5t9 -33t18.5 -26t34 -19t51.5 -16.5t74.5 -16q108 -19 155 -65.5t47 -134.5q0 -89 -53 -153.5t-158 -64.5h-253zM316 -374v54h45v-54h-45zM410 -374v54h45v-54h-45z" />
    <glyph glyph-name="uni064B" unicode="&#x64b;" horiz-adv-x="0" 
d="M-102 775v37l204 40v-37zM-102 691v37l204 40v-37z" />
    <glyph glyph-name="uni064C" unicode="&#x64c;" horiz-adv-x="0" 
d="M98 823v-33l-7 -1v-1h-1l-195 -38q-5 11 -27 94l25 9l23 -72l46 12q-8 19 -12 39.5t-2.5 42.5t18.5 36t48 14q44 0 67 -24.5t17 -77.5zM20 896q-22 0 -33 -10t-10 -26t5.5 -30t11.5 -29l70 18q2 13 4 30t-10 32t-38 15zM61 809zM5 782q1 -1 1 0h-1z" />
    <glyph glyph-name="uni064D" unicode="&#x64d;" horiz-adv-x="0" 
d="M-103 -70v36l203 40v-36zM-103 -160v36l203 40v-36z" />
    <glyph glyph-name="uni064E" unicode="&#x64e;" horiz-adv-x="0" 
d="M-102 691v37l204 40v-37z" />
    <glyph glyph-name="uni064F" unicode="&#x64f;" horiz-adv-x="0" 
d="M98 823v-33l-7 -1v-1h-1l-195 -38v26l67 17q-8 19 -12 39.5t-2.5 42.5t18.5 36t48 14q44 0 67 -24.5t17 -77.5zM20 896q-22 0 -33 -10t-10 -26t5.5 -30t11.5 -29l70 18q2 13 4 30t-10 32t-38 15zM61 809zM5 782q1 -1 1 0h-1z" />
    <glyph glyph-name="uni0650" unicode="&#x650;" horiz-adv-x="0" 
d="M-103 -70v36l203 40v-36z" />
    <glyph glyph-name="uni0651" unicode="&#x651;" horiz-adv-x="0" 
d="M-31 687q-38 -7 -54.5 5t-16.5 42q0 24 2 49l24 6v-40q0 -16 7.5 -27.5t24.5 -8.5q29 2 29 41v33l31 6v-33q0 -12 11 -21t25 -5l23 5v82l24 5q3 -19 3 -49v-57l-51 -10q-43 -9 -50 18v-2q1 -30 -32 -39z" />
    <glyph glyph-name="uni0652" unicode="&#x652;" horiz-adv-x="0" 
d="M-1 692q-34 0 -57.5 26t-23.5 63q0 35 23.5 61t57.5 26q35 0 59.5 -26t24.5 -61q0 -37 -24.5 -63t-59.5 -26zM1 720q21 0 36.5 18t15.5 43q0 23 -15.5 40t-36.5 17q-22 0 -37.5 -17t-15.5 -40q0 -25 15.5 -43t37.5 -18z" />
    <glyph glyph-name="uni0653" unicode="&#x653;" horiz-adv-x="0" 
d="M65 761q-20 0 -66 20q-54 23 -65 23q-22 0 -55 -32l-9 -5l-6 24q39 47 73 47q17 0 64 -22q51 -21 61 -21q9 0 26.5 10.5t26.5 19.5l7 6l7 -24q-35 -46 -64 -46z" />
    <glyph glyph-name="uni0654" unicode="&#x654;" horiz-adv-x="0" 
d="M94 835l9 -36l-194 -38l-8 22l50 13q-31 27 -31 65q0 34 23.5 58.5t61.5 24.5q23 0 43 -8.5t27 -15.5l-8 -23q-19 15 -49 15q-28 0 -46 -18t-18 -43q0 -29 24 -47z" />
    <glyph glyph-name="uni0655" unicode="&#x655;" horiz-adv-x="0" 
d="M96 -167l9 -36l-194 -38l-8 22l49 13q-30 26 -30 65q0 34 23.5 58.5t61.5 24.5q23 0 43 -9t26 -15l-8 -24q-20 16 -48 16t-46 -18t-18 -43q0 -28 23 -48z" />
    <glyph glyph-name="uni0656" unicode="&#x656;" horiz-adv-x="0" 
d="M-20 -144v166l40 16v-167z" />
    <glyph glyph-name="uni0658" unicode="&#x658;" horiz-adv-x="0" 
d="M2 672q-44 0 -66.5 21t-22.5 51q0 29 15 117l22 -1q-15 -105 -15 -112q0 -27 18 -42t49 -15q28 0 46 13.5t18 40.5v201h21v-205q0 -30 -21.5 -49.5t-63.5 -19.5z" />
    <glyph glyph-name="uni0660" unicode="&#x660;" horiz-adv-x="237" 
d="M80 151v104h77v-104h-77z" />
    <glyph glyph-name="uni0661" unicode="&#x661;" horiz-adv-x="302" 
d="M132 0v660h39v-660h-39z" />
    <glyph glyph-name="uni0662" unicode="&#x662;" horiz-adv-x="496" 
d="M123 0v660h39v-136q0 -83 29 -120.5t89 -37.5q70 0 96.5 39t26.5 121v134h39v-138q0 -189 -167 -189q-85 0 -113 57v-390h-39z" />
    <glyph glyph-name="uni0663" unicode="&#x663;" horiz-adv-x="687" 
d="M118 0v660h38v-182q0 -24 2.5 -40t10.5 -35t27.5 -28.5t50.5 -9.5q57 0 76 31.5t19 80.5v183h41v-181q0 -113 92 -113q50 0 68.5 30t18.5 82v182h46v-184q0 -145 -127 -145q-42 0 -77 15.5t-46 46.5q-20 -62 -99 -62q-78 0 -102 62v-393h-39z" />
    <glyph glyph-name="uni0664" unicode="&#x664;" horiz-adv-x="498" 
d="M212 34h216v-34h-214q-73 0 -104.5 31.5t-31.5 72.5v2q-1 9 0 17.5t12.5 32.5t33 48.5t70 62t115.5 77.5q-85 -8 -141.5 44.5t-56.5 130.5q0 65 47.5 101.5t146.5 36.5q73 0 99 -13l-1 -32q-75 10 -110 10q-67 0 -107 -27t-40 -82q0 -56 38.5 -96t99.5 -40h105l-5 -43
q-45 -24 -74 -41t-69 -43.5t-63.5 -48t-41 -48t-17.5 -50.5q0 -29 23 -49t70 -20z" />
    <glyph glyph-name="uni0665" unicode="&#x665;" horiz-adv-x="588" 
d="M293 -1q-62 0 -107 30t-68 80.5t-33 104.5t-10 115q0 43 4.5 84t19 89t37.5 83t63.5 58.5t93.5 23.5q67 0 113.5 -34t68 -90t30 -107t8.5 -107q0 -61 -10 -114.5t-33.5 -104.5t-68.5 -81t-108 -30zM293 32q52 0 89 27t56 73t27.5 94.5t8.5 103.5q0 51 -7 97t-24.5 96.5
t-56 81t-93.5 30.5q-54 0 -92 -30t-55.5 -80.5t-24.5 -97t-7 -97.5q0 -55 8.5 -104t27.5 -94.5t55.5 -72.5t87.5 -27z" />
    <glyph glyph-name="uni0666" unicode="&#x666;" horiz-adv-x="426" 
d="M260 0v629h-227v31h266v-660h-39z" />
    <glyph glyph-name="uni0667" unicode="&#x667;" horiz-adv-x="581" 
d="M491 647h43l-214 -647h-72l-206 647h47q174 -550 198 -621q-1 1 -1 2h1q9 32 95 291.5t109 327.5zM287 25z" />
    <glyph glyph-name="uni0668" unicode="&#x668;" horiz-adv-x="581" 
d="M534 0h-43q-22 64 -108 324.5t-96 293.5h-1l1 2q-16 -48 -198 -620h-47l206 647h72zM287 621z" />
    <glyph glyph-name="uni0669" unicode="&#x669;" horiz-adv-x="556" 
d="M396 0v268q-68 -21 -143 -21q-52 0 -91.5 15.5t-60.5 37.5t-34 52.5t-16.5 54t-3.5 49.5q0 97 66.5 150.5t170.5 53.5q64 0 151 -16v-644h-39zM259 278q55 0 137 19v314q-2 2 -18.5 6t-47 8t-59.5 4q-84 0 -134.5 -44.5t-50.5 -129.5q0 -86 50.5 -131.5t122.5 -45.5z" />
    <glyph glyph-name="uni066A" unicode="&#x66a;" 
d="M141 398q-48 0 -76 35t-28 104q0 132 104 132q103 0 103 -132q0 -69 -27.5 -104t-75.5 -35zM206 -9l-31 8l185 670l31 -9zM142 429q67 0 67 110q0 52 -15.5 75t-51.5 23t-52 -23t-16 -75q0 -110 68 -110zM419 -9q-47 0 -74 35.5t-27 104.5q0 131 103 131q102 0 102 -130
q0 -69 -28 -105t-76 -36zM421 23q37 0 52 25.5t15 80.5t-15 78.5t-52 23.5t-53 -23t-16 -76q0 -57 16.5 -83t52.5 -26z" />
    <glyph glyph-name="uni066B" unicode="&#x66b;" horiz-adv-x="153" 
d="M43 -123l44 210h39l-51 -210h-32z" />
    <glyph glyph-name="uni066C" unicode="&#x66c;" horiz-adv-x="146" 
d="M41 -81l29 148h36l-39 -148h-26z" />
    <glyph glyph-name="uni066D" unicode="&#x66d;" horiz-adv-x="417" 
d="M234 380l-41 130l-109 -79l-21 27l110 80l-108 79l21 28l109 -81l42 129l32 -10l-41 -130h134v-34h-138l43 -128z" />
    <glyph glyph-name="uni066E" unicode="&#x66e;" horiz-adv-x="714" 
d="M588 500h39v-500h-332q-79 0 -129 10t-73.5 31t-31 43.5t-7.5 58.5q0 80 31 245l28 -1q-3 -28 -10.5 -83.5t-11 -91t-3.5 -60.5q0 -75 44.5 -96.5t171.5 -21.5h284v466z" />
    <glyph glyph-name="uni066F" unicode="&#x66f;" horiz-adv-x="826" 
d="M737 492l12 -1v-527q0 -94 -58.5 -144.5t-153.5 -50.5h-281q-96 0 -156 50.5t-60 144.5q0 73 33 263l38 -6q-29 -181 -29 -238q0 -87 45.5 -133.5t133.5 -46.5h269q90 0 135 46.5t45 134.5v16h-159q-93 0 -128.5 51t-35.5 181q0 65 8 110.5t28.5 83t60 56.5t98.5 19
q65 0 155 -9zM572 34h138v428q-107 8 -116 8q-95 0 -131.5 -57t-36.5 -176q0 -112 32.5 -157.5t113.5 -45.5z" />
    <glyph glyph-name="uni0670" unicode="&#x670;" horiz-adv-x="0" 
d="M-18 653v167l36 15v-166z" />
    <glyph glyph-name="uni0671" unicode="&#x671;" horiz-adv-x="226" 
d="M-5 693v27h48q0 40 30.5 70.5t81.5 30.5q83 0 83 -101v-27h-243zM62 720h148q0 76 -63 76q-35 0 -60 -19.5t-25 -56.5zM97 0v644h39v-644h-39z" />
    <glyph glyph-name="uni0679" unicode="&#x679;" horiz-adv-x="714" 
d="M452 571v-71h-193v33h19v169h35v-106q10 19 16 27.5t20 16.5t34 8q69 0 69 -77zM381 610q-31 0 -49.5 -23t-18.5 -49v-5h102v38q0 39 -34 39zM588 500h39v-500h-332q-79 0 -129 10t-73.5 31t-31 43.5t-7.5 58.5q0 80 31 245l28 -1q-3 -28 -10.5 -83.5t-11 -91t-3.5 -60.5
q0 -75 44.5 -96.5t171.5 -21.5h284v466z" />
    <glyph glyph-name="uni067E" unicode="&#x67e;" horiz-adv-x="714" 
d="M588 500h39v-500h-332q-79 0 -129 10t-73.5 31t-31 43.5t-7.5 58.5q0 80 31 245l28 -1q-3 -28 -10.5 -83.5t-11 -91t-3.5 -60.5q0 -75 44.5 -96.5t171.5 -21.5h284v466zM333 -80v-60h-58v60h58zM382 -140v60h58v-60h-58zM327 -252v61h61v-61h-61z" />
    <glyph glyph-name="uni0686" unicode="&#x686;" horiz-adv-x="548" 
d="M320 510q18 0 35.5 -3t40 -14t39 -29t27.5 -51.5t11 -77.5v-335h-39q-29 20 -80 36.5t-108 16.5q-78 0 -117.5 -36t-39.5 -119q0 -181 196 -181l7 -34q-3 0 -8 0.5t-7 0.5q-230 0 -230 214q0 99 50 145.5t150 46.5q96 0 187 -52v322q0 54 -31.5 82.5t-87.5 28.5
q-61 1 -202 -26l-3 35q15 2 51.5 9t59 10.5t51.5 7t48 3.5zM250 -166v78h68v-78h-68zM402 -166v78h68v-78h-68zM328 -278v71h61v-71h-61z" />
    <glyph glyph-name="uni0688" unicode="&#x688;" horiz-adv-x="470" 
d="M227 691v-71h-193v33h19v169h35v-106q10 19 16 27.5t20 16.5t34 8q69 0 69 -77zM156 730q-31 0 -49.5 -23t-18.5 -49v-5h102v38q0 39 -34 39zM159 520q35 0 67 -7.5t66 -29t58.5 -55.5t40.5 -93.5t16 -136.5v-198h-367v34h328v169q0 85 -20 144.5t-53.5 88t-66.5 40
t-70 11.5h-67l-2 25l14 4q27 4 56 4z" />
    <glyph glyph-name="uni0691" unicode="&#x691;" horiz-adv-x="357" 
d="M281 741q69 0 69 -77v-71h-193v33h19v169h35v-106q10 19 16 27.5t20 16.5t34 8zM279 703q-31 0 -49.5 -23t-18.5 -49v-5h102v38q0 39 -34 39zM239 -29v529h39v-510q0 -238 -165 -238q-8 0 -73 5v34q75 -5 78 -5q61 0 91 49t30 136z" />
    <glyph glyph-name="uni0698" unicode="&#x698;" horiz-adv-x="357" 
d="M225 704v61h61v-61h-61zM173 593v60h58v-60h-58zM280 593v60h58v-60h-58zM113 -248q-8 0 -73 5v34q75 -5 78 -5q61 0 91 49t30 136v529h39v-510q0 -238 -165 -238z" />
    <glyph glyph-name="uni06A1" unicode="&#x6a1;" horiz-adv-x="929" 
d="M850 492l12 -1v-491h-581q-79 0 -129 10t-73.5 31t-31 43.5t-7.5 57.5q0 91 33 246l28 -1q0 -4 -5 -36.5t-9.5 -64.5t-8.5 -71t-4 -63q0 -75 44.5 -96.5t171.5 -21.5h247q-22 36 -28.5 78t-6.5 111q0 165 42 220.5t174 55.5q71 0 132 -7zM823 34v428q-72 6 -114 6
q-102 0 -136.5 -52t-34.5 -173q0 -165 44 -209h241z" />
    <glyph glyph-name="uni06A4" unicode="&#x6a4;" horiz-adv-x="929" 
d="M763 765v-61h-61v61h61zM708 653v-60h-58v60h58zM757 593v60h58v-60h-58zM850 492l12 -1v-491h-581q-79 0 -129 10t-73.5 31t-31 43.5t-7.5 57.5q0 91 33 246l28 -1q0 -4 -5 -36.5t-9.5 -64.5t-8.5 -71t-4 -63q0 -75 44.5 -96.5t171.5 -21.5h247q-22 36 -28.5 78
t-6.5 111q0 165 42 220.5t174 55.5q71 0 132 -7zM823 34v428q-72 6 -114 6q-102 0 -136.5 -52t-34.5 -173q0 -165 44 -209h241z" />
    <glyph glyph-name="uni06A9" unicode="&#x6a9;" horiz-adv-x="747" 
d="M517 397q150 0 150 -205v-192h-386q-79 0 -129 10t-73.5 31t-31 43.5t-7.5 58.5q0 61 27 217l29 -1q-22 -174 -22 -207q0 -75 44.5 -96.5t171.5 -21.5h338v159q0 168 -107 170h-273l-39 53l47 92q39 74 135 197l25 -14q-86 -130 -119 -194l-52 -100h272z" />
    <glyph glyph-name="uni06AF" unicode="&#x6af;" horiz-adv-x="747" 
d="M211 494l-23 -46l-14 19l27 55q15 30 58.5 91.5t84.5 110.5l20 -11q-42 -52 -92 -123.5t-61 -95.5zM517 397q150 0 150 -205v-192h-386q-79 0 -129 10t-73.5 31t-31 43.5t-7.5 58.5q0 61 27 217l29 -1q-22 -174 -22 -207q0 -75 44.5 -96.5t171.5 -21.5h338v159
q0 168 -107 170h-273l-39 53l47 92q39 74 135 197l25 -14q-86 -130 -119 -194l-52 -100h272z" />
    <glyph glyph-name="uni06BA" unicode="&#x6ba;" horiz-adv-x="580" 
d="M283 -248q-102 0 -172.5 53.5t-70.5 142.5q0 81 43 324l39 -2q-40 -252 -40 -323q0 -73 58 -117t143 -44q79 0 136.5 39.5t57.5 122.5v552h39v-557q0 -53 -21 -91.5t-56.5 -59.5t-74.5 -30.5t-81 -9.5z" />
    <glyph glyph-name="uni06BE" unicode="&#x6be;" horiz-adv-x="714" 
d="M333 520q45 0 82.5 -5t82.5 -24t76 -51.5t52 -93t21 -142.5v-204h-607v34h60v120q1 70 49.5 116.5t113.5 46.5q64 0 113.5 -44.5t49.5 -118.5v-120h182v166q0 285 -278 285q-69 0 -199 -22l-1 27q-1 0 4.5 1.5t16 4.5t25 6t33 6t38 6t42.5 4.5t44 1.5zM264 284
q-53 0 -89 -34t-36 -82v-134h248v133q0 49 -35 83t-88 34z" />
    <glyph glyph-name="uni06C1" unicode="&#x6c1;" horiz-adv-x="520" 
d="M235 510q97 0 219 -10v-500h-199q-123 0 -169 59.5t-46 189.5q0 133 44.5 197t150.5 64zM79 252q0 -116 42 -167t151 -51h143v434q-124 7 -157 7q-97 0 -138 -53.5t-41 -169.5z" />
    <glyph glyph-name="uni06C2" unicode="&#x6c2;" horiz-adv-x="520" 
d="M151 586l-8 22l50 13q-31 27 -31 65q0 34 23.5 58.5t61.5 24.5q23 0 43 -8.5t27 -15.5l-8 -23q-19 15 -49 15q-28 0 -46 -18t-18 -43q0 -29 24 -47l116 31l9 -36zM235 510q97 0 219 -10v-500h-199q-123 0 -169 59.5t-46 189.5q0 133 44.5 197t150.5 64zM79 252
q0 -116 42 -167t151 -51h143v434q-124 7 -157 7q-97 0 -138 -53.5t-41 -169.5z" />
    <glyph glyph-name="uni06C3" unicode="&#x6c3;" horiz-adv-x="520" 
d="M224 650v-53h-45v53h45zM318 650v-53h-45v53h45zM235 510q97 0 219 -10v-500h-199q-123 0 -169 59.5t-46 189.5q0 133 44.5 197t150.5 64zM79 252q0 -116 42 -167t151 -51h143v434q-124 7 -157 7q-97 0 -138 -53.5t-41 -169.5z" />
    <glyph glyph-name="uni06CC" unicode="&#x6cc;" horiz-adv-x="806" 
d="M282 -248q-113 0 -177.5 58t-64.5 138q0 60 25 235l39 -6q-25 -163 -25 -214q0 -80 59.5 -128.5t138.5 -48.5l256 -2q82 0 129 56.5t47 125.5q0 73 -34.5 110t-140.5 57q-125 21 -171.5 58t-46.5 134q0 88 52.5 131.5t164.5 43.5q78 0 199 -15l-4 -36q-151 18 -196 18
q-177 0 -177 -141q0 -29 1.5 -45.5t9 -33t18.5 -26t34 -19t51.5 -16.5t74.5 -16q108 -19 155 -65.5t47 -134.5q0 -89 -53 -153.5t-158 -64.5h-253z" />
    <glyph glyph-name="uni06D2" unicode="&#x6d2;" horiz-adv-x="748" 
d="M661 293h37v-91q0 -61 -16.5 -102t-49 -62t-70 -29.5t-89.5 -8.5h-381q-10 -22 -10 -67q0 -144 235 -144h305v-34h-338q-73 0 -123 14.5t-75 41.5t-35 57.5t-10 70.5q0 31 7 61h-3l3 1q6 22 11 33h415q40 0 70.5 6.5t58.5 23.5t43 51.5t15 85.5v92z" />
    <glyph glyph-name="uni06D3" unicode="&#x6d3;" horiz-adv-x="748" 
d="M214 227l9 -36l-194 -38l-8 22l50 13q-31 27 -31 65q0 34 23.5 58.5t61.5 24.5q23 0 43 -8.5t27 -15.5l-8 -23q-19 15 -49 15q-28 0 -46 -18t-18 -43q0 -29 24 -47zM661 293h37v-91q0 -61 -16.5 -102t-49 -62t-70 -29.5t-89.5 -8.5h-381q-10 -22 -10 -67q0 -144 235 -144
h305v-34h-338q-73 0 -123 14.5t-75 41.5t-35 57.5t-10 70.5q0 31 7 61h-3l3 1q6 22 11 33h415q40 0 70.5 6.5t58.5 23.5t43 51.5t15 85.5v92z" />
    <glyph glyph-name="uni06D4" unicode="&#x6d4;" horiz-adv-x="189" 
d="M74 0v79h41v-79h-41z" />
    <glyph glyph-name="uni06F0" unicode="&#x6f0;" horiz-adv-x="237" 
d="M80 151v104h77v-104h-77z" />
    <glyph glyph-name="uni06F1" unicode="&#x6f1;" horiz-adv-x="302" 
d="M132 0v660h39v-660h-39z" />
    <glyph glyph-name="uni06F2" unicode="&#x6f2;" horiz-adv-x="496" 
d="M123 0v660h39v-136q0 -83 29 -120.5t89 -37.5q70 0 96.5 39t26.5 121v134h39v-138q0 -189 -167 -189q-85 0 -113 57v-390h-39z" />
    <glyph glyph-name="uni06F3" unicode="&#x6f3;" horiz-adv-x="687" 
d="M118 0v660h38v-182q0 -24 2.5 -40t10.5 -35t27.5 -28.5t50.5 -9.5q57 0 76 31.5t19 80.5v183h41v-181q0 -113 92 -113q50 0 68.5 30t18.5 82v182h46v-184q0 -145 -127 -145q-42 0 -77 15.5t-46 46.5q-20 -62 -99 -62q-78 0 -102 62v-393h-39z" />
    <glyph glyph-name="uni06F4" unicode="&#x6f4;" horiz-adv-x="578" 
d="M508 602h39v-80q0 -101 -55 -145t-164 -44q-125 0 -162 57v-390h-39v660h39v-136q0 -75 32 -112.5t101 -43.5q-19 20 -35 57.5t-16 83.5q0 43 21 62.5t78 19.5q34 0 74 -7l-2 -35q-52 4 -77 4q-46 0 -46 -53q0 -67 59 -134q88 4 120.5 42.5t32.5 117.5v76z" />
    <glyph glyph-name="uni06F5" unicode="&#x6f5;" horiz-adv-x="583" 
d="M183 -2q-58 0 -86.5 47t-28.5 126q0 113 59.5 211.5t157.5 143.5q-21 14 -55 41.5t-45 36.5l19 21q95 -57 157.5 -111.5t95 -110t45 -105.5t12.5 -113q0 -187 -125 -187q-41 0 -63 24t-36 67q-23 -51 -48 -71t-59 -20zM203 29q30 0 45.5 22.5t23 45.5t19.5 23
q11 0 20 -22.5t25 -45.5t45 -23q39 0 66.5 39.5t27.5 109.5q0 80 -41.5 168t-120.5 161q-59 -29 -101.5 -71.5t-64 -89t-31 -88.5t-9.5 -82q0 -70 27.5 -108.5t68.5 -38.5z" />
    <glyph glyph-name="uni06F6" unicode="&#x6f6;" horiz-adv-x="487" 
d="M293 622q-67 0 -107 -27t-40 -82q0 -56 38.5 -96t99.5 -40h105l-5 -43q-45 -24 -74 -41t-69 -43.5t-63.5 -48t-41 -48t-17.5 -50.5l-41 1v2q-1 9 0 17.5t12.5 32.5t33 48.5t70 62t115.5 77.5q-85 -8 -141.5 44.5t-56.5 130.5q0 65 47.5 101.5t146.5 36.5q73 0 99 -13
l-1 -32q-75 10 -110 10z" />
    <glyph glyph-name="uni06F7" unicode="&#x6f7;" horiz-adv-x="581" 
d="M491 647h43l-214 -647h-72l-206 647h47q174 -550 198 -621q-1 1 -1 2h1q9 32 95 291.5t109 327.5zM287 25z" />
    <glyph glyph-name="uni06F8" unicode="&#x6f8;" horiz-adv-x="581" 
d="M534 0h-43q-22 64 -108 324.5t-96 293.5h-1l1 2q-16 -48 -198 -620h-47l206 647h72zM287 621z" />
    <glyph glyph-name="uni06F9" unicode="&#x6f9;" horiz-adv-x="556" 
d="M396 0v268q-68 -21 -143 -21q-52 0 -91.5 15.5t-60.5 37.5t-34 52.5t-16.5 54t-3.5 49.5q0 97 66.5 150.5t170.5 53.5q64 0 151 -16v-644h-39zM259 278q55 0 137 19v314q-2 2 -18.5 6t-47 8t-59.5 4q-84 0 -134.5 -44.5t-50.5 -129.5q0 -86 50.5 -131.5t122.5 -45.5z" />
    <glyph glyph-name="Wgrave" unicode="&#x1e80;" horiz-adv-x="857" 
d="M507 799l-191 93l16 30l192 -96zM186 0l-149 700h37l141 -665h38l154 655h43l154 -655h38l141 665h35l-147 -700h-96l-147 640l-147 -640h-95z" />
    <glyph glyph-name="wgrave" unicode="&#x1e81;" horiz-adv-x="755" 
d="M442 609l-193 92l16 30l192 -95zM171 0l-135 500h37l127 -468h11l148 458h38l147 -458h13l126 468h37l-135 -500h-69l-138 448l-139 -448h-68z" />
    <glyph glyph-name="Wacute" unicode="&#x1e82;" horiz-adv-x="857" 
d="M351 799l-17 27l192 96l16 -30zM186 0l-149 700h37l141 -665h38l154 655h43l154 -655h38l141 665h35l-147 -700h-96l-147 640l-147 -640h-95z" />
    <glyph glyph-name="wacute" unicode="&#x1e83;" horiz-adv-x="755" 
d="M309 609l-15 27l192 95l17 -30zM171 0l-135 500h37l127 -468h11l148 458h38l147 -458h13l126 468h37l-135 -500h-69l-138 448l-139 -448h-68z" />
    <glyph glyph-name="Wdieresis" unicode="&#x1e84;" horiz-adv-x="857" 
d="M312 837v62h37v-62h-37zM508 837v62h35v-62h-35zM186 0l-149 700h37l141 -665h38l154 655h43l154 -655h38l141 665h35l-147 -700h-96l-147 640l-147 -640h-95z" />
    <glyph glyph-name="wdieresis" unicode="&#x1e85;" horiz-adv-x="755" 
d="M266 638v62h35v-62h-35zM455 638v62h37v-62h-37zM171 0l-135 500h37l127 -468h11l148 458h38l147 -458h13l126 468h37l-135 -500h-69l-138 448l-139 -448h-68z" />
    <glyph glyph-name="uni1EAB" unicode="&#x1eab;" horiz-adv-x="494" 
d="M301 730q-21 0 -74 28q-58 26 -69 26q-20 0 -60 -34l-13 -12l-10 30q46 47 82 47q18 0 76 -26q59 -27 68 -27q15 0 52 32l13 9l9 -29q-28 -29 -42 -36.5t-32 -7.5zM101 570l121 133h29l122 -133h-43l-91 100l-95 -100h-43zM179 -9q-63 0 -97.5 38t-34.5 105t33.5 102.5
t105.5 45.5l190 19v51q0 62 -26 92.5t-71 30.5q-65 0 -203 -17l-3 33q104 18 189 18q77 0 113.5 -38.5t36.5 -118.5v-288q1 -15 21 -26.5t53 -15.5l-2 -31q-33 0 -61.5 12t-41.5 32q-100 -44 -202 -44zM180 24q87 0 168 30l28 11v203l-186 -18q-55 -4 -79.5 -30.5
t-24.5 -79.5q0 -116 94 -116z" />
    <glyph glyph-name="uni1EB0" unicode="&#x1eb0;" horiz-adv-x="593" 
d="M340 962l-17 -27l-191 93l16 30zM292 806q43 0 72.5 24.5t28.5 62.5h36q1 -52 -39 -84.5t-99 -32.5t-99 32.5t-39 84.5h34q-1 -37 30 -62t75 -25zM529 0l-66 215h-334l-66 -215h-34l214 700h33l6 5l-2 -5h32l-2 5l6 -5h33l214 -700h-34zM140 250h312l-2 7l1 -1l-129 410
h-52l-128 -409z" />
    <glyph glyph-name="uni1EC5" unicode="&#x1ec5;" horiz-adv-x="501" 
d="M326 730q-21 0 -74 28q-58 26 -69 26q-20 0 -60 -34l-13 -12l-10 30q46 47 82 47q18 0 76 -26q59 -27 68 -27q15 0 52 32l13 9l9 -29q-28 -29 -42 -36.5t-32 -7.5zM116 570l121 133h29l122 -133h-43l-91 100l-95 -100h-43zM260 -9q-111 0 -156 59.5t-45 185.5
q0 140 48.5 206.5t153.5 66.5q96 0 142 -58t46 -182v-33h-354q-2 -117 36.5 -165t139.5 -48q57 0 129 6l30 3l2 -33q-122 -8 -172 -8zM94 268h318q0 111 -36 160t-114 49q-167 0 -168 -209z" />
    <glyph glyph-name="uni1ED7" unicode="&#x1ed7;" horiz-adv-x="525" 
d="M318 730q-21 0 -74 28q-58 26 -69 26q-20 0 -60 -34l-13 -12l-10 30q46 47 82 47q18 0 76 -26q59 -27 68 -27q15 0 52 32l13 9l9 -29q-28 -29 -42 -36.5t-32 -7.5zM118 570l121 133h29l122 -133h-43l-91 100l-95 -100h-43zM263 -9q-122 0 -163 53.5t-41 199.5
q0 153 43 209t161 56q119 0 161 -56.5t42 -208.5q0 -146 -40 -199.5t-163 -53.5zM264 24q103 0 133.5 45.5t30.5 174.5q0 138 -32 185t-132 47q-101 0 -134 -47t-33 -185q0 -128 32 -174t135 -46z" />
    <glyph glyph-name="Ygrave" unicode="&#x1ef2;" horiz-adv-x="525" 
d="M331 799l-191 93l16 30l192 -96zM245 0v302l-228 398h43l203 -359l203 359h43l-228 -398v-302h-36z" />
    <glyph glyph-name="ygrave" unicode="&#x1ef3;" horiz-adv-x="472" 
d="M313 609l-193 92l16 30l192 -95zM175 -230l71 230h-60l-155 500h37l148 -468h39l150 468h37l-230 -730h-37z" />
    <glyph glyph-name="uni1EF8" unicode="&#x1ef8;" horiz-adv-x="524" 
d="M335 833q-17 0 -79 30q-57 29 -73 29q-22 0 -57 -38l-13 -14l-9 30q48 54 82 54q18 0 80 -30t70 -30q18 0 52 37l11 12l10 -29q-20 -24 -34.5 -36t-21.5 -13.5t-18 -1.5zM245 0v302l-228 398h43l203 -359l203 359h43l-228 -398v-302h-36z" />
    <glyph glyph-name="uni1EF9" unicode="&#x1ef9;" horiz-adv-x="472" 
d="M304 630q-21 0 -74 28q-58 26 -69 26q-20 0 -60 -34l-13 -12l-10 30q46 47 82 47q18 0 76 -26q59 -27 68 -27q15 0 52 32l13 9l9 -29q-28 -29 -42 -36.5t-32 -7.5zM175 -230l71 230h-60l-155 500h37l148 -468h39l150 468h37l-230 -730h-37z" />
    <glyph glyph-name="endash" unicode="&#x2013;" horiz-adv-x="642" 
d="M72 252v34h500v-34h-500z" />
    <glyph glyph-name="emdash" unicode="&#x2014;" horiz-adv-x="1142" 
d="M72 252v34h1000v-34h-1000z" />
    <glyph glyph-name="quoteleft" unicode="&#x2018;" horiz-adv-x="192" 
d="M62 527l50 200h29l-41 -200h-38z" />
    <glyph glyph-name="quoteright" unicode="&#x2019;" horiz-adv-x="191" 
d="M141 727l-50 -201h-30l41 201h39z" />
    <glyph glyph-name="quotesinglbase" unicode="&#x201a;" horiz-adv-x="193" 
d="M-27 -122l78 237h89l-47 -237h-120z" />
    <glyph glyph-name="quotedblleft" unicode="&#x201c;" horiz-adv-x="326" 
d="M62 527l50 200h29l-41 -200h-38zM194 527l50 200h30l-42 -200h-38z" />
    <glyph glyph-name="quotedblright" unicode="&#x201d;" horiz-adv-x="336" 
d="M30 728l-50 -200h-30l41 200h39zM407 728l-50 -200h-29l41 200h38z" />
    <glyph glyph-name="quotedblbase" unicode="&#x201e;" horiz-adv-x="318" 
d="M41 -92l50 201h30l-41 -201h-39zM174 -92l50 201h29l-41 -201h-38z" />
    <glyph glyph-name="dagger" unicode="&#x2020;" horiz-adv-x="477" 
d="M221 -79v545h-183v34h183v200h34v-200h184v-34h-184v-545h-34z" />
    <glyph glyph-name="daggerdbl" unicode="&#x2021;" horiz-adv-x="527" 
d="M246 -79v200h-184v32h184v313h-184v34h184v200h35v-200h183v-34h-183v-313h184v-32h-184v-200h-35z" />
    <glyph glyph-name="bullet" unicode="&#x2022;" horiz-adv-x="488" 
d="M118 110v290h250v-290h-250z" />
    <glyph glyph-name="ellipsis" unicode="&#x2026;" horiz-adv-x="698" 
d="M74 0v79h41v-79h-41zM328 0v79h40v-79h-40zM583 0v79h40v-79h-40z" />
    <glyph glyph-name="perthousand" unicode="&#x2030;" horiz-adv-x="828" 
d="M147 398q-47 0 -75 34.5t-28 102.5q0 134 103 134q104 0 104 -134q0 -68 -28 -102.5t-76 -34.5zM213 -9l-31 8l185 670l31 -9zM149 429q67 0 67 106q0 54 -15.5 78t-51.5 24q-37 0 -53 -24t-16 -78q0 -106 69 -106zM426 -9q-48 0 -75 35.5t-27 104.5q0 131 104 131
q101 0 101 -133q0 -66 -28 -102t-75 -36zM685 -9q-48 0 -76 35.5t-28 104.5q0 131 104 131q101 0 101 -133q0 -66 -27.5 -102t-73.5 -36zM426 23q38 0 53.5 25t15.5 81q0 55 -15 78.5t-52 23.5t-53 -23t-16 -77q0 -108 67 -108zM685 23q37 0 52 25.5t15 80.5t-15 78.5
t-52 23.5t-53 -23t-16 -77q0 -108 69 -108z" />
    <glyph glyph-name="guilsinglleft" unicode="&#x2039;" horiz-adv-x="290" 
d="M215 96l-167 138v36l167 129v-38l-134 -107l134 -118v-40z" />
    <glyph glyph-name="guilsinglright" unicode="&#x203a;" horiz-adv-x="290" 
d="M76 90v40l134 117l-134 107v38l166 -129v-36z" />
    <glyph glyph-name="fraction" unicode="&#x2044;" horiz-adv-x="0" 
d="M-194 10l-30 17l391 632l32 -20z" />
    <glyph glyph-name="uni2070" unicode="&#x2070;" horiz-adv-x="280" 
d="M140 469q-111 0 -111 165q0 95 29.5 130t81.5 35t82 -36t30 -129q0 -165 -112 -165zM140 502q36 0 56 29t20 103q0 75 -20 103.5t-56 28.5q-37 0 -56.5 -28t-19.5 -104q0 -74 20 -103t56 -29z" />
    <glyph glyph-name="uni2074" unicode="&#x2074;" horiz-adv-x="280" 
d="M178 478v57h-147v31l89 224h38l-87 -222h107l-1 88h36v-88h37v-33h-37v-57h-35z" />
    <glyph glyph-name="uni2075" unicode="&#x2075;" horiz-adv-x="280" 
d="M146 469q-48 0 -85 10l-14 3l3 30q56 -9 102 -9q57 0 57 69q0 68 -57 68q-35 0 -69 -22l-32 3l10 169h173v-33h-144l-6 -105q32 21 67 21q93 0 93 -98q0 -106 -98 -106z" />
    <glyph glyph-name="uni2076" unicode="&#x2076;" horiz-adv-x="280" 
d="M144 469q-106 0 -106 165q0 87 28 126t85 39q26 0 70 -7l11 -1l-3 -32q-35 7 -76 7q-81 0 -81 -106q52 20 75 20q101 0 101 -101q0 -51 -27 -80.5t-77 -29.5zM145 502q67 0 67 73t-56 73q-61 -1 -84 -23q6 -123 73 -123z" />
    <glyph glyph-name="uni2077" unicode="&#x2077;" horiz-adv-x="280" 
d="M113 470l-34 9l109 251v27h-155v33h192v-61z" />
    <glyph glyph-name="uni2078" unicode="&#x2078;" horiz-adv-x="280" 
d="M140 469q-54 0 -82.5 23.5t-28.5 64.5q0 65 58 87q-53 15 -53 73q0 82 105 82q107 0 107 -81q0 -34 -12 -51t-42 -24q31 -5 45 -23.5t14 -55.5q0 -95 -111 -95zM121 660h38q52 12 52 55q0 51 -71 51t-71 -49q0 -44 52 -57zM140 502q76 0 76 60q0 53 -57 65h-38
q-57 -12 -57 -68q0 -57 76 -57z" />
    <glyph glyph-name="uni2079" unicode="&#x2079;" horiz-adv-x="280" 
d="M127 469q-34 0 -68 7l-13 3l3 31q37 -8 80 -8q80 0 83 105q-60 -18 -78 -18q-47 0 -74 28t-27 78q0 48 28 76t76 28q110 0 110 -168q0 -83 -29 -122.5t-91 -39.5zM135 621q23 0 77 20q-3 125 -74 125q-69 0 -69 -72q0 -31 18.5 -52t47.5 -21z" />
    <glyph glyph-name="uni2080" unicode="&#x2080;" horiz-adv-x="280" 
d="M140 -109q-111 0 -111 165q0 95 29.5 130t81.5 35t82 -36t30 -129q0 -165 -112 -165zM140 -76q36 0 56 29t20 103q0 75 -20 103.5t-56 28.5q-37 0 -56.5 -28t-19.5 -104q0 -74 20 -103t56 -29z" />
    <glyph glyph-name="uni2081" unicode="&#x2081;" horiz-adv-x="280" 
d="M144 -100v273l-82 -57l-15 29l97 67h36v-312h-36z" />
    <glyph glyph-name="uni2082" unicode="&#x2082;" horiz-adv-x="280" 
d="M36 -100v32l98 105q54 59 54 101q0 51 -57 51l-91 -11v29q45 14 94 14q90 0 90 -92q0 -47 -65 -113l-79 -83h150v-33h-194z" />
    <glyph glyph-name="uni2083" unicode="&#x2083;" horiz-adv-x="280" 
d="M144 -109l-107 11l2 31q65 -9 112 -9q56 0 56 61t-61 61h-64v31h66q18 0 34 19.5t16 44.5q0 47 -57 47l-98 -8l-2 31q50 10 98 10q94 0 94 -80q0 -50 -46 -75q30 -10 42.5 -26.5t12.5 -57.5q0 -91 -98 -91z" />
    <glyph glyph-name="uni2084" unicode="&#x2084;" horiz-adv-x="280" 
d="M178 -100v57h-147v31l89 224h38l-87 -222h107l-1 88h36v-88h37v-33h-37v-57h-35z" />
    <glyph glyph-name="uni2085" unicode="&#x2085;" horiz-adv-x="280" 
d="M146 -109q-48 0 -85 10l-14 3l3 30q56 -9 102 -9q57 0 57 69q0 68 -57 68q-35 0 -69 -22l-32 3l10 169h173v-33h-144l-6 -105q32 21 67 21q93 0 93 -98q0 -106 -98 -106z" />
    <glyph glyph-name="uni2086" unicode="&#x2086;" horiz-adv-x="280" 
d="M144 -109q-106 0 -106 165q0 87 28 126t85 39q26 0 70 -7l11 -1l-3 -32q-35 7 -76 7q-81 0 -81 -106q52 20 75 20q101 0 101 -101q0 -51 -27 -80.5t-77 -29.5zM145 -76q67 0 67 73t-56 73q-61 -1 -84 -23q6 -123 73 -123z" />
    <glyph glyph-name="uni2087" unicode="&#x2087;" horiz-adv-x="280" 
d="M113 -108l-34 9l109 251v27h-155v33h192v-61z" />
    <glyph glyph-name="uni2088" unicode="&#x2088;" horiz-adv-x="280" 
d="M140 -109q-54 0 -82.5 23.5t-28.5 64.5q0 65 58 87q-53 15 -53 73q0 82 105 82q107 0 107 -81q0 -34 -12 -51t-42 -24q31 -5 45 -23.5t14 -55.5q0 -95 -111 -95zM121 82h38q52 12 52 55q0 51 -71 51t-71 -49q0 -44 52 -57zM140 -76q76 0 76 60q0 53 -57 65h-38
q-57 -12 -57 -68q0 -57 76 -57z" />
    <glyph glyph-name="uni2089" unicode="&#x2089;" horiz-adv-x="280" 
d="M127 -109q-34 0 -68 7l-13 3l3 31q37 -8 80 -8q80 0 83 105q-60 -18 -78 -18q-47 0 -74 28t-27 78q0 48 28 76t76 28q110 0 110 -168q0 -83 -29 -122.5t-91 -39.5zM135 43q23 0 77 20q-3 125 -74 125q-69 0 -69 -72q0 -31 18.5 -52t47.5 -21z" />
    <glyph glyph-name="Euro" unicode="&#x20ac;" 
d="M337 -9q-124 0 -178 61t-64 193h-62v34h63v114h-63v34h65q10 124 64 183t168 59q88 0 174 -18l-2 -32q-98 19 -184 19q-89 0 -133 -51.5t-51 -159.5h320v-34h-322l-1 -114h323v-34h-325q8 -117 52 -170t140 -53q97 0 181 21l3 -32q-100 -20 -168 -20z" />
    <glyph glyph-name="trademark" unicode="&#x2122;" horiz-adv-x="688" 
d="M183 332v258h-85v31h200v-31h-82v-258h-33zM333 331v290h52l82 -242l89 242h48v-290h-32v257l-87 -246h-35l-85 246v-257h-32z" />
    <glyph glyph-name="uni2126" unicode="&#x2126;" 
d="M40 -9v34h152q-46 84 -83 183.5t-37 161.5q0 162 44.5 231t163.5 69t163.5 -69t44.5 -231q0 -62 -37.5 -161t-84.5 -184h154v-34h-190v29q46 93 83.5 193t37.5 147q0 154 -34.5 214.5t-136.5 60.5t-136.5 -60t-34.5 -215q0 -47 37.5 -147t83.5 -193v-29h-190z" />
    <glyph glyph-name="partialdiff" unicode="&#x2202;" 
d="M285 -9q-110 0 -168.5 57.5t-58.5 159.5t55 159.5t149 57.5q80 0 161 -25l28 -9q-2 167 -45.5 240.5t-143.5 73.5q-65 0 -137 -40l-23 -13l-4 33q22 16 80 35t91 19q113 0 166 -87t53 -280q0 -381 -203 -381zM280 25q171 0 172 330q-106 36 -180 36q-87 0 -132.5 -49
t-45.5 -135t47 -134t139 -48z" />
    <glyph glyph-name="uni2206" unicode="&#x2206;" 
d="M59 0v26l182 634h75l183 -635v-25h-440zM99 34h359l-167 592h-26z" />
    <glyph glyph-name="product" unicode="&#x220f;" 
d="M111 -152v869h-82v33h501v-33h-80v-869h-37v869h-268v-869h-34z" />
    <glyph glyph-name="summation" unicode="&#x2211;" 
d="M53 -152v76l287 391l-287 362v71h450v-33h-414v-27l285 -361v-29l-285 -383v-32h414v-35h-450z" />
    <glyph glyph-name="minus" unicode="&#x2212;" 
d="M69 234v34h422v-34h-422z" />
    <glyph glyph-name="radical" unicode="&#x221a;" 
d="M224 -140l-156 557h-62v33h93l152 -558h8l269 876h36l-280 -908h-60z" />
    <glyph glyph-name="infinity" unicode="&#x221e;" 
d="M148 121q-116 0 -116 171q0 82 29 126.5t85 44.5q48 0 78 -29t56 -96q27 68 56 96.5t78 28.5q56 0 85 -44.5t29 -126.5q0 -171 -116 -171q-47 0 -76.5 28.5t-55.5 93.5q-26 -74 -51.5 -98t-80.5 -24zM147 156h3q9 -1 15.5 0t20 7.5t25 19.5t26.5 41t28 68
q-26 79 -53.5 107.5t-64.5 28.5q-76 0 -76 -136t76 -136zM413 156q76 0 76 136t-76 136q-36 0 -62.5 -25.5t-55.5 -110.5q12 -39 27.5 -67t27 -41t26.5 -20t21 -7.5t16 -0.5z" />
    </font>
</defs>
</svg>
